<svg width="207" height="144" viewBox="0 0 207 144" fill="none" xmlns="http://www.w3.org/2000/svg">
<g clip-path="url(#clip0_307_9806)">
<path d="M41.2326 144C64.0048 144 82.4653 142.598 82.4653 140.868C82.4653 139.138 64.0048 137.736 41.2326 137.736C18.4605 137.736 0 139.138 0 140.868C0 142.598 18.4605 144 41.2326 144Z" fill="#E6E6E6"/>
<path d="M31.5176 31.9511C38.6933 28.8986 47.6308 30.8326 56.3592 32.1749C56.4404 30.5494 57.4249 28.5711 56.3936 27.4371C55.1407 26.0593 55.256 24.6117 56.01 23.1557C57.938 19.4326 55.1757 15.471 52.3867 12.177C51.758 11.4362 50.9636 10.8542 50.0678 10.4781C49.172 10.1021 48.2001 9.9427 47.2312 10.0129L42.0647 10.3819C40.8075 10.4717 39.6077 10.9434 38.6258 11.7338C37.644 12.5242 36.9269 13.5957 36.5706 14.8048C35.3369 16.4828 34.6767 18.1562 35.0924 19.8208C33.2446 21.0837 32.9341 22.6082 33.7645 24.3267C34.4685 25.4088 34.461 26.4621 33.7324 27.4863C32.7755 28.792 32.0426 30.2479 31.5638 31.7943L31.5176 31.9511Z" fill="#2F2E41"/>
<path d="M202.042 124.486H55.792C54.4914 124.486 53.2441 123.969 52.3245 123.049C51.4048 122.129 50.8882 120.882 50.8882 119.581C103.904 113.419 155.923 113.419 206.946 119.581C206.946 120.882 206.429 122.129 205.51 123.049C204.59 123.969 203.343 124.486 202.042 124.486Z" fill="#2F2E41"/>
<path d="M206.946 119.87L50.8882 119.581L68.9747 89.145L69.0613 89.0008V21.9228C69.0612 21.1086 69.2215 20.3023 69.533 19.5501C69.8445 18.7979 70.3011 18.1144 70.8768 17.5387C71.4524 16.963 72.1358 16.5063 72.8879 16.1948C73.6401 15.8832 74.4462 15.7229 75.2603 15.723H181.708C182.522 15.7229 183.329 15.8832 184.081 16.1948C184.833 16.5063 185.516 16.963 186.092 17.5387C186.668 18.1144 187.124 18.7979 187.436 19.5501C187.747 20.3023 187.907 21.1086 187.907 21.9228V89.4624L206.946 119.87Z" fill="#3F3D56"/>
<path d="M75.1193 20.0504C74.584 20.051 74.0707 20.264 73.6922 20.6426C73.3136 21.0212 73.1007 21.5345 73.1001 22.0699V83.2309C73.1007 83.7663 73.3137 84.2796 73.6922 84.6582C74.0707 85.0367 74.584 85.2497 75.1193 85.2503H182.715C183.251 85.2497 183.764 85.0367 184.143 84.6581C184.521 84.2795 184.734 83.7663 184.735 83.2309V22.0699C184.734 21.5345 184.521 21.0212 184.143 20.6426C183.764 20.264 183.251 20.051 182.715 20.0504H75.1193Z" fill="white"/>
<path d="M75.5698 93.3282C75.4044 93.3285 75.2425 93.3761 75.1032 93.4653C74.9639 93.5545 74.853 93.6818 74.7836 93.8319L69.2106 105.949C69.1499 106.081 69.1234 106.226 69.1334 106.37C69.1435 106.515 69.1898 106.655 69.268 106.777C69.3463 106.9 69.4541 107 69.5814 107.07C69.7087 107.139 69.8515 107.176 69.9967 107.176H187.194C187.342 107.176 187.487 107.138 187.616 107.066C187.745 106.995 187.853 106.891 187.931 106.765C188.008 106.64 188.052 106.497 188.059 106.349C188.065 106.202 188.034 106.055 187.968 105.923L181.911 93.8066C181.839 93.6625 181.729 93.5414 181.592 93.4568C181.455 93.3723 181.298 93.3277 181.137 93.3282H75.5698Z" fill="#2F2E41"/>
<path d="M128.485 19.0407C129.202 19.0407 129.783 18.4594 129.783 17.7424C129.783 17.0254 129.202 16.4442 128.485 16.4442C127.768 16.4442 127.187 17.0254 127.187 17.7424C127.187 18.4594 127.768 19.0407 128.485 19.0407Z" fill="white"/>
<path d="M116.965 109.484C116.775 109.484 116.59 109.547 116.439 109.663C116.288 109.778 116.179 109.941 116.129 110.124L114.731 115.317C114.697 115.446 114.692 115.58 114.718 115.71C114.744 115.841 114.799 115.963 114.88 116.069C114.961 116.174 115.065 116.26 115.184 116.318C115.303 116.377 115.434 116.408 115.567 116.408H142.153C142.291 116.408 142.427 116.375 142.549 116.312C142.672 116.248 142.778 116.157 142.858 116.044C142.938 115.932 142.989 115.802 143.009 115.665C143.029 115.529 143.015 115.39 142.97 115.259L141.173 110.066C141.114 109.896 141.004 109.749 140.857 109.644C140.71 109.54 140.535 109.484 140.355 109.484H116.965Z" fill="#2F2E41"/>
<path d="M187.908 87.9911V89.145H68.9751L69.0646 89.0009V87.9911H187.908Z" fill="#2F2E41"/>
<path d="M184.59 40.3893C195.742 40.3893 204.783 31.3479 204.783 20.1947C204.783 9.04146 195.742 0 184.59 0C173.438 0 164.398 9.04146 164.398 20.1947C164.398 31.3479 173.438 40.3893 184.59 40.3893Z" fill="#4285F4"/>
<path d="M192.956 28.9938H176.225C175.919 28.9935 175.626 28.8718 175.41 28.6554C175.193 28.4391 175.072 28.1458 175.071 27.8398V17.7424C175.072 17.4365 175.193 17.1432 175.41 16.9268C175.626 16.7105 175.919 16.5888 176.225 16.5885H192.956C193.262 16.5888 193.555 16.7105 193.771 16.9268C193.988 17.1432 194.109 17.4365 194.11 17.7424V27.8398C194.109 28.1457 193.988 28.4391 193.771 28.6554C193.555 28.8718 193.262 28.9935 192.956 28.9938ZM176.225 17.7425V27.8398H192.957L192.956 17.7424L176.225 17.7425Z" fill="white"/>
<path d="M189.783 17.7425H179.398V13.1265C179.398 9.78321 181.582 7.35663 184.59 7.35663C187.599 7.35663 189.783 9.78321 189.783 13.1265L189.783 17.7425ZM180.552 16.5885H188.629V13.1265C188.629 10.4088 186.968 8.51061 184.59 8.51061C182.212 8.51061 180.552 10.4088 180.552 13.1265L180.552 16.5885Z" fill="white"/>
<path d="M184.59 23.6566C185.228 23.6566 185.744 23.1399 185.744 22.5026C185.744 21.8653 185.228 21.3486 184.59 21.3486C183.953 21.3486 183.437 21.8653 183.437 22.5026C183.437 23.1399 183.953 23.6566 184.59 23.6566Z" fill="white"/>
<path d="M170.494 64.5051H87.3402C86.9319 64.5047 86.5405 64.3423 86.2518 64.0535C85.9632 63.7648 85.8008 63.3734 85.8003 62.9651V42.3357C85.8008 41.9274 85.9632 41.5359 86.2518 41.2472C86.5405 40.9585 86.9319 40.7961 87.3402 40.7956H170.494C170.903 40.7961 171.294 40.9585 171.583 41.2472C171.871 41.5359 172.034 41.9274 172.034 42.3357V62.9651C172.034 63.3734 171.871 63.7648 171.583 64.0535C171.294 64.3423 170.903 64.5047 170.494 64.5051ZM87.3402 41.4116C87.0952 41.4119 86.8604 41.5093 86.6872 41.6826C86.5139 41.8558 86.4165 42.0907 86.4162 42.3357V62.9651C86.4165 63.2101 86.5139 63.445 86.6872 63.6182C86.8604 63.7914 87.0952 63.8889 87.3402 63.8891H170.494C170.739 63.8889 170.974 63.7914 171.147 63.6182C171.321 63.445 171.418 63.2101 171.418 62.9651V42.3357C171.418 42.0907 171.321 41.8558 171.147 41.6826C170.974 41.5093 170.739 41.4119 170.494 41.4116L87.3402 41.4116Z" fill="#E6E6E6"/>
<path d="M100.26 58.1322C103.725 58.1322 106.533 55.3235 106.533 51.8588C106.533 48.3941 103.725 45.5854 100.26 45.5854C96.7962 45.5854 93.9878 48.3941 93.9878 51.8588C93.9878 55.3235 96.7962 58.1322 100.26 58.1322Z" fill="#E6E6E6"/>
<path d="M114.748 47.6765C114.61 47.6763 114.474 47.7032 114.347 47.7556C114.22 47.8081 114.105 47.8851 114.007 47.9822C113.91 48.0793 113.833 48.1946 113.78 48.3216C113.728 48.4485 113.701 48.5846 113.701 48.7221C113.701 48.8595 113.728 48.9956 113.78 49.1226C113.833 49.2496 113.91 49.3649 114.007 49.462C114.105 49.5591 114.22 49.6361 114.347 49.6885C114.474 49.741 114.61 49.7679 114.748 49.7677H164.033C164.311 49.7677 164.576 49.6575 164.772 49.4614C164.969 49.2653 165.079 48.9994 165.079 48.7221C165.079 48.4448 164.969 48.1788 164.772 47.9828C164.576 47.7867 164.311 47.6765 164.033 47.6765H114.748Z" fill="#E6E6E6"/>
<path d="M114.748 53.95C114.47 53.95 114.204 54.0601 114.008 54.2562C113.812 54.4523 113.702 54.7182 113.702 54.9955C113.702 55.2728 113.812 55.5388 114.008 55.7349C114.204 55.9309 114.47 56.0411 114.748 56.0411H135.955C136.233 56.0411 136.498 55.9309 136.694 55.7349C136.891 55.5388 137.001 55.2728 137.001 54.9955C137.001 54.7182 136.891 54.4523 136.694 54.2562C136.498 54.0601 136.233 53.95 135.955 53.95H114.748Z" fill="#E6E6E6"/>
<path d="M68.7704 54.373L53.3987 62.5462L53.2041 55.7352C58.2213 54.8975 62.9947 53.4391 67.4083 51.0647L69.016 47.0924C69.1912 46.6595 69.4759 46.2797 69.8422 45.9901C70.2085 45.7005 70.6438 45.5112 71.1054 45.4407C71.567 45.3702 72.0389 45.421 72.4749 45.588C72.911 45.755 73.2961 46.0326 73.5924 46.3934C74.026 46.9214 74.2428 47.5944 74.1988 48.2762C74.1548 48.958 73.8532 49.5976 73.3553 50.0654L68.7704 54.373Z" fill="#FFB8B8"/>
<path d="M31.2109 101.562C31.0987 101.151 31.0749 100.721 31.141 100.299C31.2071 99.8782 31.3616 99.4758 31.5943 99.1186L34.971 93.9358C35.7697 92.7099 36.9952 91.8245 38.4098 91.4512C39.8243 91.078 41.3271 91.2436 42.6265 91.9159C41.2073 94.3318 41.4052 96.4511 43.1166 98.293C40.4598 99.5901 38.0043 101.264 35.8262 103.264C35.4286 103.535 34.9719 103.707 34.4943 103.766C34.0167 103.825 33.5319 103.768 33.0803 103.602C32.6288 103.436 32.2235 103.164 31.8984 102.809C31.5732 102.454 31.3375 102.027 31.2109 101.562Z" fill="#2F2E41"/>
<path d="M69.4704 94.7857C68.9594 95.6375 68.2381 96.3435 67.3757 96.8362C66.5134 97.3288 65.5389 97.5915 64.5457 97.5991L42.113 97.769L41.1401 92.1256L51.0636 89.2066L42.6968 82.7847L51.8419 72.0817L68.4524 87.5651C69.4233 88.4701 70.0541 89.6809 70.2394 90.9952C70.4246 92.3095 70.1532 93.6476 69.4704 94.7857Z" fill="#2F2E41"/>
<path d="M38.6108 133.381H33.3572C28.6402 101.044 23.8387 68.6169 38.0271 56.5135L54.7608 59.238L52.6204 73.4439L43.2807 84.1469L38.6108 133.381Z" fill="#2F2E41"/>
<path d="M43.229 140.706C42.8177 140.818 42.3873 140.842 41.9662 140.776C41.545 140.71 41.1427 140.556 40.7855 140.323L35.0811 139.556C33.8554 138.757 32.97 137.532 32.5967 136.117C32.2234 134.702 32.3889 133.199 33.061 131.9C35.4767 133.319 37.5958 133.121 39.4373 131.409C40.7385 134.037 42.8823 133.877 44.9298 136.09C45.2009 136.488 45.373 136.945 45.4319 137.422C45.4908 137.9 45.4347 138.385 45.2683 138.836C45.1019 139.288 44.83 139.693 44.4753 140.019C44.1206 140.344 43.6932 140.58 43.229 140.706Z" fill="#2F2E41"/>
<path d="M51.0639 34.9128L41.335 32.5776C42.9508 29.2697 43.0838 25.5891 42.3078 21.6799L48.9235 21.4853C49.1308 26.3465 49.7579 30.888 51.0639 34.9128Z" fill="#FFB8B8"/>
<path d="M53.7375 65.0973C46.6552 69.9239 41.6511 65.2624 37.8323 58.0704C38.363 53.6695 37.5038 48.4029 35.9125 42.6803C35.2048 40.1563 35.469 37.4586 36.653 35.1199C37.8369 32.7812 39.8546 30.9714 42.3076 30.0478L50.6745 33.5506C57.7789 39.3422 59.1773 45.6157 56.5119 52.2323L53.7375 65.0973Z" fill="#4285F4"/>
<path d="M33.3572 39.7778L25.5741 43.8645L39.3891 52.0377L41.3114 56.7799C41.4397 57.0964 41.5022 57.4357 41.4951 57.7772C41.488 58.1187 41.4114 58.4551 41.2701 58.766C41.1287 59.0769 40.9255 59.3557 40.6729 59.5855C40.4202 59.8153 40.1234 59.9913 39.8006 60.1026C39.4336 60.2292 39.0423 60.269 38.6574 60.2191C38.2724 60.1692 37.9042 60.0308 37.5816 59.8148C37.2591 59.5988 36.9909 59.3111 36.7981 58.9741C36.6053 58.6371 36.4931 58.2601 36.4703 57.8725L36.2759 54.5675L18.7171 48.7724C18.1255 48.5772 17.5861 48.2499 17.1397 47.8152C16.6933 47.3806 16.3517 46.8501 16.1407 46.2639C15.8331 45.4094 15.8174 44.477 16.0961 43.6127C16.3749 42.7483 16.9322 42.0008 17.681 41.487L31.8006 31.7992L33.3572 39.7778Z" fill="#FFB8B8"/>
<path d="M41.14 40.5562C37.894 39.1335 34.9423 40.679 31.2165 41.9184L30.6328 31.6046C34.3323 29.6326 37.8595 29.1009 41.14 30.6316L41.14 40.5562Z" fill="#4285F4"/>
<path d="M45.0231 26.5942C48.4536 26.5942 51.2346 23.8128 51.2346 20.3819C51.2346 16.9509 48.4536 14.1696 45.0231 14.1696C41.5925 14.1696 38.8115 16.9509 38.8115 20.3819C38.8115 23.8128 41.5925 26.5942 45.0231 26.5942Z" fill="#FFB8B8"/>
<path d="M52.4542 19.598C46.3043 20.2005 41.6181 19.1945 38.623 16.3304V14.0237H51.9323L52.4542 19.598Z" fill="#2F2E41"/>
</g>
<defs>
<clipPath id="clip0_307_9806">
<rect width="206.946" height="144" fill="white"/>
</clipPath>
</defs>
</svg>
