<svg width="18" height="18" viewBox="0 0 18 18" fill="none" xmlns="http://www.w3.org/2000/svg">
<path fill-rule="evenodd" clip-rule="evenodd" d="M5.25085 3.4875C6.54698 4.95601 7.33464 6.88646 7.33464 9.00008C7.33464 11.1137 6.54698 13.0442 5.25085 14.5127C6.31943 15.2412 7.61005 15.6667 9.0013 15.6667C10.3926 15.6667 11.6832 15.2412 12.7517 14.5127C11.4556 13.0442 10.668 11.1137 10.668 9.00008C10.668 6.88646 11.4556 4.95601 12.7517 3.4875C11.6832 2.75887 10.3926 2.33341 9.0013 2.33341C7.61005 2.33341 6.31943 2.75887 5.25085 3.4875ZM14.0013 4.59031C12.9633 5.76612 12.3346 7.30928 12.3346 9.00008C12.3346 10.6909 12.9633 12.2341 14.0013 13.4098C15.0393 12.2341 15.668 10.6909 15.668 9.00008C15.668 7.30928 15.0393 5.76612 14.0013 4.59031ZM4.0013 13.4098C5.0393 12.2341 5.66797 10.6909 5.66797 9.00008C5.66797 7.30928 5.03931 5.76612 4.0013 4.59031C2.96329 5.76612 2.33464 7.30928 2.33464 9.00008C2.33464 10.6909 2.96329 12.2341 4.0013 13.4098ZM3.44554 2.78887C4.91931 1.46981 6.86752 0.666748 9.0013 0.666748C11.1351 0.666748 13.0833 1.46981 14.5571 2.78887C16.2606 4.31356 17.3346 6.53195 17.3346 9.00008C17.3346 11.4682 16.2606 13.6866 14.5571 15.2113C13.0833 16.5303 11.1351 17.3334 9.0013 17.3334C6.86752 17.3334 4.91931 16.5303 3.44554 15.2113C1.74201 13.6866 0.667969 11.4682 0.667969 9.00008C0.667969 6.53195 1.74201 4.31356 3.44554 2.78887Z" fill="#54577A"/>
</svg>
