<svg width="14" height="10" viewBox="0 0 14 10" fill="none" xmlns="http://www.w3.org/2000/svg">
<path d="M13.1254 0.197497C12.9869 0.201626 12.8554 0.259535 12.7588 0.358956L4.60252 8.51521L1.24627 5.15896C1.19712 5.10777 1.13826 5.0669 1.07313 5.03875C1.00799 5.0106 0.937893 4.99573 0.866938 4.99501C0.795983 4.99428 0.725597 5.00773 0.659903 5.03455C0.594208 5.06137 0.534526 5.10103 0.48435 5.1512C0.434175 5.20138 0.394516 5.26106 0.367695 5.32676C0.340874 5.39245 0.327431 5.46284 0.328153 5.53379C0.328875 5.60475 0.343747 5.67484 0.371899 5.73998C0.400051 5.80511 0.440916 5.86398 0.492102 5.91312L4.22544 9.64646C4.32546 9.74644 4.46109 9.8026 4.60252 9.8026C4.74394 9.8026 4.87958 9.74644 4.9796 9.64646L13.5129 1.11312C13.59 1.03821 13.6426 0.941761 13.664 0.836417C13.6853 0.731073 13.6743 0.621748 13.6324 0.522769C13.5905 0.42379 13.5197 0.339774 13.4292 0.281732C13.3387 0.22369 13.2329 0.194329 13.1254 0.197497Z" fill="#4285F4"/>
</svg>
