<svg width="257" height="250" viewBox="0 0 257 250" fill="none" xmlns="http://www.w3.org/2000/svg">
<g clip-path="url(#clip0_307_9873)">
<path d="M163.636 56.041H149.986V172.422C149.986 174.248 149.626 176.056 148.927 177.743C148.228 179.43 147.204 180.963 145.913 182.254C144.622 183.545 143.089 184.569 141.402 185.268C139.715 185.967 137.907 186.327 136.081 186.327H31.7148V186.46C31.7148 188.286 32.0745 190.094 32.7733 191.781C33.472 193.468 34.4962 195.001 35.7874 196.292C37.0786 197.583 38.6114 198.607 40.2984 199.306C41.9854 200.005 43.7935 200.364 45.6195 200.364H163.636C165.462 200.364 167.271 200.005 168.958 199.306C170.645 198.607 172.177 197.583 173.469 196.292C174.76 195.001 175.784 193.468 176.483 191.781C177.181 190.094 177.541 188.286 177.541 186.46V69.9456C177.541 66.2579 176.076 62.7212 173.469 60.1135C170.861 57.5059 167.324 56.041 163.636 56.041Z" fill="#F2F2F2"/>
<path d="M228.348 240.988C228.589 240.999 228.829 240.936 229.033 240.807C229.237 240.677 229.397 240.488 229.49 240.265C229.584 240.042 229.606 239.795 229.555 239.559C229.503 239.322 229.38 239.108 229.203 238.943L229.122 238.622C229.133 238.596 229.143 238.57 229.154 238.545C229.397 237.97 229.805 237.479 230.327 237.136C230.848 236.792 231.459 236.609 232.083 236.612C232.708 236.614 233.318 236.801 233.836 237.149C234.355 237.496 234.759 237.99 234.999 238.566C235.954 240.869 237.171 243.175 237.471 245.609C237.603 246.685 237.547 247.776 237.307 248.833C239.552 243.935 240.718 238.612 240.725 233.225C240.726 231.873 240.65 230.522 240.5 229.178C240.376 228.077 240.204 226.983 239.983 225.897C238.78 220.006 236.196 214.484 232.444 209.785C230.628 208.795 229.16 207.271 228.237 205.42C227.902 204.755 227.666 204.044 227.535 203.311C227.74 203.338 228.307 200.218 228.153 200.027C228.438 199.594 228.949 199.378 229.261 198.956C230.811 196.853 232.948 197.221 234.063 200.077C236.445 201.28 236.468 203.274 235.006 205.192C234.076 206.412 233.949 208.063 233.133 209.369C233.217 209.476 233.304 209.581 233.388 209.688C234.922 211.661 236.26 213.78 237.381 216.015C237.109 213.512 237.434 210.98 238.331 208.627C239.24 206.434 240.943 204.588 242.444 202.692C242.84 202.183 243.379 201.803 243.992 201.6C244.605 201.397 245.264 201.38 245.886 201.552C246.509 201.723 247.066 202.075 247.488 202.564C247.911 203.052 248.178 203.655 248.258 204.295C248.261 204.323 248.264 204.351 248.267 204.379C248.044 204.505 247.826 204.638 247.613 204.779C247.345 204.958 247.137 205.214 247.017 205.514C246.897 205.813 246.87 206.141 246.939 206.456C247.009 206.771 247.172 207.057 247.408 207.278C247.643 207.498 247.939 207.643 248.258 207.692L248.291 207.697C248.211 208.5 248.071 209.296 247.871 210.078C249.796 217.521 245.641 220.231 239.708 220.353C239.577 220.42 239.449 220.488 239.318 220.551C240.445 223.744 241.151 227.069 241.42 230.444C241.572 232.435 241.563 234.435 241.393 236.425L241.403 236.354C241.833 234.142 243.013 232.146 244.745 230.703C247.316 228.591 250.949 227.813 253.723 226.115C254.018 225.926 254.36 225.825 254.711 225.824C255.061 225.823 255.404 225.922 255.7 226.11C255.996 226.298 256.232 226.566 256.38 226.884C256.528 227.201 256.582 227.555 256.536 227.902L256.525 227.976C256.111 228.144 255.709 228.339 255.319 228.557C255.096 228.683 254.878 228.816 254.665 228.957C254.397 229.136 254.189 229.392 254.069 229.692C253.949 229.991 253.922 230.319 253.991 230.634C254.061 230.949 254.224 231.235 254.46 231.456C254.695 231.676 254.991 231.821 255.31 231.87L255.343 231.875C255.366 231.878 255.386 231.881 255.41 231.885C254.703 233.572 253.712 235.125 252.478 236.475C251.275 242.973 246.106 243.589 240.577 241.697H240.574C239.967 244.333 239.088 246.899 237.951 249.353H228.582C228.549 249.249 228.519 249.142 228.488 249.038C229.356 249.092 230.226 249.04 231.081 248.883C230.386 248.03 229.691 247.171 228.995 246.318C228.98 246.302 228.965 246.285 228.952 246.267C228.599 245.831 228.243 245.398 227.891 244.961L227.89 244.961C227.872 243.622 228.025 242.287 228.348 240.988Z" fill="#F2F2F2"/>
<path d="M125.156 40.2099C125.498 40.7282 125.949 41.1659 126.477 41.4929C127.004 41.8199 127.597 42.0283 128.213 42.1038C128.83 42.1792 129.455 42.1199 130.046 41.9298C130.637 41.7398 131.18 41.4236 131.637 41.0032L151.116 49.7912L154.871 45.0011L131.66 34.7326C130.895 34.0161 129.894 33.605 128.846 33.5774C127.798 33.5497 126.777 33.9073 125.975 34.5825C125.173 35.2576 124.647 36.2034 124.496 37.2406C124.345 38.2778 124.58 39.3343 125.156 40.2099Z" fill="#A0616A"/>
<path d="M208.75 45.6897L210.682 56.6372C210.772 57.1479 210.754 57.6719 210.63 58.1754C210.506 58.6789 210.277 59.1508 209.96 59.5609C209.642 59.971 209.243 60.3101 208.786 60.5566C208.33 60.8031 207.827 60.9514 207.31 60.992L174.483 63.5735L135.897 46.3042L140.506 37.5555L174.002 48.1629L208.75 45.6897Z" fill="#4285F4"/>
<path d="M131.922 37.844H13.9046C6.22532 37.844 0 44.0693 0 51.7486V168.263C0 175.942 6.22532 182.167 13.9046 182.167H131.922C139.601 182.167 145.826 175.942 145.826 168.263V51.7486C145.826 44.0693 139.601 37.844 131.922 37.844Z" fill="#F2F2F2"/>
<path d="M13.9048 40.7034C12.4543 40.7034 11.018 40.9891 9.67796 41.5442C8.3379 42.0993 7.1203 42.9128 6.09466 43.9385C5.06903 44.9641 4.25544 46.1817 3.70037 47.5218C3.1453 48.8618 2.85962 50.2981 2.85962 51.7486V168.263C2.85962 171.192 4.0233 174.001 6.09466 176.073C8.16603 178.144 10.9754 179.308 13.9048 179.308H89.2261C96.2834 179.308 103.272 177.918 109.792 175.217C116.312 172.516 122.236 168.558 127.226 163.568C132.217 158.577 136.175 152.653 138.876 146.133C141.577 139.613 142.967 132.625 142.967 125.567V51.7486C142.967 50.2981 142.681 48.8618 142.126 47.5218C141.571 46.1817 140.757 44.9641 139.732 43.9385C138.706 42.9128 137.488 42.0993 136.148 41.5442C134.808 40.9891 133.372 40.7034 131.922 40.7034H13.9048Z" fill="white"/>
<path d="M105.904 76.0635H39.6639C39.056 76.0635 38.4731 75.8221 38.0433 75.3923C37.6135 74.9625 37.3721 74.3795 37.3721 73.7717C37.3721 73.1639 37.6135 72.581 38.0433 72.1512C38.4731 71.7214 39.056 71.4799 39.6639 71.4799H105.904C106.512 71.4799 107.095 71.7214 107.525 72.1512C107.955 72.581 108.196 73.1639 108.196 73.7717C108.196 74.3795 107.955 74.9625 107.525 75.3923C107.095 75.8221 106.512 76.0635 105.904 76.0635Z" fill="#F2F2F2"/>
<path d="M105.904 124.935H39.6639C39.056 124.935 38.4731 124.694 38.0433 124.264C37.6135 123.834 37.3721 123.251 37.3721 122.644C37.3721 122.036 37.6135 121.453 38.0433 121.023C38.4731 120.593 39.056 120.352 39.6639 120.352H105.904C106.512 120.352 107.095 120.593 107.525 121.023C107.955 121.453 108.196 122.036 108.196 122.644C108.196 123.251 107.955 123.834 107.525 124.264C107.095 124.694 106.512 124.935 105.904 124.935Z" fill="#F2F2F2"/>
<path d="M132.803 100.515H12.7649C12.1571 100.515 11.5742 100.274 11.1444 99.8442C10.7146 99.4144 10.4731 98.8315 10.4731 98.2237C10.4731 97.6159 10.7146 97.0329 11.1444 96.6031C11.5742 96.1733 12.1571 95.9319 12.7649 95.9319H132.803C133.411 95.9319 133.994 96.1733 134.424 96.6031C134.853 97.0329 135.095 97.6159 135.095 98.2237C135.095 98.8315 134.853 99.4144 134.424 99.8442C133.994 100.274 133.411 100.515 132.803 100.515Z" fill="#F2F2F2"/>
<path d="M204.603 93.9418L192.645 119.418L238.645 114.759L229.043 90.3024L204.603 93.9418Z" fill="#A0616A"/>
<path d="M215.297 240.367L210.936 240.33L209.005 223.115L215.442 223.17L215.297 240.367Z" fill="#A0616A"/>
<path d="M201.327 247.302C201.323 247.819 201.524 248.317 201.887 248.685C202.249 249.054 202.743 249.264 203.26 249.269L211.931 249.341L213.449 246.264L214.007 249.357L217.279 249.387L216.453 238.356L215.314 238.28L210.671 237.96L209.173 237.86L209.147 240.981L202.181 245.706C201.92 245.883 201.706 246.121 201.557 246.399C201.408 246.677 201.329 246.987 201.327 247.302Z" fill="#2F2E41"/>
<path d="M167.031 240.387L162.873 239.07L166.085 222.048L172.222 223.991L167.031 240.387Z" fill="#A0616A"/>
<path d="M151.64 242.911C151.484 243.404 151.531 243.939 151.769 244.398C152.007 244.857 152.417 245.203 152.91 245.359L161.177 247.976L163.532 245.481L163.157 248.601L166.276 249.591L168.727 238.804L167.661 238.397L163.317 236.727L161.914 236.191L160.972 239.167L152.926 241.636C152.624 241.729 152.35 241.893 152.126 242.115C151.902 242.337 151.735 242.61 151.64 242.911Z" fill="#2F2E41"/>
<path d="M236.55 107.594L194.724 115.258C194.724 115.258 188.016 120.277 189.81 122.074C191.605 123.871 191.883 123.593 190.704 124.772C189.525 125.951 186.976 127.527 186.951 128.558C186.926 129.59 168.209 175.862 168.209 175.862C168.209 175.862 170.288 174.823 168.729 176.382C167.169 177.942 167.169 179.231 167.169 179.231L159.89 228.374L171.711 229.07L183.286 184.267L209.105 142.412C209.105 142.412 211.667 179.736 211.774 182.218C211.882 184.701 213.441 181.581 211.882 184.701C210.322 187.82 209.282 185.741 210.322 187.82C211.362 189.9 206.576 232.239 206.576 232.239H217.366L240.507 144.482C240.507 144.482 248.741 119.393 236.55 107.594Z" fill="#2F2E41"/>
<path d="M224.229 37.3998L207.475 35.659L203.134 41.2945L198.077 43.9878C195.937 45.1275 194.171 46.8596 192.989 48.9767C191.808 51.0939 191.261 53.5066 191.414 55.9262L197.324 90.3025C197.324 90.3025 192.332 101.543 195.764 104.34C199.196 107.138 193.111 114.066 200.444 110.579C207.776 107.092 239.437 111.099 239.437 111.099L232.678 91.8622L237.727 72.9594L238.283 57.1096C238.387 54.1479 237.508 51.235 235.783 48.8249C234.059 46.4149 231.585 44.6432 228.748 43.7859L228.042 43.5725L224.229 37.3998Z" fill="#4285F4"/>
<path d="M247.294 24.5556C247.404 29.278 245.639 33.8507 243.104 37.867C242.35 35.5223 240.996 33.3884 239.584 31.3541C240.296 35.7548 239.537 40.2674 237.426 44.1937C237.352 44.2469 237.275 44.2964 237.195 44.3418C235.129 45.5849 232.509 46.0884 230.273 45.1906C234.892 40.2115 235.48 31.962 231.607 26.3771C230.511 24.7924 229.093 23.3909 228.414 21.5875C227.342 18.71 228.372 15.5418 229.023 12.5417C229.631 9.74957 229.737 6.42688 227.864 4.38058C228.064 4.09462 228.336 3.86699 228.653 3.72102C228.97 3.57505 229.321 3.516 229.668 3.5499C230.823 3.71304 231.664 4.71693 232.199 5.75086C232.734 6.78477 233.088 7.93069 233.834 8.82374C235.216 10.4953 237.569 10.8904 239.552 11.7714C244.355 13.9106 247.179 19.3009 247.294 24.5556Z" fill="#2F2E41"/>
<path d="M123.558 249.381C123.558 249.463 123.574 249.543 123.605 249.618C123.636 249.694 123.681 249.762 123.739 249.819C123.796 249.877 123.865 249.922 123.94 249.953C124.015 249.984 124.096 250 124.177 250H255.866C256.03 250 256.187 249.935 256.303 249.819C256.419 249.703 256.485 249.545 256.485 249.381C256.485 249.217 256.419 249.06 256.303 248.944C256.187 248.828 256.03 248.763 255.866 248.763H124.177C124.096 248.762 124.015 248.778 123.94 248.809C123.865 248.84 123.796 248.886 123.739 248.943C123.681 249.001 123.636 249.069 123.605 249.144C123.574 249.219 123.558 249.3 123.558 249.381Z" fill="#CCCCCC"/>
<path d="M248.331 134.007C250.915 134.007 253.01 131.912 253.01 129.328C253.01 126.743 250.915 124.648 248.331 124.648C245.747 124.648 243.652 126.743 243.652 129.328C243.652 131.912 245.747 134.007 248.331 134.007Z" fill="#4285F4"/>
<path d="M206.867 21.8556C207.141 20.895 205.25 26.7669 206.162 26.8729C210.32 27.3498 216.027 29.8328 218.923 30.9912C219.053 30.9761 219.184 30.9609 219.31 30.942C219.621 30.9079 219.924 30.8587 220.223 30.8019C226.966 29.5262 229.559 19.1688 229.559 19.0742C229.559 18.6085 228.441 5.81998 226.681 5.63073C226.218 5.58056 225.754 5.55528 225.288 5.55501H220.92C220.016 5.36022 219.1 5.22742 218.178 5.15753H218.17C209.376 4.48748 202.441 9.84781 203.089 16.3703C203.093 16.3779 203.101 16.3855 203.105 16.393C203.293 16.6732 203.458 16.9382 203.603 17.1918C203.745 17.4303 203.864 17.6574 203.968 17.8732C204.769 19.5388 202.709 21.6347 204.075 22.026C205.892 22.5463 199.296 39.6477 206.488 39.6477C202.99 40.6424 206.11 24.5055 206.867 21.8556Z" fill="#2F2E41"/>
<path d="M214.717 31.89C220.43 31.89 225.06 27.2593 225.06 21.547C225.06 15.8348 220.43 11.2041 214.717 11.2041C209.005 11.2041 204.375 15.8348 204.375 21.547C204.375 27.2593 209.005 31.89 214.717 31.89Z" fill="#A0616A"/>
<path d="M203.089 16.9344C203.262 17.0252 203.431 17.1085 203.603 17.1918C203.784 17.2788 203.964 17.3659 204.144 17.4454C207.607 19.0164 210.426 19.1906 212.137 16.9344C212.183 15.7472 212.449 14.579 212.923 13.4895C212.84 14.707 213.16 15.9181 213.836 16.9344H217.28C220.828 19.289 222.65 19.535 220.187 27.2651C219.501 29.4191 216.771 41.9531 217.845 43.8118C218.156 43.7777 221.461 30.0491 221.76 29.9924C228.503 28.7167 232.787 17.6082 232.238 16.9798C232.241 15.1928 231.83 13.4294 231.038 11.8277C230.035 9.79833 228.473 8.09849 226.535 6.92916C225.38 6.36906 224.176 5.91666 222.937 5.57771C222.907 5.57013 222.88 5.56255 222.849 5.555C222.469 5.45278 222.082 5.35815 221.695 5.27865C220.894 5.10967 220.085 4.98707 219.271 4.91145C219.213 4.90766 219.156 4.90387 219.102 4.90387C218.777 4.90463 218.458 4.9922 218.178 5.15752C218.174 5.15752 218.174 5.16129 218.17 5.16129C217.97 5.27822 217.795 5.43395 217.656 5.61933C217.411 5.93125 217.279 6.31675 217.28 6.71336H213.445C213.303 6.71336 213.161 6.71714 213.019 6.72471C210.459 6.81218 208.024 7.85174 206.191 9.63994C204.357 11.4281 203.256 13.8363 203.105 16.393C203.093 16.5747 203.089 16.7527 203.089 16.9344Z" fill="#2F2E41"/>
<path d="M225.704 13.628C229.467 13.628 232.518 10.5773 232.518 6.814C232.518 3.05073 229.467 0 225.704 0C221.94 0 218.89 3.05073 218.89 6.814C218.89 10.5773 221.94 13.628 225.704 13.628Z" fill="#2F2E41"/>
<path d="M248.383 131.257C248.716 130.733 248.931 130.142 249.013 129.527C249.095 128.911 249.042 128.285 248.858 127.692C248.674 127.099 248.364 126.553 247.948 126.092C247.533 125.63 247.022 125.265 246.451 125.02L246.485 103.651L240.576 102.188L240.722 127.569C240.382 128.561 240.417 129.642 240.821 130.609C241.225 131.576 241.97 132.362 242.915 132.816C243.859 133.271 244.937 133.363 245.945 133.076C246.953 132.788 247.821 132.141 248.383 131.257Z" fill="#A0616A"/>
<path d="M219.125 52.7594L228.319 46.5109C228.748 46.2194 229.233 46.0208 229.744 45.9279C230.254 45.835 230.778 45.8497 231.282 45.9713C231.786 46.0929 232.259 46.3185 232.671 46.6337C233.083 46.949 233.424 47.3468 233.673 47.8018L249.481 76.6875L249.541 118.962L239.672 118.343L235.621 83.4419L219.125 52.7594Z" fill="#4285F4"/>
<path d="M148.511 148.632H50.2476C48.1103 148.632 46.0606 149.481 44.5493 150.992C43.038 152.504 42.189 154.553 42.189 156.691C42.189 158.828 43.038 160.878 44.5493 162.389C46.0606 163.9 48.1103 164.749 50.2476 164.749H148.511C150.649 164.749 152.699 163.9 154.21 162.389C155.721 160.878 156.57 158.828 156.57 156.691C156.57 154.553 155.721 152.504 154.21 150.992C152.699 149.481 150.649 148.632 148.511 148.632Z" fill="white"/>
<path d="M148.511 165.269H50.2475C47.9724 165.269 45.7904 164.365 44.1816 162.757C42.5728 161.148 41.6689 158.966 41.6689 156.691C41.6689 154.415 42.5728 152.233 44.1816 150.625C45.7904 149.016 47.9724 148.112 50.2475 148.112H148.511C150.787 148.112 152.969 149.016 154.577 150.625C156.186 152.233 157.09 154.415 157.09 156.691C157.09 158.966 156.186 161.148 154.577 162.757C152.969 164.365 150.787 165.269 148.511 165.269ZM50.2475 149.152C48.2481 149.152 46.3306 149.946 44.9168 151.36C43.503 152.774 42.7088 154.691 42.7088 156.691C42.7088 158.69 43.503 160.607 44.9168 162.021C46.3306 163.435 48.2481 164.229 50.2475 164.229H148.511C150.511 164.229 152.428 163.435 153.842 162.021C155.256 160.607 156.05 158.69 156.05 156.691C156.05 154.691 155.256 152.774 153.842 151.36C152.428 149.946 150.511 149.152 148.511 149.152H50.2475Z" fill="#4285F4"/>
<path d="M154.305 183.8H110.941C110.333 183.8 109.75 183.559 109.321 183.129C108.891 182.699 108.649 182.116 108.649 181.509C108.649 180.901 108.891 180.318 109.321 179.888C109.75 179.458 110.333 179.217 110.941 179.217H154.305C154.913 179.217 155.496 179.458 155.926 179.888C156.356 180.318 156.597 180.901 156.597 181.509C156.597 182.116 156.356 182.699 155.926 183.129C155.496 183.559 154.913 183.8 154.305 183.8Z" fill="#4285F4"/>
</g>
<defs>
<clipPath id="clip0_307_9873">
<rect width="256.558" height="250" fill="white"/>
</clipPath>
</defs>
</svg>
