<svg width="11" height="11" viewBox="0 0 11 11" fill="none" xmlns="http://www.w3.org/2000/svg">
<rect x="0.5" y="0.5" width="10.0071" height="10" rx="5" fill="white"/>
<rect x="0.5" y="0.5" width="10.0071" height="10" rx="5" stroke="#54577A"/>
<path d="M7.36135 7.97995C7.19673 7.97995 7.0321 7.91929 6.90213 7.78933L3.2197 4.1069C2.96843 3.85562 2.96843 3.43973 3.2197 3.18845C3.47098 2.93718 3.88687 2.93718 4.13815 3.18845L7.82058 6.87088C8.07185 7.12216 8.07185 7.53805 7.82058 7.78933C7.69061 7.91063 7.52598 7.97995 7.36135 7.97995Z" fill="#54577A"/>
<path d="M3.64768 7.99997C3.48305 7.99997 3.31842 7.93931 3.18845 7.80935C2.93718 7.55807 2.93718 7.14218 3.18845 6.8909L6.87088 3.20847C7.12216 2.9572 7.53805 2.9572 7.78933 3.20847C8.0406 3.45975 8.0406 3.87564 7.78933 4.12692L4.1069 7.80935C3.98559 7.93931 3.8123 7.99997 3.64768 7.99997Z" fill="#54577A"/>
</svg>
