<svg width="20" height="20" viewBox="0 0 20 20" fill="none" xmlns="http://www.w3.org/2000/svg">
<path d="M9.9974 10.8333C10.4576 10.8333 10.8307 10.4602 10.8307 10C10.8307 9.53977 10.4576 9.16668 9.9974 9.16668C9.53716 9.16668 9.16406 9.53977 9.16406 10C9.16406 10.4602 9.53716 10.8333 9.9974 10.8333Z" stroke="#98A2B3" stroke-width="1.66667" stroke-linecap="round" stroke-linejoin="round"/>
<path d="M9.9974 5.00001C10.4576 5.00001 10.8307 4.62691 10.8307 4.16668C10.8307 3.70644 10.4576 3.33334 9.9974 3.33334C9.53716 3.33334 9.16406 3.70644 9.16406 4.16668C9.16406 4.62691 9.53716 5.00001 9.9974 5.00001Z" stroke="#98A2B3" stroke-width="1.66667" stroke-linecap="round" stroke-linejoin="round"/>
<path d="M9.9974 16.6667C10.4576 16.6667 10.8307 16.2936 10.8307 15.8333C10.8307 15.3731 10.4576 15 9.9974 15C9.53716 15 9.16406 15.3731 9.16406 15.8333C9.16406 16.2936 9.53716 16.6667 9.9974 16.6667Z" stroke="#98A2B3" stroke-width="1.66667" stroke-linecap="round" stroke-linejoin="round"/>
</svg>
