<svg width="28" height="28" viewBox="0 0 28 28" fill="none" xmlns="http://www.w3.org/2000/svg">
<path d="M17.6953 4V5.20312C16.9529 5.3842 16.295 5.69515 15.8203 6.18555L14.8652 5.63477L13.8652 7.36523L14.873 7.94727C14.7855 8.29512 14.6953 8.64453 14.6953 9C14.6953 9.35547 14.7855 9.70488 14.873 10.0527L13.8652 10.6348L14.8652 12.3652L15.8203 11.8145C16.295 12.3048 16.9529 12.6158 17.6953 12.7969V14H19.6953V12.7969C20.4377 12.6158 21.0956 12.3048 21.5703 11.8145L22.5254 12.3652L23.5254 10.6348L22.5176 10.0527C22.6051 9.70488 22.6953 9.35547 22.6953 9C22.6953 8.64453 22.6051 8.29512 22.5176 7.94727L23.5254 7.36523L22.5254 5.63477L21.5703 6.18555C21.0956 5.69515 20.4377 5.3842 19.6953 5.20312V4H17.6953ZM18.6953 7C19.4453 7 19.8805 7.24524 20.1973 7.60156C20.514 7.95788 20.6953 8.47222 20.6953 9C20.6953 9.52778 20.514 10.0421 20.1973 10.3984C19.8805 10.7548 19.4453 11 18.6953 11C17.9453 11 17.5101 10.7548 17.1934 10.3984C16.8766 10.0421 16.6953 9.52778 16.6953 9C16.6953 8.47222 16.8766 7.95788 17.1934 7.60156C17.5101 7.24524 17.9453 7 18.6953 7ZM8.69531 12V13.2012C7.58465 13.4134 6.59943 13.8523 5.94727 14.5859C5.92811 14.6075 5.923 14.6364 5.9043 14.6582L5 14.1348L4 15.8652L4.96289 16.4219C4.80556 16.9365 4.69531 17.4662 4.69531 18C4.69531 18.5338 4.80556 19.0635 4.96289 19.5781L4 20.1348L5 21.8652L5.9043 21.3418C5.923 21.3636 5.92811 21.3925 5.94727 21.4141C6.59943 22.1477 7.58465 22.5866 8.69531 22.7988V24H10.6953V22.7988C11.806 22.5866 12.7912 22.1477 13.4434 21.4141C13.4625 21.3925 13.4676 21.3636 13.4863 21.3418L14.3906 21.8652L15.3906 20.1348L14.4277 19.5781C14.5851 19.0635 14.6953 18.5338 14.6953 18C14.6953 17.4662 14.5851 16.9365 14.4277 16.4219L15.3906 15.8652L14.3906 14.1348L13.4863 14.6582C13.4676 14.6364 13.4625 14.6075 13.4434 14.5859C12.7912 13.8523 11.806 13.4134 10.6953 13.2012V12H8.69531ZM9.69531 15C10.7786 15 11.4639 15.3702 11.9473 15.9141C12.4307 16.4579 12.6953 17.2222 12.6953 18C12.6953 18.7778 12.4307 19.5421 11.9473 20.0859C11.4639 20.6298 10.7786 21 9.69531 21C8.61198 21 7.92675 20.6298 7.44336 20.0859C6.95997 19.5421 6.69531 18.7778 6.69531 18C6.69531 17.2222 6.95997 16.4579 7.44336 15.9141C7.92675 15.3702 8.61198 15 9.69531 15ZM9.69531 17C9.4301 17 9.17574 17.1054 8.98821 17.2929C8.80067 17.4804 8.69531 17.7348 8.69531 18C8.69531 18.2652 8.80067 18.5196 8.98821 18.7071C9.17574 18.8946 9.4301 19 9.69531 19C9.96053 19 10.2149 18.8946 10.4024 18.7071C10.59 18.5196 10.6953 18.2652 10.6953 18C10.6953 17.7348 10.59 17.4804 10.4024 17.2929C10.2149 17.1054 9.96053 17 9.69531 17Z" fill="#E0E3E8"/>
</svg>
