<svg width="470" height="250" viewBox="0 0 470 250" fill="none" xmlns="http://www.w3.org/2000/svg">
<g clip-path="url(#clip0_307_9677)">
<path d="M269.142 246.938L262.486 244.139L257.921 210.809H197.121L192.172 244.002L186.217 246.976C185.933 247.119 185.704 247.353 185.569 247.641C185.434 247.929 185.4 248.255 185.474 248.564C185.547 248.874 185.723 249.15 185.972 249.347C186.222 249.545 186.531 249.652 186.85 249.652H268.593C268.92 249.652 269.236 249.54 269.489 249.333C269.741 249.126 269.915 248.839 269.979 248.519C270.044 248.2 269.996 247.868 269.843 247.579C269.691 247.291 269.443 247.065 269.142 246.938Z" fill="#E6E6E6"/>
<path d="M377.188 215.243H78.5211C76.9541 215.24 75.4524 214.615 74.3456 213.507C73.2388 212.399 72.6172 210.898 72.6172 209.332V167.26H383.091V209.332C383.091 210.898 382.47 212.399 381.363 213.507C380.256 214.615 378.755 215.24 377.188 215.243Z" fill="#CCCCCC"/>
<path d="M383.404 187.144H72.3446V7.12558C72.3468 5.23639 73.099 3.4252 74.4363 2.08936C75.7736 0.753516 77.5867 0.00211753 79.4778 0H376.27C378.162 0.00211629 379.975 0.753511 381.312 2.08935C382.649 3.42519 383.401 5.23638 383.404 7.12558V187.144Z" fill="#3F3D56"/>
<path d="M364.825 174.078H90.923C89.465 174.077 88.0672 173.498 87.0363 172.468C86.0053 171.438 85.4254 170.042 85.4238 168.585V18.5591C85.4254 17.1026 86.0053 15.7063 87.0362 14.6763C88.0672 13.6464 89.465 13.0671 90.923 13.0654H364.825C366.283 13.0671 367.681 13.6464 368.712 14.6763C369.743 15.7063 370.323 17.1026 370.325 18.5591V168.585C370.323 170.042 369.743 171.438 368.712 172.468C367.681 173.498 366.283 174.077 364.825 174.078Z" fill="white"/>
<path d="M468.886 250H0.72431C0.56665 250.003 0.41231 249.954 0.285339 249.861C0.158368 249.768 0.0658958 249.635 0.022332 249.483C-0.00486535 249.38 -0.00803095 249.272 0.0130759 249.168C0.0341827 249.064 0.0789977 248.965 0.144078 248.881C0.209159 248.796 0.292767 248.728 0.388468 248.681C0.48417 248.634 0.589415 248.609 0.696103 248.609H468.829C468.995 248.603 469.158 248.654 469.292 248.753C469.426 248.851 469.522 248.993 469.566 249.153C469.588 249.255 469.588 249.36 469.564 249.462C469.54 249.563 469.494 249.658 469.429 249.739C469.364 249.821 469.281 249.886 469.187 249.931C469.093 249.976 468.99 250 468.886 250Z" fill="#CCCCCC"/>
<path d="M145.216 69.8032H100.151V74.0311H145.216V69.8032Z" fill="#E5E5E5"/>
<path d="M145.216 80.0562H100.151V84.284H145.216V80.0562Z" fill="#E5E5E5"/>
<path d="M145.216 90.5356H100.151V94.7635H145.216V90.5356Z" fill="#E5E5E5"/>
<path d="M145.216 101.015H100.151V105.243H145.216V101.015Z" fill="#E5E5E5"/>
<path d="M134.542 114.331H110.825V118H134.542V114.331Z" fill="#4285F4"/>
<path d="M215.341 96.025H214.91V97.3164H215.341V96.025Z" fill="#E5E5E5"/>
<path d="M215.341 124.832H214.91V122.08H215.341V124.832ZM215.341 119.329H214.91V116.577H215.341V119.329ZM215.341 113.826H214.91V111.074H215.341V113.826ZM215.341 108.323H214.91V105.571H215.341V108.323ZM215.341 102.819H214.91V100.068H215.341V102.819Z" fill="#E5E5E5"/>
<path d="M215.341 127.584H214.91V128.875H215.341V127.584Z" fill="#E5E5E5"/>
<path d="M262.526 96.025H262.095V97.3164H262.526V96.025Z" fill="#E5E5E5"/>
<path d="M262.526 124.832H262.095V122.08H262.526V124.832ZM262.526 119.329H262.095V116.577H262.526V119.329ZM262.526 113.826H262.095V111.074H262.526V113.826ZM262.526 108.323H262.095V105.571H262.526V108.323ZM262.526 102.819H262.095V100.068H262.526V102.819Z" fill="#E5E5E5"/>
<path d="M262.526 127.584H262.095V128.875H262.526V127.584Z" fill="#E5E5E5"/>
<path d="M286.328 70.7616H285.897V72.053H286.328V70.7616Z" fill="#E5E5E5"/>
<path d="M286.328 124.939H285.897V122.295H286.328V124.939ZM286.328 119.651H285.897V117.006H286.328V119.651ZM286.328 114.362H285.897V111.718H286.328V114.362ZM286.328 109.073H285.897V106.429H286.328V109.073ZM286.328 103.785H285.897V101.14H286.328V103.785ZM286.328 98.496H285.897V95.8518H286.328V98.496ZM286.328 93.2075H285.897V90.5632H286.328V93.2075ZM286.328 87.9189H285.897V85.2746H286.328V87.9189ZM286.328 82.6302H285.897V79.9859H286.328V82.6302ZM286.328 77.3416H285.897V74.6973H286.328V77.3416Z" fill="#E5E5E5"/>
<path d="M286.328 127.584H285.897V128.875H286.328V127.584Z" fill="#E5E5E5"/>
<path d="M309.892 60.4303H309.461V61.7217H309.892V60.4303Z" fill="#E5E5E5"/>
<path d="M309.892 124.949H309.461V122.315H309.892V124.949ZM309.892 119.68H309.461V117.046H309.892V119.68ZM309.892 114.411H309.461V111.777H309.892V114.411ZM309.892 109.142H309.461V106.508H309.892V109.142ZM309.892 103.873H309.461V101.239H309.892V103.873ZM309.892 98.6044H309.461V95.9699H309.892V98.6044ZM309.892 93.3355H309.461V90.701H309.892V93.3355ZM309.892 88.0665H309.461V85.432H309.892V88.0665ZM309.892 82.7976H309.461V80.1631H309.892V82.7976ZM309.892 77.5287H309.461V74.8941H309.892V77.5287ZM309.892 72.2597H309.461V69.6252H309.892V72.2597ZM309.892 66.9908H309.461V64.3563H309.892V66.9908Z" fill="#E5E5E5"/>
<path d="M309.892 127.584H309.461V128.875H309.892V127.584Z" fill="#E5E5E5"/>
<path d="M239.041 78.7253H238.61V80.0167H239.041V78.7253Z" fill="#E5E5E5"/>
<path d="M239.041 125.08H238.61V122.577H239.041V125.08ZM239.041 120.073H238.61V117.57H239.041V120.073ZM239.041 115.066H238.61V112.563H239.041V115.066ZM239.041 110.059H238.61V107.556H239.041V110.059ZM239.041 105.052H238.61V102.548H239.041V105.052ZM239.041 100.045H238.61V97.5414H239.041V100.045ZM239.041 95.0378H238.61V92.5343H239.041V95.0378ZM239.041 90.0308H238.61V87.5273H239.041V90.0308ZM239.041 85.0237H238.61V82.5203H239.041V85.0237Z" fill="#E5E5E5"/>
<path d="M239.041 127.584H238.61V128.875H239.041V127.584Z" fill="#E5E5E5"/>
<path d="M333.792 129.475H191.133C191.015 129.475 190.901 129.428 190.817 129.344C190.734 129.26 190.687 129.147 190.687 129.029V60.7228C190.687 60.6046 190.734 60.4911 190.817 60.4075C190.901 60.3238 191.015 60.2769 191.133 60.2769C191.251 60.2769 191.365 60.3238 191.449 60.4075C191.532 60.4911 191.58 60.6046 191.58 60.7228V128.583H333.792C333.91 128.583 334.024 128.63 334.108 128.713C334.191 128.797 334.238 128.91 334.238 129.029C334.238 129.147 334.191 129.26 334.108 129.344C334.024 129.428 333.91 129.475 333.792 129.475Z" fill="#3F3D56"/>
<path d="M262.506 96.6243L238.788 78.8771L215.393 96.3819L214.857 95.6679L238.788 77.7627L262.393 95.4255L285.851 69.7815L285.945 69.7432L309.607 60.2192L309.941 61.0471L286.373 70.5328L262.506 96.6243Z" fill="#3F3D56"/>
<path d="M215.125 98.7009C216.605 98.7009 217.804 97.5028 217.804 96.0249C217.804 94.547 216.605 93.3489 215.125 93.3489C213.646 93.3489 212.447 94.547 212.447 96.0249C212.447 97.5028 213.646 98.7009 215.125 98.7009Z" fill="#4285F4"/>
<path d="M238.788 81.307C240.267 81.307 241.466 80.109 241.466 78.6311C241.466 77.1532 240.267 75.9551 238.788 75.9551C237.308 75.9551 236.109 77.1532 236.109 78.6311C236.109 80.109 237.308 81.307 238.788 81.307Z" fill="#4285F4"/>
<path d="M262.45 98.7009C263.929 98.7009 265.129 97.5028 265.129 96.0249C265.129 94.547 263.929 93.3489 262.45 93.3489C260.97 93.3489 259.771 94.547 259.771 96.0249C259.771 97.5028 260.97 98.7009 262.45 98.7009Z" fill="#4285F4"/>
<path d="M286.112 72.8331C287.592 72.8331 288.791 71.6351 288.791 70.1572C288.791 68.6793 287.592 67.4812 286.112 67.4812C284.633 67.4812 283.433 68.6793 283.433 70.1572C283.433 71.6351 284.633 72.8331 286.112 72.8331Z" fill="#4285F4"/>
<path d="M309.774 63.0213C311.254 63.0213 312.453 61.8232 312.453 60.3453C312.453 58.8674 311.254 57.6693 309.774 57.6693C308.295 57.6693 307.096 58.8674 307.096 60.3453C307.096 61.8232 308.295 63.0213 309.774 63.0213Z" fill="#4285F4"/>
<path d="M159.301 13.0654H158.389V174.078H159.301V13.0654Z" fill="#E5E5E5"/>
<path d="M374.351 172.431C374.666 172.056 374.895 171.617 375.022 171.144C375.149 170.672 375.17 170.177 375.085 169.695C375 169.213 374.81 168.756 374.529 168.356C374.247 167.955 373.882 167.621 373.457 167.377L375.684 155.693L369.973 158.071L368.734 168.801C368.371 169.541 368.292 170.388 368.512 171.182C368.732 171.976 369.237 172.661 369.929 173.109C370.621 173.556 371.454 173.734 372.269 173.609C373.084 173.484 373.825 173.065 374.351 172.431Z" fill="#FFB7B7"/>
<path d="M402.826 244.123H397.991L395.69 225.491L402.827 225.491L402.826 244.123Z" fill="#FFB7B7"/>
<path d="M404.059 248.806L388.467 248.805V248.608C388.467 247.001 389.107 245.459 390.245 244.322C391.383 243.185 392.927 242.546 394.536 242.546L404.059 242.546L404.059 248.806Z" fill="#2F2E41"/>
<path d="M376.4 244.123H371.564L369.264 225.491L376.401 225.491L376.4 244.123Z" fill="#FFB7B7"/>
<path d="M376.449 248.806L360.858 248.805V248.608C360.858 247.001 361.497 245.459 362.635 244.322C363.773 243.185 365.317 242.546 366.926 242.546L376.45 242.546L376.449 248.806Z" fill="#2F2E41"/>
<path d="M376.003 165.43L371.27 176.323L367.366 238.932L377.227 238.538L379.92 208.692L388.227 182.109L393.003 211.745L394.976 237.75L403.135 238.103L406.386 165.43H376.003Z" fill="#2F2E41"/>
<path d="M399.663 111.68L385.944 112.023L377.891 116.153L377.449 146.625L372.426 167.664C372.426 167.664 403.81 169.822 408.149 166.67L403.021 142.635L409.898 116.66L399.663 111.68Z" fill="#4285F4"/>
<path d="M379.356 116.63L377.891 116.153C377.891 116.153 373.242 119.133 373.685 126.338C373.685 126.338 373.51 130.066 373.677 132.548C373.868 135.394 368.155 163.675 368.155 163.675H376.438L379.988 138.064L379.356 116.63Z" fill="#4285F4"/>
<path d="M409.684 172.825C409.368 172.45 409.14 172.011 409.013 171.538C408.886 171.066 408.864 170.571 408.95 170.089C409.035 169.607 409.225 169.15 409.506 168.75C409.788 168.349 410.153 168.015 410.578 167.771L408.351 156.088L414.062 158.465L415.301 169.195C415.664 169.935 415.743 170.782 415.523 171.576C415.302 172.37 414.798 173.055 414.106 173.503C413.414 173.95 412.581 174.128 411.766 174.003C410.951 173.878 410.21 173.459 409.684 172.825Z" fill="#FFB7B7"/>
<path d="M407.834 117.024L409.3 116.547C409.3 116.547 413.948 119.527 413.506 126.732C413.506 126.732 413.68 130.46 413.514 132.942C413.323 135.788 415.88 164.069 415.88 164.069H407.597L404.047 138.458L407.834 117.024Z" fill="#4285F4"/>
<path d="M403.03 98.8958C403.03 100.775 402.472 102.611 401.427 104.174C400.382 105.736 398.897 106.953 397.16 107.672C395.422 108.391 393.51 108.58 391.665 108.213C389.821 107.846 388.126 106.942 386.796 105.613C385.466 104.285 384.561 102.592 384.194 100.749C383.827 98.9063 384.015 96.9963 384.735 95.2604C385.455 93.5246 386.673 92.0409 388.237 90.9971C389.801 89.9532 391.64 89.3961 393.52 89.3961C394.766 89.393 396 89.635 397.152 90.1084C398.304 90.5817 399.352 91.2771 400.235 92.1548C401.118 93.0326 401.819 94.0754 402.299 95.2239C402.778 96.3724 403.027 97.604 403.03 98.8485C403.03 98.8642 403.03 98.88 403.03 98.8958Z" fill="#FFB7B7"/>
<path d="M384.042 86.1359C385.156 83.7429 387.312 84.2161 389.198 85.0272C391.585 84.4982 393.856 82.9143 396.428 83.851C398.962 87.5327 407.47 86.4495 405.66 92.4433C405.658 93.8796 408.365 93.0436 407.893 95.3959C409.327 99.9228 402.715 108.496 398.919 106.691C399.858 104.972 402.003 101.068 398.75 100.681C391.753 107.184 398.028 88.297 389.237 93.7898C386.326 96.4509 382.341 88.7977 384.042 86.1359Z" fill="#2F2E41"/>
</g>
<defs>
<clipPath id="clip0_307_9677">
<rect width="469.582" height="250" fill="white"/>
</clipPath>
</defs>
</svg>
