<svg width="28" height="28" viewBox="0 0 28 28" fill="none" xmlns="http://www.w3.org/2000/svg">
<circle cx="14" cy="14" r="14" fill="#FBA63C"/>
<path d="M13.4915 19V10.8182H13.8324V19H13.4915ZM13.6619 9.3267C13.5696 9.3267 13.4897 9.29297 13.4222 9.2255C13.3548 9.15803 13.321 9.07812 13.321 8.98579C13.321 8.89347 13.3548 8.81357 13.4222 8.74609C13.4897 8.67862 13.5696 8.64489 13.6619 8.64489C13.7543 8.64489 13.8342 8.67862 13.9016 8.74609C13.9691 8.81357 14.0028 8.89347 14.0028 8.98579C14.0028 9.07812 13.9691 9.15803 13.9016 9.2255C13.8342 9.29297 13.7543 9.3267 13.6619 9.3267Z" fill="white"/>
</svg>
