<svg width="28" height="28" viewBox="0 0 28 28" fill="none" xmlns="http://www.w3.org/2000/svg">
<circle cx="14" cy="14" r="14" fill="#F85640"/>
<path d="M14.1307 8.09091V15.7614H13.7898V8.09091H14.1307ZM13.9602 19.0639C13.8537 19.0639 13.7631 19.0266 13.6886 18.9521C13.614 18.8775 13.5767 18.7869 13.5767 18.6804C13.5767 18.5739 13.614 18.4833 13.6886 18.4087C13.7631 18.3342 13.8537 18.2969 13.9602 18.2969C14.0668 18.2969 14.1573 18.3342 14.2319 18.4087C14.3065 18.4833 14.3438 18.5739 14.3438 18.6804C14.3438 18.7514 14.326 18.8171 14.2905 18.8775C14.2585 18.9343 14.2124 18.9787 14.152 19.0107C14.0952 19.0462 14.0313 19.0639 13.9602 19.0639Z" fill="white"/>
</svg>
