<svg width="402" height="251" viewBox="0 0 402 251" fill="none" xmlns="http://www.w3.org/2000/svg">
<g clip-path="url(#clip0_2227_58602)">
<path d="M105.43 152.861C147.503 152.861 181.611 118.753 181.611 76.6803C181.611 34.6071 147.503 0.5 105.43 0.5C63.3571 0.5 29.25 34.6071 29.25 76.6803C29.25 118.753 63.3571 152.861 105.43 152.861Z" fill="#DFEAFD"/>
<path d="M0.78125 18.791C0.78125 46.5084 18.1697 68.937 39.6585 68.937L0.78125 18.791Z" fill="#4285F4"/>
<path d="M39.6562 68.9375C39.6562 40.9086 59.0608 18.228 83.041 18.228L39.6562 68.9375Z" fill="#4285F4"/>
<path d="M14.8672 21.3037C14.8672 47.6323 25.9555 68.9371 39.6585 68.9371L14.8672 21.3037Z" fill="#F7C108"/>
<path d="M39.6562 68.9375C39.6562 33.1228 62.0848 4.14209 89.8022 4.14209L39.6562 68.9375Z" fill="#F7C108"/>
<path d="M31.4766 69.2907C31.4766 69.2907 36.99 69.1209 38.6516 67.9377C40.3132 66.7545 47.1326 65.3417 47.5449 67.2393C47.9571 69.1369 55.8305 76.6771 49.6059 76.7273C43.3812 76.7775 35.1426 75.7577 33.4842 74.7475C31.8258 73.7373 31.4766 69.2907 31.4766 69.2907Z" fill="#A8A8A8"/>
<path opacity="0.2" d="M49.717 76.0669C43.4923 76.1171 35.2537 75.0974 33.5953 74.0871C32.3323 73.3178 31.829 70.5573 31.6606 69.2837C31.544 69.2887 31.4766 69.2909 31.4766 69.2909C31.4766 69.2909 31.8258 73.7375 33.4842 74.7477C35.1426 75.7579 43.3812 76.7777 49.6059 76.7275C51.4027 76.713 52.0233 76.0737 51.9893 75.1269C51.7396 75.6989 51.0543 76.0561 49.717 76.0669Z" fill="black"/>
<path d="M71.811 161.423C108.748 161.423 138.692 157.349 138.692 152.324C138.692 147.299 108.748 143.226 71.811 143.226C34.8735 143.226 4.92969 147.299 4.92969 152.324C4.92969 157.349 34.8735 161.423 71.811 161.423Z" fill="#1C3177"/>
<path opacity="0.1" d="M71.8157 159.963C102.827 159.963 127.967 156.543 127.967 152.324C127.967 148.105 102.827 144.685 71.8157 144.685C40.804 144.685 15.6641 148.105 15.6641 152.324C15.6641 156.543 40.804 159.963 71.8157 159.963Z" fill="black"/>
<path d="M299.997 250.5C355.897 250.5 401.213 244.335 401.213 236.73C401.213 229.125 355.897 222.96 299.997 222.96C244.097 222.96 198.781 229.125 198.781 236.73C198.781 244.335 244.097 250.5 299.997 250.5Z" fill="#DFEAFD"/>
<path d="M111.871 239.637C145.451 239.637 172.673 235.934 172.673 231.365C172.673 226.797 145.451 223.094 111.871 223.094C78.2919 223.094 51.0703 226.797 51.0703 231.365C51.0703 235.934 78.2919 239.637 111.871 239.637Z" fill="#DFEAFD"/>
<path d="M166.234 224.391C198.423 232.618 260.297 213.662 267.093 192.203" stroke="#1C3177" stroke-width="2" stroke-miterlimit="10"/>
<path d="M111.516 93.1321C111.516 93.1321 158.011 80.2566 160.872 121.744C163.733 163.232 122.603 175.035 154.792 183.261" stroke="#1C3177" stroke-width="2" stroke-miterlimit="10"/>
<path d="M66.5938 192.661C66.5938 192.661 80.5681 188.792 81.4281 201.261C82.288 213.73 69.9261 217.278 79.6007 219.75" stroke="#4285F4" stroke-width="2" stroke-miterlimit="10"/>
<path d="M279.286 201.945L276.468 219.933C276.468 219.933 262.598 227.302 272.35 227.519C282.103 227.735 328.049 227.519 328.049 227.519C328.049 227.519 336.935 227.519 322.847 219.716L320.03 200.861L279.286 201.945Z" fill="#4285F4"/>
<path opacity="0.1" d="M270.393 227.323C272.608 225.353 276.473 223.299 276.473 223.299L279.29 205.311L320.035 205.349L322.852 223.082C326.137 224.902 328.172 226.297 329.363 227.366C331.172 226.954 333.149 225.42 322.852 219.716L320.035 200.861L279.29 201.945L276.473 219.933C276.473 219.933 264.818 226.126 270.393 227.323Z" fill="black"/>
<path d="M384.769 76.5688H214.11C210.546 76.5688 207.656 79.4585 207.656 83.023V197.983C207.656 201.548 210.546 204.437 214.11 204.437H384.769C388.334 204.437 391.223 201.548 391.223 197.983V83.023C391.223 79.4585 388.334 76.5688 384.769 76.5688Z" fill="#4285F4"/>
<path d="M385.049 83.3955H213.836V179.188H385.049V83.3955Z" fill="#1C3177"/>
<path d="M299.443 81.4451C300.041 81.4451 300.527 80.9599 300.527 80.3615C300.527 79.763 300.041 79.2778 299.443 79.2778C298.845 79.2778 298.359 79.763 298.359 80.3615C298.359 80.9599 298.845 81.4451 299.443 81.4451Z" fill="#F2F2F2"/>
<path d="M391.223 186.774V197.983C391.223 198.831 391.056 199.67 390.732 200.453C390.408 201.236 389.932 201.948 389.333 202.547C388.734 203.146 388.022 203.622 387.239 203.946C386.456 204.27 385.617 204.437 384.769 204.437H214.11C213.263 204.437 212.423 204.27 211.64 203.946C210.857 203.622 210.146 203.146 209.546 202.547C208.947 201.948 208.472 201.236 208.147 200.453C207.823 199.67 207.656 198.831 207.656 197.983V186.774H391.223Z" fill="#4285F4"/>
<path d="M347.341 239.222V241.389H230.742V239.655L230.903 239.222L233.777 231.419H344.957L347.341 239.222Z" fill="#4285F4"/>
<path d="M392.211 237.1C391.998 238.008 391.197 238.966 389.385 239.872C382.883 243.123 369.663 239.005 369.663 239.005C369.663 239.005 359.477 237.271 359.477 232.72C359.763 232.524 360.061 232.347 360.369 232.189C363.103 230.743 372.166 227.174 388.237 232.34C389.421 232.712 390.478 233.405 391.292 234.342C391.943 235.104 392.454 236.071 392.211 237.1Z" fill="#4285F4"/>
<path opacity="0.1" d="M392.209 237.1C384.25 240.149 377.157 240.377 369.877 235.321C366.206 232.772 362.87 232.141 360.367 232.189C363.101 230.743 372.164 227.174 388.235 232.34C389.419 232.712 390.476 233.405 391.289 234.342C391.941 235.104 392.451 236.071 392.209 237.1Z" fill="black"/>
<path d="M382.232 235.321C383.788 235.321 385.049 234.933 385.049 234.454C385.049 233.975 383.788 233.587 382.232 233.587C380.675 233.587 379.414 233.975 379.414 234.454C379.414 234.933 380.675 235.321 382.232 235.321Z" fill="#F2F2F2"/>
<path d="M299.446 199.778C301.72 199.778 303.564 197.934 303.564 195.66C303.564 193.386 301.72 191.542 299.446 191.542C297.172 191.542 295.328 193.386 295.328 195.66C295.328 197.934 297.172 199.778 299.446 199.778Z" fill="#F2F2F2"/>
<path opacity="0.1" d="M347.341 239.222V241.389H230.742V239.655L230.903 239.222H347.341Z" fill="black"/>
<path d="M114.017 57.3672H39.625V143.919H114.017V57.3672Z" fill="#4285F4"/>
<path d="M121.531 48.7832H32.1172V79.5414H121.531V48.7832Z" fill="#1C3177"/>
<path d="M121.531 85.2642H32.1172V116.022H121.531V85.2642Z" fill="#1C3177"/>
<path d="M121.531 121.745H32.1172V152.503H121.531V121.745Z" fill="#1C3177"/>
<path opacity="0.4" d="M103.644 54.1479H97.9219V59.8704H103.644V54.1479Z" fill="#4285F4"/>
<path opacity="0.8" d="M111.871 54.1479H106.148V59.8704H111.871V54.1479Z" fill="#4285F4"/>
<path d="M120.097 54.1479H114.375V59.8704H120.097V54.1479Z" fill="#F7C108"/>
<path opacity="0.4" d="M103.644 90.271H97.9219V95.9935H103.644V90.271Z" fill="#4285F4"/>
<path opacity="0.8" d="M111.871 90.271H106.148V95.9935H111.871V90.271Z" fill="#4285F4"/>
<path d="M120.097 90.271H114.375V95.9935H120.097V90.271Z" fill="#F7C108"/>
<path opacity="0.4" d="M103.644 126.394H97.9219V132.117H103.644V126.394Z" fill="#4285F4"/>
<path opacity="0.8" d="M111.871 126.394H106.148V132.117H111.871V126.394Z" fill="#4285F4"/>
<path d="M120.097 126.394H114.375V132.117H120.097V126.394Z" fill="#F7C108"/>
<path d="M114.02 221.172C129.625 221.172 142.275 208.522 142.275 192.918C142.275 177.313 129.625 164.663 114.02 164.663C98.4157 164.663 85.7656 177.313 85.7656 192.918C85.7656 208.522 98.4157 221.172 114.02 221.172Z" fill="#4285F4"/>
<path d="M109.724 215.092H101.141V230.471H109.724V215.092Z" fill="#4285F4"/>
<path d="M126.896 215.092H118.312V230.471H126.896V215.092Z" fill="#4285F4"/>
<path d="M108.294 233.333C112.244 233.333 115.447 232.132 115.447 230.65C115.447 229.169 112.244 227.968 108.294 227.968C104.343 227.968 101.141 229.169 101.141 230.65C101.141 232.132 104.343 233.333 108.294 233.333Z" fill="#4285F4"/>
<path d="M125.466 232.975C129.416 232.975 132.619 231.774 132.619 230.293C132.619 228.811 129.416 227.61 125.466 227.61C121.515 227.61 118.312 228.811 118.312 230.293C118.312 231.774 121.515 232.975 125.466 232.975Z" fill="#4285F4"/>
<path d="M114.735 195.421C120.068 195.421 124.391 191.098 124.391 185.765C124.391 180.431 120.068 176.108 114.735 176.108C109.402 176.108 105.078 180.431 105.078 185.765C105.078 191.098 109.402 195.421 114.735 195.421Z" fill="white"/>
<path d="M114.735 188.984C116.512 188.984 117.953 187.543 117.953 185.765C117.953 183.987 116.512 182.546 114.735 182.546C112.957 182.546 111.516 183.987 111.516 185.765C111.516 187.543 112.957 188.984 114.735 188.984Z" fill="#1C3177"/>
<path d="M140.517 187.282C147.69 184.212 152.723 179.898 151.76 177.646C150.796 175.394 144.2 176.058 137.027 179.128C129.854 182.198 124.82 186.512 125.784 188.764C126.748 191.016 133.344 190.352 140.517 187.282Z" fill="#4285F4"/>
<path d="M87.5873 206.238C94.7602 203.168 99.7937 198.854 98.8299 196.602C97.8661 194.35 91.27 195.014 84.0971 198.084C76.9242 201.154 71.8907 205.468 72.8545 207.72C73.8182 209.972 80.4143 209.308 87.5873 206.238Z" fill="#4285F4"/>
<path d="M130.471 201.144C130.471 203.909 123.35 209.37 115.449 209.37C107.548 209.37 100.07 204.267 100.07 201.501C100.07 198.736 107.548 199.356 115.449 199.356C123.35 199.356 130.471 198.378 130.471 201.144Z" fill="white"/>
</g>
<defs>
<clipPath id="clip0_2227_58602">
<rect width="400.432" height="250" fill="white" transform="translate(0.78125 0.5)"/>
</clipPath>
</defs>
</svg>
