<svg width="40" height="40" viewBox="0 0 40 40" fill="none" xmlns="http://www.w3.org/2000/svg">
<path d="M25.543 5.00009V6.80478C24.4294 7.07639 23.4425 7.54282 22.7305 8.27841L21.2979 7.45224L19.7979 10.0479L21.3096 10.921C21.1782 11.4428 21.043 11.9669 21.043 12.5001C21.043 13.0333 21.1782 13.5574 21.3096 14.0792L19.7979 14.9522L21.2979 17.5479L22.7305 16.7218C23.4425 17.4574 24.4294 17.9238 25.543 18.1954V20.0001H28.543V18.1954C29.6566 17.9238 30.6434 17.4574 31.3555 16.7218L32.7881 17.5479L34.2881 14.9522L32.7764 14.0792C32.9077 13.5574 33.043 13.0333 33.043 12.5001C33.043 11.9669 32.9077 11.4428 32.7764 10.921L34.2881 10.0479L32.7881 7.45224L31.3555 8.27841C30.6434 7.54282 29.6566 7.07639 28.543 6.80478V5.00009H25.543ZM27.043 9.50009C28.168 9.50009 28.8208 9.86796 29.2959 10.4024C29.771 10.9369 30.043 11.7084 30.043 12.5001C30.043 13.2918 29.771 14.0633 29.2959 14.5977C28.8208 15.1322 28.168 15.5001 27.043 15.5001C25.918 15.5001 25.2651 15.1322 24.79 14.5977C24.3149 14.0633 24.043 13.2918 24.043 12.5001C24.043 11.7084 24.3149 10.9369 24.79 10.4024C25.2651 9.86796 25.918 9.50009 27.043 9.50009ZM12.043 17.0001V18.8018C10.377 19.1201 8.89914 19.7785 7.9209 20.879C7.89216 20.9113 7.8845 20.9547 7.85645 20.9874L6.5 20.2022L5 22.7979L6.44434 23.6329C6.20835 24.4048 6.04297 25.1994 6.04297 26.0001C6.04297 26.8008 6.20835 27.5954 6.44434 28.3673L5 29.2022L6.5 31.7979L7.85645 31.0128C7.8845 31.0455 7.89216 31.0888 7.9209 31.1212C8.89914 32.2217 10.377 32.88 12.043 33.1983V35.0001H15.043V33.1983C16.709 32.88 18.1868 32.2217 19.165 31.1212C19.1938 31.0889 19.2014 31.0455 19.2295 31.0128L20.5859 31.7979L22.0859 29.2022L20.6416 28.3673C20.8776 27.5954 21.043 26.8008 21.043 26.0001C21.043 25.1994 20.8776 24.4048 20.6416 23.6329L22.0859 22.7979L20.5859 20.2022L19.2295 20.9874C19.2014 20.9546 19.1938 20.9113 19.165 20.879C18.1868 19.7785 16.709 19.1201 15.043 18.8018V17.0001H12.043ZM13.543 21.5001C15.168 21.5001 16.1958 22.0555 16.9209 22.8712C17.646 23.6869 18.043 24.8334 18.043 26.0001C18.043 27.1668 17.646 28.3133 16.9209 29.129C16.1958 29.9447 15.168 30.5001 13.543 30.5001C11.918 30.5001 10.8901 29.9447 10.165 29.129C9.43995 28.3133 9.04297 27.1668 9.04297 26.0001C9.04297 24.8334 9.43995 23.6869 10.165 22.8712C10.8901 22.0555 11.918 21.5001 13.543 21.5001ZM13.543 24.5001C13.1451 24.5001 12.7636 24.6581 12.4823 24.9394C12.201 25.2207 12.043 25.6023 12.043 26.0001C12.043 26.3979 12.201 26.7794 12.4823 27.0608C12.7636 27.3421 13.1451 27.5001 13.543 27.5001C13.9408 27.5001 14.3223 27.3421 14.6036 27.0608C14.8849 26.7794 15.043 26.3979 15.043 26.0001C15.043 25.6023 14.8849 25.2207 14.6036 24.9394C14.3223 24.6581 13.9408 24.5001 13.543 24.5001Z" fill="#14171C"/>
</svg>
