<svg width="40" height="40" viewBox="0 0 40 40" fill="none" xmlns="http://www.w3.org/2000/svg">
<rect width="40" height="40" rx="8" fill="#FF6C37"/>
<path fill-rule="evenodd" clip-rule="evenodd" d="M16 13C16 11.3431 17.3431 10 19 10H29C30.6569 10 32 11.3431 32 13V23C32 24.6569 30.6569 26 29 26H28V27C28 28.6569 26.6569 30 25 30H15C13.3431 30 12 28.6569 12 27V17C12 15.3431 13.3431 14 15 14H16V13ZM27.2682 15.0365C26.9322 14.9433 26.557 15.0287 26.2929 15.2929L23 18.5858L21.7071 17.2929C21.3166 16.9024 20.6834 16.9024 20.2929 17.2929C19.9024 17.6834 19.9024 18.3166 20.2929 18.7071L22.2929 20.7071C22.6834 21.0976 23.3166 21.0976 23.7071 20.7071L27.7071 16.7071C27.8047 16.6095 27.878 16.4967 27.9268 16.3763C27.9286 16.3718 27.9304 16.3673 27.9322 16.3627C28.0714 16.0044 27.9963 15.5821 27.7071 15.2929C27.5807 15.1665 27.429 15.081 27.2682 15.0365ZM26 26H19C17.3431 26 16 24.6569 16 23V16H15C14.4477 16 14 16.4477 14 17V27C14 27.5523 14.4477 28 15 28H25C25.5523 28 26 27.5523 26 27V26Z" fill="white"/>
</svg>
