<svg width="651" height="52" viewBox="0 0 651 52" fill="none" xmlns="http://www.w3.org/2000/svg">
<path d="M35.625 23.4205C35.5644 22.8826 35.3144 22.4659 34.875 22.1705C34.4356 21.8712 33.8826 21.7216 33.2159 21.7216C32.7386 21.7216 32.3258 21.7973 31.9773 21.9489C31.6288 22.0966 31.358 22.3011 31.1648 22.5625C30.9754 22.8201 30.8807 23.1136 30.8807 23.4432C30.8807 23.7197 30.9451 23.9583 31.0739 24.1591C31.2064 24.3598 31.3788 24.5284 31.5909 24.6648C31.8068 24.7973 32.0379 24.9091 32.2841 25C32.5303 25.0871 32.767 25.1591 32.9943 25.2159L34.1307 25.5114C34.5019 25.6023 34.8826 25.7254 35.2727 25.8807C35.6629 26.036 36.0246 26.2405 36.358 26.4943C36.6913 26.7481 36.9602 27.0625 37.1648 27.4375C37.3731 27.8125 37.4773 28.2614 37.4773 28.7841C37.4773 29.4432 37.3068 30.0284 36.9659 30.5398C36.6288 31.0511 36.1383 31.4545 35.4943 31.75C34.8542 32.0455 34.0795 32.1932 33.1705 32.1932C32.2992 32.1932 31.5455 32.0549 30.9091 31.7784C30.2727 31.5019 29.7746 31.1098 29.4148 30.6023C29.0549 30.0909 28.8561 29.4848 28.8182 28.7841H30.5795C30.6136 29.2045 30.75 29.5549 30.9886 29.8352C31.2311 30.1117 31.5398 30.3182 31.9148 30.4545C32.2936 30.5871 32.7083 30.6534 33.1591 30.6534C33.6553 30.6534 34.0966 30.5758 34.483 30.4205C34.8731 30.2614 35.1799 30.0417 35.4034 29.7614C35.6269 29.4773 35.7386 29.1458 35.7386 28.767C35.7386 28.4223 35.6402 28.1402 35.4432 27.9205C35.25 27.7008 34.9867 27.5189 34.6534 27.375C34.3239 27.2311 33.9508 27.1042 33.5341 26.9943L32.1591 26.6193C31.2273 26.3655 30.4886 25.9924 29.9432 25.5C29.4015 25.0076 29.1307 24.3561 29.1307 23.5455C29.1307 22.875 29.3125 22.2898 29.6761 21.7898C30.0398 21.2898 30.5322 20.9015 31.1534 20.625C31.7746 20.3447 32.4754 20.2045 33.2557 20.2045C34.0436 20.2045 34.7386 20.3428 35.3409 20.6193C35.947 20.8958 36.4242 21.2765 36.7727 21.7614C37.1212 22.2424 37.303 22.7955 37.3182 23.4205H35.625ZM42.8803 32.1761C42.0204 32.1761 41.2799 31.9924 40.6587 31.625C40.0413 31.2538 39.564 30.733 39.2269 30.0625C38.8935 29.3883 38.7269 28.5985 38.7269 27.6932C38.7269 26.7992 38.8935 26.0114 39.2269 25.3295C39.564 24.6477 40.0337 24.1155 40.636 23.733C41.242 23.3504 41.9504 23.1591 42.761 23.1591C43.2534 23.1591 43.7307 23.2405 44.1928 23.4034C44.6549 23.5663 45.0697 23.822 45.4371 24.1705C45.8045 24.5189 46.0943 24.9716 46.3064 25.5284C46.5185 26.0814 46.6246 26.7538 46.6246 27.5455V28.1477H39.6871V26.875H44.9598C44.9598 26.428 44.8689 26.0322 44.6871 25.6875C44.5053 25.339 44.2496 25.0644 43.9201 24.8636C43.5943 24.6629 43.2117 24.5625 42.7723 24.5625C42.2951 24.5625 41.8784 24.6799 41.5223 24.9148C41.1701 25.1458 40.8973 25.4489 40.7041 25.8239C40.5148 26.1951 40.4201 26.5985 40.4201 27.0341V28.0284C40.4201 28.6117 40.5223 29.108 40.7269 29.517C40.9352 29.9261 41.225 30.2386 41.5962 30.4545C41.9674 30.6667 42.4011 30.7727 42.8973 30.7727C43.2193 30.7727 43.5129 30.7273 43.778 30.6364C44.0432 30.5417 44.2723 30.4015 44.4655 30.2159C44.6587 30.0303 44.8064 29.8011 44.9087 29.5284L46.5166 29.8182C46.3879 30.2917 46.1568 30.7064 45.8235 31.0625C45.4939 31.4148 45.0791 31.6894 44.5791 31.8864C44.0829 32.0795 43.5166 32.1761 42.8803 32.1761ZM50.7293 32.1932C50.1763 32.1932 49.6763 32.0909 49.2293 31.8864C48.7823 31.678 48.4282 31.3769 48.1668 30.983C47.9092 30.589 47.7805 30.1061 47.7805 29.5341C47.7805 29.0417 47.8752 28.6364 48.0645 28.3182C48.2539 28 48.5096 27.7481 48.8316 27.5625C49.1536 27.3769 49.5134 27.2367 49.9111 27.142C50.3089 27.0473 50.7142 26.9754 51.127 26.9261C51.6498 26.8655 52.074 26.8163 52.3998 26.7784C52.7255 26.7367 52.9623 26.6705 53.11 26.5795C53.2577 26.4886 53.3316 26.3409 53.3316 26.1364V26.0966C53.3316 25.6004 53.1914 25.2159 52.9111 24.9432C52.6346 24.6705 52.2217 24.5341 51.6725 24.5341C51.1005 24.5341 50.6498 24.661 50.3202 24.9148C49.9945 25.1648 49.7691 25.4432 49.6441 25.75L48.0475 25.3864C48.2369 24.8561 48.5134 24.428 48.877 24.1023C49.2445 23.7727 49.6668 23.5341 50.1441 23.3864C50.6214 23.2348 51.1233 23.1591 51.6498 23.1591C51.9983 23.1591 52.3676 23.2008 52.7577 23.2841C53.1517 23.3636 53.5191 23.5114 53.86 23.7273C54.2047 23.9432 54.4869 24.2519 54.7066 24.6534C54.9263 25.0511 55.0361 25.5682 55.0361 26.2045V32H53.377V30.8068H53.3089C53.199 31.0265 53.0342 31.2424 52.8145 31.4545C52.5948 31.6667 52.3127 31.8428 51.968 31.983C51.6233 32.1231 51.2104 32.1932 50.7293 32.1932ZM51.0986 30.8295C51.5683 30.8295 51.9698 30.7367 52.3032 30.5511C52.6403 30.3655 52.896 30.1231 53.0702 29.8239C53.2483 29.5208 53.3373 29.197 53.3373 28.8523V27.7273C53.2767 27.7879 53.1592 27.8447 52.985 27.8977C52.8145 27.947 52.6195 27.9905 52.3998 28.0284C52.1801 28.0625 51.9661 28.0947 51.7577 28.125C51.5494 28.1515 51.3752 28.1742 51.235 28.1932C50.9055 28.2348 50.6043 28.3049 50.3316 28.4034C50.0627 28.5019 49.8467 28.6439 49.6839 28.8295C49.5248 29.0114 49.4452 29.2538 49.4452 29.5568C49.4452 29.9773 49.6005 30.2955 49.9111 30.5114C50.2217 30.7235 50.6176 30.8295 51.0986 30.8295ZM56.9789 32V23.2727H58.621V24.6591H58.7119C58.871 24.1894 59.1513 23.8201 59.5528 23.5511C59.9581 23.2784 60.4164 23.142 60.9278 23.142C61.0338 23.142 61.1588 23.1458 61.3028 23.1534C61.4505 23.161 61.566 23.1705 61.6494 23.1818V24.8068C61.5812 24.7879 61.46 24.767 61.2857 24.7443C61.1115 24.7178 60.9373 24.7045 60.763 24.7045C60.3615 24.7045 60.0035 24.7898 59.6891 24.9602C59.3785 25.1269 59.1323 25.3598 58.9505 25.6591C58.7687 25.9545 58.6778 26.2917 58.6778 26.6705V32H56.9789ZM66.1632 32.1761C65.3185 32.1761 64.5912 31.9848 63.9814 31.6023C63.3753 31.2159 62.9094 30.6837 62.5836 30.0057C62.2579 29.3277 62.095 28.5511 62.095 27.6761C62.095 26.7898 62.2617 26.0076 62.595 25.3295C62.9283 24.6477 63.398 24.1155 64.0041 23.733C64.6102 23.3504 65.3242 23.1591 66.1461 23.1591C66.809 23.1591 67.3999 23.2822 67.9189 23.5284C68.4378 23.7708 68.8564 24.1117 69.1745 24.5511C69.4965 24.9905 69.6878 25.5038 69.7484 26.0909H68.095C68.0041 25.6818 67.7958 25.3295 67.47 25.0341C67.148 24.7386 66.7162 24.5909 66.1745 24.5909C65.7011 24.5909 65.2863 24.7159 64.9302 24.9659C64.578 25.2121 64.3033 25.5644 64.1064 26.0227C63.9094 26.4773 63.8109 27.0152 63.8109 27.6364C63.8109 28.2727 63.9075 28.822 64.1007 29.2841C64.2939 29.7462 64.5666 30.1042 64.9189 30.358C65.2749 30.6117 65.6935 30.7386 66.1745 30.7386C66.4965 30.7386 66.7882 30.6799 67.0495 30.5625C67.3147 30.4413 67.5363 30.2689 67.7143 30.0455C67.8961 29.822 68.023 29.553 68.095 29.2386H69.7484C69.6878 29.803 69.5041 30.3068 69.1973 30.75C68.8905 31.1932 68.4795 31.5417 67.9643 31.7955C67.453 32.0492 66.8526 32.1761 66.1632 32.1761ZM72.944 26.8182V32H71.2452V20.3636H72.9213V24.6932H73.0293C73.2338 24.2235 73.5463 23.8504 73.9668 23.5739C74.3872 23.2973 74.9365 23.1591 75.6145 23.1591C76.213 23.1591 76.7357 23.2822 77.1827 23.5284C77.6334 23.7746 77.9819 24.142 78.2281 24.6307C78.4781 25.1155 78.6031 25.7216 78.6031 26.4489V32H76.9043V26.6534C76.9043 26.0133 76.7395 25.517 76.4099 25.1648C76.0804 24.8087 75.6221 24.6307 75.0349 24.6307C74.6334 24.6307 74.2736 24.7159 73.9554 24.8864C73.641 25.0568 73.3929 25.3068 73.2111 25.6364C73.0331 25.9621 72.944 26.3561 72.944 26.8182Z" fill="#54577A"/>
<g clip-path="url(#clip0_307_7514)">
<path d="M612.583 33.5001C616.956 33.5001 620.5 29.9557 620.5 25.5834C620.5 21.2112 616.956 17.6667 612.583 17.6667C608.211 17.6667 604.667 21.2112 604.667 25.5834C604.667 29.9557 608.211 33.5001 612.583 33.5001Z" stroke="#4285F4" stroke-width="1.5" stroke-linecap="round" stroke-linejoin="round"/>
<path d="M621.333 34.3334L619.667 32.6667" stroke="#4285F4" stroke-width="1.5" stroke-linecap="round" stroke-linejoin="round"/>
</g>
<rect x="0.5" y="0.5" width="650" height="51" rx="9.5" stroke="#EDEDED"/>
<defs>
<clipPath id="clip0_307_7514">
<rect width="20" height="20" fill="white" transform="translate(603 16)"/>
</clipPath>
</defs>
</svg>
