<svg width="30" height="30" viewBox="0 0 30 30" fill="none" xmlns="http://www.w3.org/2000/svg">
<path d="M9.64644 13.2744H7.73311C7.56644 13.2744 7.43311 13.1444 7.43311 12.9855V11.1267C7.43311 10.9667 7.56644 10.8378 7.73311 10.8378H9.64422C9.80866 10.8378 9.94422 10.9678 9.94422 11.1267V12.9822C9.94422 13.1444 9.81088 13.2744 9.64422 13.2744M9.64644 17.3555H7.73311C7.56644 17.3555 7.43311 17.2278 7.43311 17.0667V15.2078C7.43311 15.0455 7.56644 14.9189 7.73311 14.9189H9.64422C9.80866 14.9189 9.94422 15.0455 9.94422 15.2078V17.0655C9.94422 17.2267 9.81088 17.3544 9.64422 17.3544M9.64644 21.45H7.73311C7.56644 21.45 7.43311 21.3222 7.43311 21.1611V19.3022C7.43311 19.1422 7.56644 19.0133 7.73311 19.0133H9.64422C9.80866 19.0133 9.94422 19.1422 9.94422 19.3022V21.1611C9.94422 21.3211 9.81088 21.45 9.64422 21.45M13.9164 13.2744H12.0031C11.8398 13.2744 11.7053 13.1444 11.7053 12.9855V11.1267C11.7053 10.9667 11.8387 10.8378 12.0031 10.8378H13.9187C14.0809 10.8378 14.2164 10.9678 14.2164 11.1267V12.9822C14.2164 13.1444 14.0831 13.2744 13.9164 13.2744ZM13.9164 17.3555H12.0031C11.8398 17.3555 11.7053 17.2278 11.7053 17.0667V15.2078C11.7053 15.0455 11.8387 14.9189 12.0031 14.9189H13.9187C14.0809 14.9189 14.2164 15.0455 14.2164 15.2078V17.0655C14.2164 17.2267 14.0831 17.3555 13.9164 17.3555ZM13.9164 21.45H12.0031C11.8398 21.45 11.7053 21.3222 11.7053 21.1611V19.3022C11.7053 19.1422 11.8387 19.0133 12.0031 19.0133H13.9187C14.0809 19.0133 14.2164 19.1422 14.2164 19.3022V21.1611C14.2164 21.3211 14.0831 21.45 13.9164 21.45ZM18.1598 13.2744H16.2442C16.0809 13.2744 15.9442 13.1444 15.9442 12.9855V11.1267C15.9442 10.9667 16.0775 10.8378 16.2442 10.8378H18.1598C18.3231 10.8378 18.4576 10.9678 18.4576 11.1267V12.9822C18.4576 13.1444 18.3242 13.2744 18.1598 13.2744ZM18.1598 17.3555H16.2442C16.0809 17.3555 15.9442 17.2278 15.9442 17.0667V15.2078C15.9442 15.0455 16.0775 14.9189 16.2442 14.9189H18.1598C18.3231 14.9189 18.4576 15.0455 18.4576 15.2078V17.0655C18.4576 17.2267 18.3242 17.3555 18.1598 17.3555ZM18.1598 21.45H16.2442C16.0809 21.45 15.9442 21.3222 15.9442 21.1611V19.3022C15.9442 19.1422 16.0775 19.0133 16.2442 19.0133H18.1598C18.3231 19.0133 18.4576 19.1422 18.4576 19.3022V21.1611C18.4576 21.3211 18.3242 21.45 18.1598 21.45ZM22.3109 13.2744H20.3942C20.232 13.2744 20.0942 13.1444 20.0942 12.9855V11.1267C20.0942 10.9667 20.2298 10.8378 20.3942 10.8378H22.3098C22.472 10.8378 22.6098 10.9678 22.6098 11.1267V12.9822C22.6098 13.1444 22.4775 13.2744 22.3109 13.2744ZM22.3109 17.3555H20.3942C20.232 17.3555 20.0942 17.2278 20.0942 17.0667V15.2078C20.0942 15.0455 20.2298 14.9189 20.3942 14.9189H22.3098C22.472 14.9189 22.6098 15.0455 22.6098 15.2078V17.0655C22.6098 17.2267 22.4764 17.3544 22.3098 17.3544M22.3109 21.45H20.3942C20.232 21.45 20.0942 21.3222 20.0942 21.1611V19.3022C20.0942 19.1422 20.2298 19.0133 20.3942 19.0133H22.3098C22.472 19.0133 22.6098 19.1422 22.6098 19.3022V21.1611C22.6098 21.3211 22.4775 21.45 22.3109 21.45Z" fill="#4F5B67"/>
<path d="M6.83333 8.5255C6.60333 8.5255 6.39778 8.61438 6.24778 8.76105C6.09889 8.90549 6.00667 9.10549 6.00667 9.32772V22.1088C6.00667 22.3311 6.09889 22.5311 6.24778 22.6777C6.39778 22.8222 6.60333 22.9111 6.83222 22.9111H23.1656C23.3956 22.9111 23.6022 22.8222 23.75 22.6777C23.8989 22.5299 23.9911 22.3311 23.9911 22.1088V9.32661C23.9911 9.10438 23.8989 8.90438 23.75 8.75994C23.6 8.61549 23.3944 8.52661 23.1656 8.52661L6.83333 8.5255ZM23.1667 23.8888H6.83333C6.32667 23.8888 5.86889 23.6888 5.53667 23.3666C5.20556 23.0444 5 22.5999 5 22.1111V9.32661C5 8.83772 5.20556 8.39327 5.53667 8.07105C5.87 7.74883 6.32556 7.54883 6.83222 7.54883H23.1656C23.6711 7.54883 24.1289 7.68549 24.4611 8.00772C24.7922 8.32994 24.9989 8.83661 24.9989 9.32661V22.1088C24.9989 22.5977 24.7922 23.0455 24.4633 23.3677C24.13 23.6899 23.6711 23.8899 23.1678 23.8899L23.1667 23.8888Z" fill="#4F5B67"/>
<path d="M8.58124 9.84664C8.45124 9.84664 8.31679 9.79442 8.23124 9.70997C8.14568 9.62442 8.07568 9.50775 8.07568 9.37886V6.57775C8.07568 6.44775 8.14568 6.33331 8.23124 6.24664C8.31679 6.16331 8.44235 6.11108 8.57346 6.11108C8.70457 6.11108 8.86013 6.16331 8.94568 6.24775C9.03235 6.3322 9.12346 6.44775 9.12346 6.57775V9.37775C9.12346 9.50775 9.03679 9.62442 8.95124 9.70886C8.86568 9.79331 8.71235 9.84664 8.58124 9.84664ZM21.3668 6.11108C21.2312 6.11108 21.089 6.16331 21.0001 6.24886C20.9112 6.33442 20.8357 6.45108 20.8357 6.5822V9.39997C20.8357 9.53108 20.9135 9.64886 20.999 9.73331C21.0879 9.81886 21.219 9.87108 21.3512 9.87108C21.4846 9.87108 21.629 9.81886 21.7157 9.73331C21.8024 9.64886 21.8779 9.53108 21.8779 9.39997V6.5822C21.8779 6.45108 21.8112 6.33442 21.7224 6.24886C21.6368 6.16442 21.5001 6.11108 21.3668 6.11108Z" fill="#4F5B67"/>
</svg>
