<svg width="186" height="135" viewBox="0 0 186 135" fill="none" xmlns="http://www.w3.org/2000/svg">
<g filter="url(#filter0_i_1787_3297)">
<path d="M111.053 82.951C111.099 82.6902 111.123 82.4218 111.123 82.1479C111.123 79.5857 109.019 77.5085 106.424 77.5085C104.494 77.5085 102.836 78.6565 102.113 80.2983C101.526 79.7986 100.766 79.4969 99.9342 79.4969C98.0805 79.4969 96.5777 80.997 96.5777 82.8475C96.5777 82.9506 96.5823 83.0525 96.5915 83.1532C95.6998 83.5844 95.0859 84.4891 95.0859 85.5354C95.0859 86.9996 96.2881 88.1865 97.7711 88.1865H110.451C111.934 88.1865 113.137 86.9996 113.137 85.5354C113.137 84.2753 112.246 83.2206 111.053 82.951Z" fill="#656565"/>
</g>
<g filter="url(#filter1_f_1787_3297)">
<rect x="77.7969" y="77" width="30.5085" height="28.7288" rx="14.3644" fill="#FFEF9A"/>
</g>
<g filter="url(#filter2_i_1787_3297)">
<path d="M106.527 91.3644C106.527 98.8764 100.495 104.966 93.0527 104.966C85.6109 104.966 79.5781 98.8764 79.5781 91.3644C79.5781 83.8524 85.6109 77.7627 93.0527 77.7627C100.495 77.7627 106.527 83.8524 106.527 91.3644Z" fill="url(#paint0_linear_1787_3297)"/>
</g>
<g filter="url(#filter3_i_1787_3297)">
<path d="M90.9667 101.765C91.0128 101.504 91.0368 101.235 91.0368 100.961C91.0368 98.3991 88.9329 96.322 86.3377 96.322C84.4083 96.322 82.7505 97.47 82.0268 99.1118C81.4405 98.6121 80.6797 98.3103 79.8483 98.3103C77.9945 98.3103 76.4917 99.8105 76.4917 101.661C76.4917 101.764 76.4964 101.866 76.5055 101.967C75.6139 102.398 74.9999 103.303 74.9999 104.349C74.9999 105.813 76.2022 107 77.6852 107H90.3655C91.8486 107 93.0508 105.813 93.0508 104.349C93.0508 103.089 92.1603 102.034 90.9667 101.765Z" fill="#838383"/>
</g>
<defs>
<filter id="filter0_i_1787_3297" x="95.0859" y="77.5085" width="18.0508" height="20.678" filterUnits="userSpaceOnUse" color-interpolation-filters="sRGB">
<feFlood flood-opacity="0" result="BackgroundImageFix"/>
<feBlend mode="normal" in="SourceGraphic" in2="BackgroundImageFix" result="shape"/>
<feColorMatrix in="SourceAlpha" type="matrix" values="0 0 0 0 0 0 0 0 0 0 0 0 0 0 0 0 0 0 127 0" result="hardAlpha"/>
<feOffset dy="11"/>
<feGaussianBlur stdDeviation="5"/>
<feComposite in2="hardAlpha" operator="arithmetic" k2="-1" k3="1"/>
<feColorMatrix type="matrix" values="0 0 0 0 1 0 0 0 0 1 0 0 0 0 1 0 0 0 1 0"/>
<feBlend mode="normal" in2="shape" result="effect1_innerShadow_1787_3297"/>
</filter>
<filter id="filter1_f_1787_3297" x="0.796875" y="0" width="184.508" height="182.729" filterUnits="userSpaceOnUse" color-interpolation-filters="sRGB">
<feFlood flood-opacity="0" result="BackgroundImageFix"/>
<feBlend mode="normal" in="SourceGraphic" in2="BackgroundImageFix" result="shape"/>
<feGaussianBlur stdDeviation="38.5" result="effect1_foregroundBlur_1787_3297"/>
</filter>
<filter id="filter2_i_1787_3297" x="79.5781" y="77.7627" width="26.9492" height="32.2034" filterUnits="userSpaceOnUse" color-interpolation-filters="sRGB">
<feFlood flood-opacity="0" result="BackgroundImageFix"/>
<feBlend mode="normal" in="SourceGraphic" in2="BackgroundImageFix" result="shape"/>
<feColorMatrix in="SourceAlpha" type="matrix" values="0 0 0 0 0 0 0 0 0 0 0 0 0 0 0 0 0 0 127 0" result="hardAlpha"/>
<feOffset dy="5"/>
<feGaussianBlur stdDeviation="9"/>
<feComposite in2="hardAlpha" operator="arithmetic" k2="-1" k3="1"/>
<feColorMatrix type="matrix" values="0 0 0 0 1 0 0 0 0 1 0 0 0 0 1 0 0 0 0.81 0"/>
<feBlend mode="normal" in2="shape" result="effect1_innerShadow_1787_3297"/>
</filter>
<filter id="filter3_i_1787_3297" x="75" y="96.322" width="18.0508" height="20.678" filterUnits="userSpaceOnUse" color-interpolation-filters="sRGB">
<feFlood flood-opacity="0" result="BackgroundImageFix"/>
<feBlend mode="normal" in="SourceGraphic" in2="BackgroundImageFix" result="shape"/>
<feColorMatrix in="SourceAlpha" type="matrix" values="0 0 0 0 0 0 0 0 0 0 0 0 0 0 0 0 0 0 127 0" result="hardAlpha"/>
<feOffset dy="11"/>
<feGaussianBlur stdDeviation="5"/>
<feComposite in2="hardAlpha" operator="arithmetic" k2="-1" k3="1"/>
<feColorMatrix type="matrix" values="0 0 0 0 1 0 0 0 0 1 0 0 0 0 1 0 0 0 1 0"/>
<feBlend mode="normal" in2="shape" result="effect1_innerShadow_1787_3297"/>
</filter>
<linearGradient id="paint0_linear_1787_3297" x1="91.0059" y1="98.7678" x2="102.25" y2="79.2309" gradientUnits="userSpaceOnUse">
<stop stop-color="#FF9900"/>
<stop offset="1" stop-color="#FFEE94"/>
</linearGradient>
</defs>
</svg>
