<svg width="17" height="17" viewBox="0 0 17 17" fill="none" xmlns="http://www.w3.org/2000/svg">
<g clip-path="url(#clip0_1264_14361)">
<path fill-rule="evenodd" clip-rule="evenodd" d="M1.85938 8.5C1.85938 7.39543 2.7548 6.5 3.85938 6.5C4.96394 6.5 5.85938 7.39543 5.85938 8.5C5.85938 9.60457 4.96394 10.5 3.85938 10.5C2.7548 10.5 1.85938 9.60457 1.85938 8.5Z" fill="#6B6B6B"/>
<path fill-rule="evenodd" clip-rule="evenodd" d="M6.85938 8.5C6.85938 7.39543 7.7548 6.5 8.85938 6.5C9.96394 6.5 10.8594 7.39543 10.8594 8.5C10.8594 9.60457 9.96394 10.5 8.85938 10.5C7.7548 10.5 6.85938 9.60457 6.85938 8.5Z" fill="#6B6B6B"/>
<path fill-rule="evenodd" clip-rule="evenodd" d="M13.8594 6.5C12.7548 6.5 11.8594 7.39543 11.8594 8.5C11.8594 9.60457 12.7548 10.5 13.8594 10.5C14.964 10.5 15.8594 9.60457 15.8594 8.5C15.8594 7.39543 14.964 6.5 13.8594 6.5Z" fill="#6B6B6B"/>
</g>
<defs>
<clipPath id="clip0_1264_14361">
<rect width="16" height="16" fill="white" transform="translate(0.859375 0.5)"/>
</clipPath>
</defs>
</svg>
