<svg width="22" height="15" viewBox="0 0 22 15" fill="none" xmlns="http://www.w3.org/2000/svg">
<g clip-path="url(#clip0_5083_31067)">
<path d="M7.82571 9.87613L5.23389 7.28616C4.87604 6.92856 4.29584 6.92856 3.93798 7.28616L1.34617 9.87613C0.988314 10.2337 0.988314 10.8135 1.34617 11.1711L3.93798 13.7611C4.29584 14.1187 4.87604 14.1187 5.23389 13.7611L7.82571 11.1711C8.18356 10.8135 8.18356 10.2337 7.82571 9.87613Z" fill="#888888" stroke="#888888" stroke-width="0.916345"/>
<path d="M14.2398 3.69547L11.648 1.1055C11.2901 0.7479 10.7099 0.7479 10.352 1.1055L7.76023 3.69547C7.40238 4.05307 7.40238 4.63285 7.76023 4.99046L10.352 7.58042C10.7099 7.93802 11.2901 7.93802 11.648 7.58042L14.2398 4.99046C14.5976 4.63285 14.5976 4.05307 14.2398 3.69547Z" fill="#EFB21F" stroke="#EFB21F" stroke-width="0.916345"/>
<path d="M20.6538 9.87613L18.062 7.28616C17.7042 6.92856 17.124 6.92856 16.7661 7.28616L14.1743 9.87613C13.8164 10.2337 13.8164 10.8135 14.1743 11.1711L16.7661 13.7611C17.124 14.1187 17.7042 14.1187 18.062 13.7611L20.6538 11.1711C21.0117 10.8135 21.0117 10.2337 20.6538 9.87613Z" fill="#888888" stroke="#888888" stroke-width="0.916345"/>
</g>
<defs>
<clipPath id="clip0_5083_31067">
<rect width="22" height="14.88" fill="white"/>
</clipPath>
</defs>
</svg>
