<svg width="18" height="18" viewBox="0 0 18 18" fill="none" xmlns="http://www.w3.org/2000/svg">
<path fill-rule="evenodd" clip-rule="evenodd" d="M12.3335 16C12.4668 16 12.6002 15.9333 12.7335 15.8667L13.5335 15.0667C13.6002 15 13.6668 14.8 13.6668 14.6667C13.6668 14.5333 13.6002 14.4 13.5335 14.2667L7.20016 8L13.5335 1.66667C13.6002 1.6 13.6668 1.46667 13.6668 1.33333C13.6668 1.2 13.6002 1.06667 13.5335 0.933333L12.7335 0.133333C12.6002 0.0666667 12.4668 0 12.3335 0C12.2002 0 12.0668 0.0666667 11.9335 0.133333L4.46683 7.6C4.40016 7.73333 4.3335 7.86667 4.3335 8C4.3335 8.13333 4.40016 8.26667 4.46683 8.4L11.9335 15.8667C12.0668 15.9333 12.2002 16 12.3335 16Z" fill="black"/>
</svg>
