<svg width="16" height="16" viewBox="0 0 16 16" fill="none" xmlns="http://www.w3.org/2000/svg">
<path d="M14.722 7.5969C14.1727 6.43971 13.519 5.49596 12.761 4.76565L11.966 5.56065C12.6143 6.18018 13.179 6.99065 13.6673 8.00002C12.3673 10.6906 10.522 11.9688 8.00009 11.9688C7.24311 11.9688 6.54587 11.8522 5.90837 11.6191L5.04697 12.4805C5.93238 12.8893 6.91676 13.0938 8.00009 13.0938C11.0032 13.0938 13.2438 11.5297 14.722 8.40159C14.7814 8.27578 14.8122 8.13838 14.8122 7.99924C14.8122 7.86011 14.7814 7.7227 14.722 7.5969ZM13.7287 2.5869L13.0626 1.92002C13.051 1.9084 13.0372 1.89918 13.022 1.89289C13.0068 1.8866 12.9906 1.88336 12.9742 1.88336C12.9577 1.88336 12.9415 1.8866 12.9263 1.89289C12.9111 1.89918 12.8973 1.9084 12.8857 1.92002L11.1768 3.62815C10.2346 3.1469 9.17571 2.90627 8.00009 2.90627C4.99697 2.90627 2.75634 4.47034 1.27822 7.59846C1.2188 7.72427 1.18799 7.86167 1.18799 8.0008C1.18799 8.13994 1.2188 8.27734 1.27822 8.40315C1.86874 9.6469 2.57967 10.6438 3.41103 11.3939L1.75759 13.0469C1.73417 13.0703 1.72101 13.1021 1.72101 13.1353C1.72101 13.1684 1.73417 13.2002 1.75759 13.2236L2.42462 13.8906C2.44806 13.9141 2.47984 13.9272 2.51298 13.9272C2.54612 13.9272 2.5779 13.9141 2.60134 13.8906L13.7287 2.76377C13.7403 2.75216 13.7495 2.73838 13.7558 2.7232C13.7621 2.70803 13.7653 2.69176 13.7653 2.67534C13.7653 2.65891 13.7621 2.64264 13.7558 2.62747C13.7495 2.61229 13.7403 2.59851 13.7287 2.5869ZM2.3329 8.00002C3.63447 5.3094 5.47978 4.03127 8.00009 4.03127C8.85228 4.03127 9.62712 4.17752 10.3301 4.47487L9.23165 5.5733C8.71145 5.29575 8.1158 5.19274 7.5326 5.27947C6.94939 5.3662 6.4095 5.63808 5.99258 6.05501C5.57565 6.47193 5.30377 7.01182 5.21704 7.59503C5.1303 8.17824 5.23331 8.77388 5.51087 9.29409L4.20743 10.5975C3.48603 9.9608 2.86415 9.09815 2.3329 8.00002ZM6.18759 8.00002C6.18786 7.7245 6.25313 7.45292 6.37808 7.20736C6.50303 6.9618 6.68414 6.74917 6.9067 6.58676C7.12926 6.42434 7.387 6.31671 7.65898 6.27262C7.93095 6.22853 8.20949 6.24921 8.47197 6.33299L6.27056 8.5344C6.21538 8.36165 6.18739 8.18137 6.18759 8.00002Z" fill="#455360"/>
<path d="M7.93762 9.75C7.88355 9.75 7.83027 9.7475 7.77746 9.74265L6.95215 10.568C7.44854 10.7581 7.98937 10.8003 8.50926 10.6896C9.02915 10.5789 9.50583 10.3199 9.8817 9.94407C10.2576 9.56821 10.5165 9.09152 10.6272 8.57164C10.7379 8.05175 10.6957 7.51092 10.5056 7.01453L9.68027 7.83984C9.68512 7.89265 9.68762 7.94593 9.68762 8C9.68774 8.22984 9.64256 8.45746 9.55466 8.66984C9.46676 8.88221 9.33786 9.07518 9.17533 9.23771C9.0128 9.40023 8.81983 9.52913 8.60746 9.61704C8.39508 9.70494 8.16747 9.75012 7.93762 9.75Z" fill="#455360"/>
</svg>
