<svg width="16" height="16" viewBox="0 0 16 16" fill="none" xmlns="http://www.w3.org/2000/svg">
<path fill-rule="evenodd" clip-rule="evenodd" d="M4.66683 16C4.5335 16 4.40016 15.9333 4.26683 15.8667L3.46683 15.0667C3.40016 14.9333 3.3335 14.8 3.3335 14.6667C3.3335 14.5333 3.40016 14.4 3.46683 14.2667L9.80016 7.93333L3.46683 1.66667C3.40016 1.6 3.3335 1.46667 3.3335 1.33333C3.3335 1.2 3.40016 1.06667 3.46683 0.933333L4.26683 0.133333C4.40016 0.0666667 4.5335 0 4.66683 0C4.80016 0 4.9335 0.0666667 5.06683 0.133333L12.5335 7.6C12.6002 7.66667 12.6668 7.86667 12.6668 8C12.6668 8.13333 12.6002 8.26667 12.5335 8.4L5.06683 15.8667C4.9335 15.9333 4.80016 16 4.66683 16Z" fill="black"/>
</svg>
