<svg width="1598" height="1013" viewBox="0 0 1598 1013" fill="none" xmlns="http://www.w3.org/2000/svg">
<rect width="1594" height="1013" fill="white"/>
<rect x="16" y="133" width="330" height="370" rx="8" fill="white"/>
<rect x="36" y="158" width="146" height="19.25" rx="9.625" fill="#E6E6E6"/>
<rect x="36.5" y="226.5" width="69" height="69" fill="#E6E6E6" stroke="#E6E6E6"/>
<rect x="36" y="201" width="74" height="10.5" rx="5.25" fill="#E6E6E6"/>
<g clip-path="url(#clip0_2541_59261)">
<rect x="166" y="233.5" width="30" height="30" rx="4" fill="#F9F9F9"/>
<rect x="166" y="233.5" width="28" height="12.25" rx="6.125" fill="#E6E6E6"/>
</g>
<rect x="225.391" y="226.5" width="101.216" height="69" fill="#E6E6E6" stroke="#E6E6E6"/>
<rect x="226" y="201" width="79" height="10.5" rx="5.25" fill="#E6E6E6"/>
<rect x="36" y="326" width="35" height="10.5" rx="5.25" fill="#E6E6E6"/>
<rect x="36" y="346" width="89" height="11.375" rx="5.6875" fill="#E6E6E6"/>
<rect x="36" y="362" width="101" height="11.375" rx="5.6875" fill="#E6E6E6"/>
<rect x="36" y="326" width="101" height="10.5" rx="5.25" fill="#E6E6E6"/>
<rect x="257" y="346" width="69" height="11.375" rx="5.6875" fill="#E6E6E6"/>
<rect x="255" y="362" width="71" height="11.375" rx="5.6875" fill="#E6E6E6"/>
<rect x="36" y="407" width="45" height="10.5" rx="5.25" fill="#E6E6E6"/>
<rect x="36" y="442" width="59" height="11.375" rx="5.6875" fill="#E6E6E6"/>
<rect x="209" y="435" width="64" height="11.375" rx="5.6875" fill="#E6E6E6"/>
<rect x="209" y="407" width="66" height="10.5" rx="5.25" fill="#E6E6E6"/>
<rect x="167.5" y="437.5" width="29.5085" height="27.7288" rx="13.8644" fill="#E6E6E6" stroke="#E6E6E6"/>
<rect x="203.016" y="437.509" width="16.274" height="10.678" rx="5.33898" fill="#E6E6E6"/>
<rect x="168.781" y="437.763" width="26.9492" height="27.2034" rx="13.4746" fill="#E6E6E6"/>
<rect x="195.984" y="456.322" width="16.274" height="10.678" rx="5.33898" fill="#E6E6E6"/>
<rect x="376" y="133" width="330" height="370" rx="8" fill="white"/>
<rect x="396" y="158" width="130" height="19.25" rx="9.625" fill="#E6E6E6"/>
<circle cx="446" cy="253" r="24.5" fill="#E6E6E6" stroke="#E6E6E6"/>
<rect x="420" y="201" width="41" height="10.5" rx="5.25" fill="#E6E6E6"/>
<rect x="411.5" y="285" width="54" height="10.5" rx="5.25" fill="#E6E6E6"/>
<circle cx="634.5" cy="253" r="24.5" fill="#E6E6E6" stroke="#E6E6E6"/>
<rect x="586" y="201" width="79" height="10.5" rx="5.25" fill="#E6E6E6"/>
<rect x="623.5" y="285" width="16" height="10.5" rx="5.25" fill="#E6E6E6"/>
<rect x="396" y="337" width="40" height="10.5" rx="5.25" fill="#E6E6E6"/>
<rect x="396" y="357" width="75" height="11.375" rx="5.6875" fill="#E6E6E6"/>
<rect x="396" y="373" width="71" height="11.375" rx="5.6875" fill="#E6E6E6"/>
<rect x="396" y="337" width="76" height="10.5" rx="5.25" fill="#E6E6E6"/>
<rect x="605" y="357" width="81" height="11.375" rx="5.6875" fill="#E6E6E6"/>
<rect x="396" y="429" width="86" height="10.5" rx="5.25" fill="#E6E6E6"/>
<rect x="396" y="456" width="69" height="11.375" rx="5.6875" fill="#E6E6E6"/>
<rect x="396" y="429" width="95" height="10.5" rx="5.25" fill="#E6E6E6"/>
<rect x="616" y="449" width="70" height="11.375" rx="5.6875" fill="#E6E6E6"/>
<rect x="608" y="465" width="78" height="11.375" rx="5.6875" fill="#E6E6E6"/>
<rect x="376" y="533" width="330" height="370" rx="8" fill="white"/>
<rect x="396" y="558" width="149" height="19.25" rx="9.625" fill="#E6E6E6"/>
<rect x="466" y="690" width="77" height="12.25" rx="6.125" fill="#E6E6E6"/>
<rect x="466" y="707.5" width="104" height="12.25" rx="6.125" fill="#E6E6E6"/>
<rect x="519" y="718" width="24" height="12.25" rx="6.125" fill="#E6E6E6"/>
<rect x="519" y="735.5" width="27" height="12.25" rx="6.125" fill="#E6E6E6"/>
<g clip-path="url(#clip1_2541_59261)">
<rect x="736" y="133" width="813" height="770" rx="10" fill="white"/>
<path d="M736 213H1549V893C1549 898.523 1544.52 903 1539 903H736V213Z" fill="#FBFBFB"/>
<rect x="759" y="250" width="94" height="10.5" rx="5.25" fill="#E6E6E6"/>
<rect x="759" y="265" width="116" height="10.5" rx="5.25" fill="#E6E6E6"/>
<rect x="1451" y="258" width="49" height="8.75" rx="4.375" fill="#E6E6E6"/>
<rect x="1451" y="270.5" width="46" height="8.75" rx="4.375" fill="#E6E6E6"/>
<rect x="759" y="251" width="98" height="10.5" rx="5.25" fill="#E6E6E6"/>
<rect x="1451" y="322" width="43" height="8.75" rx="4.375" fill="#E6E6E6"/>
<rect x="1451" y="334.5" width="38" height="8.75" rx="4.375" fill="#E6E6E6"/>
<rect x="759" y="251" width="191" height="10.5" rx="5.25" fill="#E6E6E6"/>
<rect x="1451" y="380" width="54" height="8.75" rx="4.375" fill="#E6E6E6"/>
<rect x="1451" y="392.5" width="67" height="8.75" rx="4.375" fill="#E6E6E6"/>
<rect x="759.5" y="439.5" width="673" height="58" rx="9.5" fill="#E6E6E6" stroke="#E6E6E6"/>
<circle cx="1475" cy="459" r="19" fill="#E6E6E6" stroke="#E6E6E6" stroke-width="2"/>
<rect x="771" y="270" width="273" height="14" rx="7" fill="#E6E6E6"/>
<path d="M736 843H1549V893C1549 898.523 1544.52 903 1539 903H736V843Z" fill="white"/>
<rect x="764" y="863" width="114" height="12.25" rx="6.125" fill="#E6E6E6"/>
<rect x="736.5" y="833.5" width="777" height="9" fill="#E6E6E6" stroke="#E6E6E6"/>
<rect x="736.5" y="133.5" width="4" height="79" fill="#E6E6E6" stroke="#E6E6E6"/>
<rect x="760" y="158" width="100" height="19.25" rx="9.625" fill="#E6E6E6"/>
</g>
<rect x="16" y="533" width="320" height="370" rx="8" fill="white"/>
<g clip-path="url(#clip2_2541_59261)">
<rect x="36" y="631" width="66" height="14" rx="7" fill="#E6E6E6"/>
<rect x="264" y="631" width="43" height="14" rx="7" fill="#E6E6E6"/>
<rect x="36.5" y="663.5" width="279" height="7" rx="3.5" fill="#E6E6E6" stroke="#E6E6E6"/>
<path d="M36.5 667C36.5 665.067 38.067 663.5 40 663.5H305.5V670.5H40C38.067 670.5 36.5 668.933 36.5 667Z" fill="#E6E6E6" stroke="#E6E6E6"/>
<circle cx="308" cy="667" r="7" fill="#E6E6E6" stroke="#E6E6E6" stroke-width="2"/>
</g>
<rect width="122" height="28" transform="translate(36 705)" fill="white"/>
<rect width="24" height="24" transform="translate(36 707)" fill="white"/>
<rect x="38" y="709" width="20" height="20" rx="10" fill="#E6E6E6"/>
<rect x="43" y="715.413" width="9.995" height="7.1675" rx="3.58375" fill="#E6E6E6"/>
<rect x="36" y="707" width="24" height="24" rx="12" fill="#E6E6E6"/>
<rect x="70" y="705" width="53" height="12.25" rx="6.125" fill="#E6E6E6"/>
<rect x="70" y="722.5" width="68" height="12.25" rx="6.125" fill="#E6E6E6"/>
<rect width="204" height="28" transform="translate(36 753)" fill="white"/>
<rect width="24" height="24" transform="translate(36 755)" fill="white"/>
<rect x="38" y="757" width="20" height="20" rx="10" fill="#E6E6E6"/>
<rect x="43" y="763.413" width="9.995" height="7.1675" rx="3.58375" fill="#E6E6E6"/>
<rect x="36" y="755" width="24" height="24" rx="12" fill="#E6E6E6"/>
<rect x="70" y="753" width="103" height="12.25" rx="6.125" fill="#E6E6E6"/>
<rect x="70" y="770.5" width="116" height="12.25" rx="6.125" fill="#E6E6E6"/>
<rect x="36" y="558" width="40" height="19.25" rx="9.625" fill="#E6E6E6"/>
<rect width="1594" height="49" transform="translate(0 49)" fill="#F9F9F9"/>
<rect x="18" y="57" width="96.64" height="32" rx="4" fill="#ECF3FE"/>
<rect x="34" y="63" width="57" height="12.25" rx="6.125" fill="#E6E6E6"/>
<rect x="134.641" y="63" width="24" height="12.25" rx="6.125" fill="#E6E6E6"/>
<rect width="1594" height="49" fill="white"/>
<g clip-path="url(#clip3_2541_59261)">
<g clip-path="url(#clip4_2541_59261)">
<rect x="22" y="14" width="18" height="10.5" rx="5.25" fill="#E6E6E6"/>
<rect x="53" y="15" width="9" height="10.5" rx="4.5" fill="#E6E6E6"/>
</g>
<rect x="65" y="15" width="172" height="10.5" rx="5.25" fill="#E6E6E6"/>
</g>
<defs>
<clipPath id="clip0_2541_59261">
<rect x="166" y="233.5" width="30" height="30" rx="4" fill="white"/>
</clipPath>
<clipPath id="clip1_2541_59261">
<rect x="736" y="133" width="813" height="770" rx="10" fill="white"/>
</clipPath>
<clipPath id="clip2_2541_59261">
<rect width="280" height="44" fill="white" transform="translate(36 631)"/>
</clipPath>
<clipPath id="clip3_2541_59261">
<rect width="288.95" height="20" fill="white" transform="translate(19 15)"/>
</clipPath>
<clipPath id="clip4_2541_59261">
<rect width="43" height="20" fill="white" transform="translate(22 15)"/>
</clipPath>
</defs>
</svg>
