<svg width="40" height="40" viewBox="0 0 40 40" fill="none" xmlns="http://www.w3.org/2000/svg">
<rect width="40" height="40" rx="8" fill="#4285F4"/>
<path d="M29.5593 10.4961C29.4908 10.4208 29.4077 10.3603 29.3152 10.318C29.2226 10.2757 29.1224 10.2527 29.0207 10.2502C28.9189 10.2478 28.8178 10.266 28.7233 10.3037C28.6288 10.3415 28.5429 10.398 28.4708 10.4699L27.891 11.0469C27.8207 11.1172 27.7812 11.2126 27.7812 11.312C27.7812 11.4114 27.8207 11.5067 27.891 11.577L28.4226 12.1077C28.4574 12.1427 28.4988 12.1705 28.5444 12.1894C28.59 12.2084 28.6389 12.2181 28.6883 12.2181C28.7377 12.2181 28.7866 12.2084 28.8323 12.1894C28.8779 12.1705 28.9193 12.1427 28.9541 12.1077L29.5194 11.5452C29.8054 11.2597 29.8321 10.7947 29.5593 10.4961Z" fill="white"/>
<path d="M26.7191 12.2187L18.2572 20.6656C18.2059 20.7167 18.1686 20.7801 18.149 20.8498L17.7576 22.0156C17.7482 22.0472 17.7475 22.0808 17.7556 22.1128C17.7638 22.1448 17.7804 22.174 17.8037 22.1973C17.827 22.2206 17.8562 22.2372 17.8882 22.2453C17.9202 22.2535 17.9537 22.2528 17.9854 22.2434L19.1502 21.852C19.2199 21.8323 19.2833 21.795 19.3344 21.7437L27.7813 13.2809C27.8595 13.2019 27.9033 13.0953 27.9033 12.9842C27.9033 12.8731 27.8595 12.7665 27.7813 12.6875L27.3149 12.2187C27.2358 12.1399 27.1287 12.0956 27.017 12.0956C26.9053 12.0956 26.7982 12.1399 26.7191 12.2187Z" fill="white"/>
<path d="M26.1097 17.0778L20.3961 22.8027C20.1753 23.024 19.9039 23.1883 19.6053 23.2812L18.3912 23.6877C18.1031 23.769 17.7985 23.7721 17.5088 23.6965C17.2191 23.621 16.9548 23.4696 16.7431 23.2579C16.5314 23.0462 16.3799 22.7818 16.3044 22.4921C16.2288 22.2024 16.2319 21.8978 16.3133 21.6097L16.7197 20.3956C16.8124 20.0972 16.9763 19.8258 17.1973 19.6048L22.9222 13.8903C22.9747 13.8379 23.0104 13.7711 23.0249 13.6984C23.0394 13.6256 23.032 13.5502 23.0037 13.4817C22.9753 13.4131 22.9273 13.3545 22.8657 13.3133C22.804 13.2721 22.7315 13.25 22.6573 13.25H12.875C12.1788 13.25 11.5111 13.5266 11.0188 14.0188C10.5266 14.5111 10.25 15.1788 10.25 15.875V27.125C10.25 27.8212 10.5266 28.4889 11.0188 28.9812C11.5111 29.4734 12.1788 29.75 12.875 29.75H24.125C24.8212 29.75 25.4889 29.4734 25.9812 28.9812C26.4734 28.4889 26.75 27.8212 26.75 27.125V17.3427C26.75 17.2685 26.7279 17.196 26.6867 17.1343C26.6455 17.0727 26.5869 17.0247 26.5183 16.9963C26.4498 16.968 26.3744 16.9606 26.3016 16.9751C26.2289 16.9896 26.1621 17.0253 26.1097 17.0778Z" fill="white"/>
</svg>
