<svg width="28" height="28" viewBox="0 0 28 28" fill="none" xmlns="http://www.w3.org/2000/svg">
<circle cx="14" cy="14" r="14" fill="#4285F4"/>
<path d="M15.3611 7.88856C15.2951 7.56518 15.0106 7.33301 14.6806 7.33301H9.69444C9.31091 7.33301 9 7.64392 9 8.02745V18.4441C9 18.8277 9.31091 19.1386 9.69444 19.1386C10.078 19.1386 10.3889 18.8277 10.3889 18.4441V14.2775H14.2778L14.4444 15.1108C14.5075 15.436 14.7938 15.6697 15.125 15.6663H18.7222C19.1058 15.6663 19.4167 15.3554 19.4167 14.9719V9.41634C19.4167 9.03281 19.1058 8.7219 18.7222 8.7219H15.5278L15.3611 7.88856Z" fill="white"/>
</svg>
