<svg width="28" height="28" viewBox="0 0 28 28" fill="none" xmlns="http://www.w3.org/2000/svg">
<circle cx="14" cy="14" r="14" fill="#482FE9"/>
<path d="M14 12V14.5" stroke="white" stroke-width="1.25" stroke-linecap="round" stroke-linejoin="round"/>
<path d="M14 19C11.585 19 9.625 17.04 9.625 14.625C9.625 12.21 11.585 10.25 14 10.25C16.415 10.25 18.375 12.21 18.375 14.625" stroke="white" stroke-width="1.25" stroke-linecap="round" stroke-linejoin="round"/>
<path d="M12.5 9H15.5" stroke="white" stroke-width="1.25" stroke-miterlimit="10" stroke-linecap="round" stroke-linejoin="round"/>
<path d="M15.4492 17.2499V16.6699C15.4492 15.9549 15.9592 15.6599 16.5792 16.0199L17.0792 16.3099L17.5792 16.5999C18.1992 16.9599 18.1992 17.5449 17.5792 17.9049L17.0792 18.1949L16.5792 18.4849C15.9592 18.8449 15.4492 18.5499 15.4492 17.8349V17.2499Z" stroke="white" stroke-width="1.25" stroke-miterlimit="10" stroke-linecap="round" stroke-linejoin="round"/>
</svg>
