<svg width="28" height="28" viewBox="0 0 28 28" fill="none" xmlns="http://www.w3.org/2000/svg">
<circle cx="14" cy="14" r="14" fill="#FB532E"/>
<path d="M14 12V14.5" stroke="white" stroke-width="1.25" stroke-linecap="round" stroke-linejoin="round"/>
<path d="M14 19C11.585 19 9.625 17.04 9.625 14.625C9.625 12.21 11.585 10.25 14 10.25C16.415 10.25 18.375 12.21 18.375 14.625" stroke="white" stroke-width="1.25" stroke-linecap="round" stroke-linejoin="round"/>
<path d="M12.5 9H15.5" stroke="white" stroke-width="1.25" stroke-miterlimit="10" stroke-linecap="round" stroke-linejoin="round"/>
<path d="M18.4833 17.2767L18.3533 17.355L18.2717 17.405L18.1167 17.4967L15.7933 18.89L15.7783 18.8983L15.69 18.9517L15.5883 19.0133C15.5283 18.865 15.5 18.6783 15.5 18.45V17.55C15.5 16.8 15.8 16.5 16.55 16.5H17.45C18.1017 16.5 18.4133 16.7267 18.4833 17.2767Z" fill="white"/>
<path opacity="0.4" d="M18.4981 17.5332V18.4499C18.4981 19.1999 18.1981 19.4999 17.4481 19.4999H16.5481C16.1415 19.4999 15.8665 19.4115 15.7031 19.2099L15.7531 19.1799L15.8548 19.1182L15.9431 19.0649L15.9581 19.0565L18.2815 17.6632L18.4365 17.5715L18.4981 17.5332Z" fill="white"/>
</svg>
