<svg width="20" height="20" viewBox="0 0 20 20" fill="none" xmlns="http://www.w3.org/2000/svg">
<path d="M16.0923 8.33331H9.74619C8.96733 8.33331 8.33594 8.96471 8.33594 9.74357V16.0897C8.33594 16.8686 8.96733 17.5 9.74619 17.5H16.0923C16.8712 17.5 17.5026 16.8686 17.5026 16.0897V9.74357C17.5026 8.96471 16.8712 8.33331 16.0923 8.33331Z" stroke="#6B7280" stroke-width="1.5" stroke-linecap="round" stroke-linejoin="round"/>
<path d="M4.61538 11.6667H3.91026C3.53623 11.6667 3.17753 11.5181 2.91305 11.2536C2.64858 10.9891 2.5 10.6304 2.5 10.2564V3.91026C2.5 3.53623 2.64858 3.17753 2.91305 2.91305C3.17753 2.64858 3.53623 2.5 3.91026 2.5H10.2564C10.6304 2.5 10.9891 2.64858 11.2536 2.91305C11.5181 3.17753 11.6667 3.53623 11.6667 3.91026V4.61538" stroke="#6B7280" stroke-width="1.5" stroke-linecap="round" stroke-linejoin="round"/>
</svg>
