<svg width="311" height="235" viewBox="0 0 311 235" fill="none" xmlns="http://www.w3.org/2000/svg">
<g clip-path="url(#clip0_482_10865)">
<path d="M253.445 167.486H6.44937C4.7633 167.484 3.14684 166.813 1.95461 165.621C0.762379 164.429 0.0917493 162.812 0.0898438 161.126V8.82397C0.0912178 7.58873 0.58251 6.40448 1.45594 5.53102C2.32936 4.65756 3.51359 4.16622 4.74883 4.16479H255.065C256.322 4.16622 257.526 4.66604 258.415 5.55461C259.303 6.44317 259.803 7.6479 259.805 8.90451V161.126C259.803 162.812 259.132 164.429 257.94 165.621C256.748 166.813 255.131 167.484 253.445 167.486Z" fill="#F2F2F2"/>
<path d="M245.458 159.457H15.2642C11.8898 159.457 9.14453 156.886 9.14453 153.726V21.0991C9.14453 18.7557 11.1788 16.8491 13.6793 16.8491H246.967C249.509 16.8491 251.577 18.7872 251.577 21.1692V153.726C251.577 156.886 248.832 159.457 245.458 159.457Z" fill="white"/>
<path d="M259.715 9.61646H0V6.37872C0.00244501 4.68704 0.675814 3.06541 1.87238 1.86959C3.06895 0.673761 4.69099 0.00139761 6.38267 0H253.333C255.024 0.00139048 256.646 0.673754 257.843 1.86958C259.04 3.06541 259.713 4.68704 259.715 6.37872V9.61646Z" fill="#3F3D56"/>
<path d="M11.6002 6.46875C12.5119 6.46875 13.2511 5.7296 13.2511 4.81781C13.2511 3.90602 12.5119 3.16687 11.6002 3.16687C10.6884 3.16687 9.94922 3.90602 9.94922 4.81781C9.94922 5.7296 10.6884 6.46875 11.6002 6.46875Z" fill="white"/>
<path d="M17.8658 6.46875C18.7776 6.46875 19.5167 5.7296 19.5167 4.81781C19.5167 3.90602 18.7776 3.16687 17.8658 3.16687C16.954 3.16687 16.2148 3.90602 16.2148 4.81781C16.2148 5.7296 16.954 6.46875 17.8658 6.46875Z" fill="white"/>
<path d="M24.1334 6.46875C25.0451 6.46875 25.7843 5.7296 25.7843 4.81781C25.7843 3.90602 25.0451 3.16687 24.1334 3.16687C23.2216 3.16687 22.4824 3.90602 22.4824 4.81781C22.4824 5.7296 23.2216 6.46875 24.1334 6.46875Z" fill="white"/>
<path d="M74.1357 37.6814H33.4539C32.644 37.6812 31.842 37.8405 31.0937 38.1504C30.3454 38.4602 29.6655 38.9144 29.0928 39.4871C28.5202 40.0598 28.0659 40.7397 27.7561 41.488C27.4462 42.2363 27.2869 43.0383 27.2871 43.8482V71.5333C27.2869 72.3432 27.4462 73.1452 27.7561 73.8935C28.0659 74.6418 28.5202 75.3217 29.0928 75.8944C29.6655 76.4671 30.3454 76.9213 31.0937 77.2312C31.842 77.541 32.644 77.7004 33.4539 77.7001H74.1357C75.7712 77.6999 77.3396 77.0502 78.4961 75.8937C79.6525 74.7372 80.3023 73.1688 80.3025 71.5333V43.8482C80.3023 42.2127 79.6525 40.6443 78.4961 39.4878C77.3396 38.3314 75.7712 37.6816 74.1357 37.6814Z" fill="#4285F4"/>
<path d="M102.83 43.8467V71.5351C102.83 73.1707 103.48 74.7392 104.636 75.8957C105.793 77.0522 107.361 77.7019 108.997 77.7019H149.678C151.313 77.7019 152.882 77.0522 154.038 75.8957C155.195 74.7392 155.845 73.1707 155.845 71.5351V43.8467C155.845 42.2112 155.195 40.6426 154.038 39.4861C152.882 38.3296 151.313 37.6799 149.678 37.6799H108.997C107.361 37.6799 105.793 38.3296 104.636 39.4861C103.48 40.6426 102.83 42.2112 102.83 43.8467Z" fill="#4285F4"/>
<path d="M178.373 43.8467V71.5351C178.373 73.1707 179.023 74.7392 180.179 75.8957C181.336 77.0522 182.904 77.7019 184.54 77.7019H225.221C226.856 77.7019 228.425 77.0522 229.581 75.8957C230.738 74.7392 231.388 73.1707 231.388 71.5351V43.8467C231.388 42.2112 230.738 40.6426 229.581 39.4861C228.425 38.3296 226.856 37.6799 225.221 37.6799H184.54C182.904 37.6799 181.336 38.3296 180.179 39.4861C179.023 40.6426 178.373 42.2112 178.373 43.8467Z" fill="#E6E6E6"/>
<path d="M27.2871 105.129V132.818C27.2871 134.453 27.9368 136.022 29.0933 137.178C30.2498 138.335 31.8184 138.985 33.4539 138.985H74.1348C75.7703 138.985 77.3389 138.335 78.4954 137.178C79.6519 136.022 80.3016 134.453 80.3016 132.818V105.129C80.3016 103.494 79.6519 101.925 78.4954 100.769C77.3389 99.6122 75.7703 98.9625 74.1348 98.9625H33.4539C31.8184 98.9625 30.2498 99.6122 29.0933 100.769C27.9368 101.925 27.2871 103.494 27.2871 105.129Z" fill="#E6E6E6"/>
<path d="M102.83 105.129V132.818C102.83 134.453 103.48 136.022 104.636 137.178C105.793 138.335 107.361 138.985 108.997 138.985H149.678C151.313 138.985 152.882 138.335 154.038 137.178C155.195 136.022 155.845 134.453 155.845 132.818V105.129C155.845 103.494 155.195 101.925 154.038 100.769C152.882 99.6122 151.313 98.9625 149.678 98.9625H108.997C107.361 98.9625 105.793 99.6122 104.636 100.769C103.48 101.925 102.83 103.494 102.83 105.129Z" fill="#E6E6E6"/>
<path d="M178.373 105.129V132.818C178.373 134.453 179.023 136.022 180.179 137.178C181.336 138.335 182.904 138.985 184.54 138.985H225.221C226.856 138.985 228.425 138.335 229.581 137.178C230.738 136.022 231.388 134.453 231.388 132.818V105.129C231.388 103.494 230.738 101.925 229.581 100.769C228.425 99.6122 226.856 98.9625 225.221 98.9625H184.54C182.904 98.9625 181.336 99.6122 180.179 100.769C179.023 101.925 178.373 103.494 178.373 105.129Z" fill="#4285F4"/>
<path d="M53.7938 66.1703C58.4768 66.1703 62.2732 62.3739 62.2732 57.6909C62.2732 53.0079 58.4768 49.2115 53.7938 49.2115C49.1108 49.2115 45.3145 53.0079 45.3145 57.6909C45.3145 62.3739 49.1108 66.1703 53.7938 66.1703Z" fill="white"/>
<path d="M66.7519 78.4709H40.8359C41.4414 77.3025 42.2226 76.234 43.1523 75.3027C44.3319 74.1204 45.7336 73.1828 47.2767 72.5438C48.8199 71.9049 50.4741 71.5771 52.1443 71.5795H55.4435C57.7796 71.5784 60.0709 72.221 62.0657 73.4367C64.0606 74.6524 65.682 76.3942 66.7519 78.4709Z" fill="white"/>
<path d="M129.337 66.1703C134.02 66.1703 137.816 62.3739 137.816 57.6909C137.816 53.0079 134.02 49.2115 129.337 49.2115C124.654 49.2115 120.857 53.0079 120.857 57.6909C120.857 62.3739 124.654 66.1703 129.337 66.1703Z" fill="white"/>
<path d="M142.295 78.4709H116.379C116.984 77.3025 117.766 76.234 118.695 75.3027C119.875 74.1204 121.277 73.1828 122.82 72.5438C124.363 71.9049 126.017 71.5771 127.687 71.5795H130.987C133.323 71.5784 135.614 72.221 137.609 73.4367C139.604 74.6524 141.225 76.3942 142.295 78.4709Z" fill="white"/>
<path d="M204.882 66.1703C209.565 66.1703 213.361 62.3739 213.361 57.6909C213.361 53.0079 209.565 49.2115 204.882 49.2115C200.199 49.2115 196.402 53.0079 196.402 57.6909C196.402 62.3739 200.199 66.1703 204.882 66.1703Z" fill="white"/>
<path d="M217.838 78.4709H191.922C192.527 77.3025 193.309 76.234 194.238 75.3027C195.418 74.1204 196.82 73.1828 198.363 72.5438C199.906 71.9049 201.56 71.5771 203.23 71.5795H206.529C208.866 71.5784 211.157 72.221 213.152 73.4367C215.147 74.6524 216.768 76.3942 217.838 78.4709Z" fill="white"/>
<path d="M53.7938 127.453C58.4768 127.453 62.2732 123.657 62.2732 118.974C62.2732 114.291 58.4768 110.494 53.7938 110.494C49.1108 110.494 45.3145 114.291 45.3145 118.974C45.3145 123.657 49.1108 127.453 53.7938 127.453Z" fill="white"/>
<path d="M66.7519 139.754H40.8359C41.4414 138.585 42.2226 137.517 43.1523 136.585C44.3319 135.403 45.7336 134.465 47.2767 133.827C48.8199 133.188 50.4741 132.86 52.1443 132.862H55.4435C57.7796 132.861 60.0709 133.504 62.0657 134.719C64.0606 135.935 65.682 137.677 66.7519 139.754Z" fill="white"/>
<path d="M129.337 127.453C134.02 127.453 137.816 123.657 137.816 118.974C137.816 114.291 134.02 110.494 129.337 110.494C124.654 110.494 120.857 114.291 120.857 118.974C120.857 123.657 124.654 127.453 129.337 127.453Z" fill="white"/>
<path d="M142.295 139.754H116.379C116.984 138.585 117.766 137.517 118.695 136.585C119.875 135.403 121.277 134.465 122.82 133.827C124.363 133.188 126.017 132.86 127.687 132.862H130.987C133.323 132.861 135.614 133.504 137.609 134.719C139.604 135.935 141.225 137.677 142.295 139.754Z" fill="white"/>
<path d="M204.882 127.453C209.565 127.453 213.361 123.657 213.361 118.974C213.361 114.291 209.565 110.494 204.882 110.494C200.199 110.494 196.402 114.291 196.402 118.974C196.402 123.657 200.199 127.453 204.882 127.453Z" fill="white"/>
<path d="M217.838 139.754H191.922C192.527 138.585 193.309 137.517 194.238 136.585C195.418 135.403 196.82 134.465 198.363 133.827C199.906 133.188 201.56 132.86 203.23 132.862H206.529C208.866 132.861 211.157 133.504 213.152 134.719C215.147 135.935 216.768 137.677 217.838 139.754Z" fill="white"/>
</g>
<defs>
<clipPath id="clip0_482_10865">
<rect width="310.656" height="235" fill="white"/>
</clipPath>
</defs>
</svg>
