<svg width="422" height="130" viewBox="0 0 422 130" fill="none" xmlns="http://www.w3.org/2000/svg">
<rect width="422" height="130" rx="10" fill="white"/>
<path d="M20.0107 27.1193C19.4254 27.1193 18.9027 27.0185 18.4425 26.8168C17.9851 26.6151 17.6229 26.3352 17.3558 25.9773C17.0916 25.6165 16.9496 25.1989 16.9297 24.7244H18.2678C18.2848 24.983 18.3714 25.2074 18.5277 25.3977C18.6868 25.5852 18.8942 25.7301 19.1499 25.8324C19.4055 25.9347 19.6896 25.9858 20.0021 25.9858C20.3459 25.9858 20.6499 25.9261 20.9141 25.8068C21.1811 25.6875 21.3899 25.5213 21.5405 25.3082C21.6911 25.0923 21.7663 24.8438 21.7663 24.5625C21.7663 24.2699 21.6911 24.0128 21.5405 23.7912C21.3928 23.5668 21.1754 23.3906 20.8885 23.2628C20.6044 23.1349 20.2607 23.071 19.8572 23.071H19.12V21.9972H19.8572C20.1811 21.9972 20.4652 21.9389 20.7095 21.8224C20.9567 21.706 21.1499 21.544 21.2891 21.3366C21.4283 21.1264 21.4979 20.8807 21.4979 20.5994C21.4979 20.3295 21.4368 20.0952 21.3146 19.8963C21.1953 19.6946 21.0249 19.5369 20.8033 19.4233C20.5845 19.3097 20.326 19.2528 20.0277 19.2528C19.7436 19.2528 19.478 19.3054 19.2308 19.4105C18.9865 19.5128 18.7876 19.6605 18.6342 19.8537C18.4808 20.044 18.3984 20.2727 18.3871 20.5398H17.1129C17.1271 20.0682 17.2663 19.6534 17.5305 19.2955C17.7976 18.9375 18.1499 18.6577 18.5874 18.456C19.0249 18.2543 19.5107 18.1534 20.0447 18.1534C20.6044 18.1534 21.0874 18.2628 21.4936 18.4815C21.9027 18.6974 22.218 18.9858 22.4396 19.3466C22.6641 19.7074 22.7749 20.1023 22.772 20.5312C22.7749 21.0199 22.6385 21.4347 22.3629 21.7756C22.0902 22.1165 21.7266 22.3452 21.272 22.4616V22.5298C21.8516 22.6179 22.3004 22.848 22.6186 23.2202C22.9396 23.5923 23.0987 24.054 23.0959 24.6051C23.0987 25.0852 22.9652 25.5156 22.6953 25.8963C22.4283 26.277 22.0632 26.5767 21.6001 26.7955C21.1371 27.0114 20.6072 27.1193 20.0107 27.1193Z" fill="#141522"/>
<path d="M17.1598 61V60.0455L20.1129 56.9858C20.4283 56.6534 20.6882 56.3622 20.8928 56.1122C21.1001 55.8594 21.255 55.6193 21.3572 55.392C21.4595 55.1648 21.5107 54.9233 21.5107 54.6676C21.5107 54.3778 21.4425 54.1278 21.3061 53.9176C21.1697 53.7045 20.9837 53.5412 20.7479 53.4276C20.5121 53.3111 20.2464 53.2528 19.951 53.2528C19.6385 53.2528 19.3658 53.3168 19.1328 53.4446C18.8999 53.5724 18.7209 53.7528 18.5959 53.9858C18.4709 54.2187 18.4084 54.4915 18.4084 54.804H17.1513C17.1513 54.2727 17.2734 53.8082 17.5178 53.4105C17.7621 53.0128 18.0973 52.7045 18.5234 52.4858C18.9496 52.2642 19.4339 52.1534 19.9766 52.1534C20.5249 52.1534 21.0078 52.2628 21.4254 52.4815C21.8459 52.6974 22.174 52.9929 22.4098 53.3679C22.6456 53.7401 22.7635 54.1605 22.7635 54.6293C22.7635 54.9531 22.7024 55.2699 22.5803 55.5795C22.4609 55.8892 22.2521 56.2344 21.9538 56.6151C21.6555 56.9929 21.2408 57.4517 20.7095 57.9915L18.9751 59.8068V59.8707H22.9041V61H17.1598Z" fill="#141522"/>
<path d="M21.3146 86.2727V95H19.9936V87.5938H19.9425L17.8544 88.9574V87.696L20.032 86.2727H21.3146Z" fill="#141522"/>
<line x1="44.5" y1="16" x2="44.5" y2="96" stroke="#F5F5F7"/>
<path d="M45.7188 109.565C45.6733 109.162 45.4858 108.849 45.1562 108.628C44.8267 108.403 44.4119 108.291 43.9119 108.291C43.554 108.291 43.2443 108.348 42.983 108.462C42.7216 108.572 42.5185 108.726 42.3736 108.922C42.2315 109.115 42.1605 109.335 42.1605 109.582C42.1605 109.79 42.2088 109.969 42.3054 110.119C42.4048 110.27 42.5341 110.396 42.6932 110.499C42.8551 110.598 43.0284 110.682 43.2131 110.75C43.3977 110.815 43.5753 110.869 43.7457 110.912L44.598 111.134C44.8764 111.202 45.1619 111.294 45.4545 111.411C45.7472 111.527 46.0185 111.68 46.2685 111.871C46.5185 112.061 46.7202 112.297 46.8736 112.578C47.0298 112.859 47.108 113.196 47.108 113.588C47.108 114.082 46.9801 114.521 46.7244 114.905C46.4716 115.288 46.1037 115.591 45.6207 115.812C45.1406 116.034 44.5597 116.145 43.8778 116.145C43.2244 116.145 42.6591 116.041 42.1818 115.834C41.7045 115.626 41.331 115.332 41.0611 114.952C40.7912 114.568 40.642 114.114 40.6136 113.588H41.9347C41.9602 113.903 42.0625 114.166 42.2415 114.376C42.4233 114.584 42.6548 114.739 42.9361 114.841C43.2202 114.94 43.5312 114.99 43.8693 114.99C44.2415 114.99 44.5724 114.932 44.8622 114.815C45.1548 114.696 45.3849 114.531 45.5526 114.321C45.7202 114.108 45.804 113.859 45.804 113.575C45.804 113.317 45.7301 113.105 45.5824 112.94C45.4375 112.776 45.2401 112.639 44.9901 112.531C44.7429 112.423 44.4631 112.328 44.1506 112.246L43.1193 111.964C42.4205 111.774 41.8665 111.494 41.4574 111.125C41.0511 110.756 40.848 110.267 40.848 109.659C40.848 109.156 40.9844 108.717 41.2571 108.342C41.5298 107.967 41.8991 107.676 42.3651 107.469C42.831 107.259 43.3565 107.153 43.9418 107.153C44.5327 107.153 45.054 107.257 45.5057 107.464C45.9602 107.672 46.3182 107.957 46.5795 108.321C46.8409 108.682 46.9773 109.097 46.9886 109.565H45.7188Z" fill="#141522"/>
<line x1="105" y1="16" x2="105" y2="96" stroke="#F5F5F7"/>
<path d="M99.9588 107.273H101.557L104.335 114.057H104.438L107.216 107.273H108.814V116H107.561V109.685H107.48L104.906 115.987H103.866L101.293 109.68H101.212V116H99.9588V107.273Z" fill="#141522"/>
<line x1="165.5" y1="16" x2="165.5" y2="96" stroke="#F5F5F7"/>
<path d="M161.528 108.406V107.273H168.283V108.406H165.56V116H164.247V108.406H161.528Z" fill="#141522"/>
<line x1="226.5" y1="16" x2="226.5" y2="96" stroke="#F5F5F7"/>
<path d="M222.668 116L220.247 107.273H221.632L223.332 114.031H223.413L225.182 107.273H226.554L228.322 114.036H228.403L230.099 107.273H231.489L229.064 116H227.739L225.902 109.463H225.834L223.997 116H222.668Z" fill="#141522"/>
<line x1="287.5" y1="16" x2="287.5" y2="96" stroke="#F5F5F7"/>
<path d="M283.528 108.406V107.273H290.283V108.406H287.56V116H286.247V108.406H283.528Z" fill="#141522"/>
<line x1="346.5" y1="16" x2="346.5" y2="96" stroke="#F5F5F7"/>
<path d="M342.959 116V107.273H348.371V108.406H344.276V111.065H347.983V112.195H344.276V116H342.959Z" fill="#141522"/>
<line x1="405.5" y1="16" x2="405.5" y2="96" stroke="#F5F5F7"/>
<path d="M406.719 109.565C406.673 109.162 406.486 108.849 406.156 108.628C405.827 108.403 405.412 108.291 404.912 108.291C404.554 108.291 404.244 108.348 403.983 108.462C403.722 108.572 403.518 108.726 403.374 108.922C403.232 109.115 403.161 109.335 403.161 109.582C403.161 109.79 403.209 109.969 403.305 110.119C403.405 110.27 403.534 110.396 403.693 110.499C403.855 110.598 404.028 110.682 404.213 110.75C404.398 110.815 404.575 110.869 404.746 110.912L405.598 111.134C405.876 111.202 406.162 111.294 406.455 111.411C406.747 111.527 407.018 111.68 407.268 111.871C407.518 112.061 407.72 112.297 407.874 112.578C408.03 112.859 408.108 113.196 408.108 113.588C408.108 114.082 407.98 114.521 407.724 114.905C407.472 115.288 407.104 115.591 406.621 115.812C406.141 116.034 405.56 116.145 404.878 116.145C404.224 116.145 403.659 116.041 403.182 115.834C402.705 115.626 402.331 115.332 402.061 114.952C401.791 114.568 401.642 114.114 401.614 113.588H402.935C402.96 113.903 403.063 114.166 403.241 114.376C403.423 114.584 403.655 114.739 403.936 114.841C404.22 114.94 404.531 114.99 404.869 114.99C405.241 114.99 405.572 114.932 405.862 114.815C406.155 114.696 406.385 114.531 406.553 114.321C406.72 114.108 406.804 113.859 406.804 113.575C406.804 113.317 406.73 113.105 406.582 112.94C406.438 112.776 406.24 112.639 405.99 112.531C405.743 112.423 405.463 112.328 405.151 112.246L404.119 111.964C403.42 111.774 402.866 111.494 402.457 111.125C402.051 110.756 401.848 110.267 401.848 109.659C401.848 109.156 401.984 108.717 402.257 108.342C402.53 107.967 402.899 107.676 403.365 107.469C403.831 107.259 404.357 107.153 404.942 107.153C405.533 107.153 406.054 107.257 406.506 107.464C406.96 107.672 407.318 107.957 407.58 108.321C407.841 108.682 407.977 109.097 407.989 109.565H406.719Z" fill="#141522"/>
<path d="M44 105L88.5556 81.1899C97.1341 76.6056 107.403 76.4648 116.104 80.8121L146.901 96.1997C157.595 101.543 170.44 100.027 179.596 92.3418L208.389 68.1759C218.437 59.7419 232.801 58.8153 243.85 65.8884L271.53 83.6082C280.517 89.3609 291.882 89.9076 301.379 85.0439L335.692 67.4713C341.273 64.6133 347.609 63.5756 353.81 64.5042L402 71.7203" stroke="#ECF3FE" stroke-width="3" stroke-linecap="round"/>
<path d="M44 96.5323L87.075 68.9568C97.8587 62.0533 111.835 62.755 121.874 70.7037L141.703 86.4056C154.678 96.6798 173.522 94.5059 183.816 81.5474L204.794 55.1414C215.599 41.5411 235.66 39.9306 248.496 51.633L270.418 71.6201C279.45 79.8537 292.572 81.7861 303.593 76.5055L335.3 61.3134C340.601 58.7734 346.532 57.8468 352.355 58.6486L402 65.4839" stroke="#141522" stroke-width="3" stroke-linecap="round"/>
</svg>
