<svg width="40" height="41" viewBox="0 0 40 41" fill="none" xmlns="http://www.w3.org/2000/svg">
<rect y="0.375" width="40" height="40" rx="8" fill="#4285F4"/>
<path fill-rule="evenodd" clip-rule="evenodd" d="M14 13C14 11.3431 15.3431 10 17 10H27C28.6569 10 30 11.3431 30 13V23C30 24.6569 28.6569 26 27 26H26V27C26 28.6569 24.6569 30 23 30H13C11.3431 30 10 28.6569 10 27V17C10 15.3431 11.3431 14 13 14H14V13ZM25.2682 15.0365C24.9322 14.9433 24.557 15.0287 24.2929 15.2929L21 18.5858L19.7071 17.2929C19.3166 16.9024 18.6834 16.9024 18.2929 17.2929C17.9024 17.6834 17.9024 18.3166 18.2929 18.7071L20.2929 20.7071C20.6834 21.0976 21.3166 21.0976 21.7071 20.7071L25.7071 16.7071C25.8047 16.6095 25.878 16.4967 25.9268 16.3763C25.9286 16.3718 25.9304 16.3673 25.9322 16.3627C26.0714 16.0044 25.9963 15.5821 25.7071 15.2929C25.5807 15.1665 25.429 15.081 25.2682 15.0365ZM24 26H17C15.3431 26 14 24.6569 14 23V16H13C12.4477 16 12 16.4477 12 17V27C12 27.5523 12.4477 28 13 28H23C23.5523 28 24 27.5523 24 27V26Z" fill="white"/>
</svg>
