<svg width="40" height="41" viewBox="0 0 40 41" fill="none" xmlns="http://www.w3.org/2000/svg">
<rect y="0.375" width="40" height="40" rx="8" fill="#34A770"/>
<path d="M22.7295 10H17.2695V14.36H22.7295V10Z" fill="white"/>
<path d="M24.2305 10V14.36H29.8705C29.3605 11.61 27.3305 10.01 24.2305 10Z" fill="white"/>
<path d="M10 15.8594V24.1894C10 27.8294 12.17 29.9994 15.81 29.9994H24.19C27.83 29.9994 30 27.8294 30 24.1894V15.8594H10ZM22.44 24.1794L20.36 25.3794C19.92 25.6294 19.49 25.7594 19.09 25.7594C18.79 25.7594 18.52 25.6894 18.27 25.5494C17.69 25.2194 17.37 24.5394 17.37 23.6594V21.2594C17.37 20.3794 17.69 19.6994 18.27 19.3694C18.85 19.0294 19.59 19.0894 20.36 19.5394L22.44 20.7394C23.21 21.1794 23.63 21.7994 23.63 22.4694C23.63 23.1394 23.2 23.7294 22.44 24.1794Z" fill="white"/>
<path d="M15.7689 10C12.6689 10.01 10.6389 11.61 10.1289 14.36H15.7689V10Z" fill="white"/>
</svg>
