<svg width="174" height="104" viewBox="0 0 174 104" fill="none" xmlns="http://www.w3.org/2000/svg">
<g clip-path="url(#clip0_2152_25414)">
<path d="M78.0268 102.148C76.7272 102.147 75.4488 102.479 74.3125 103.112H81.7315C80.5986 102.479 79.3233 102.147 78.0268 102.148Z" fill="#E6E6E6"/>
<path d="M92.4261 101.185C90.2553 101.182 88.1371 101.855 86.3633 103.111H98.4808C96.7093 101.856 94.5942 101.184 92.4261 101.185Z" fill="#E6E6E6"/>
<path d="M173.975 88.9932C173.432 79.1293 165.535 71.087 155.713 70.4129C151.186 70.0936 146.688 71.3545 142.981 73.982C139.274 76.6094 136.586 80.442 135.372 84.8305C135.133 84.8219 134.895 84.8123 134.655 84.8123C130.404 84.813 126.268 86.1949 122.865 88.7512C119.462 91.3075 116.975 94.9007 115.777 98.9933C112.96 97.7514 109.812 97.4819 106.827 98.2272C103.841 98.9724 101.186 100.69 99.2773 103.112H160.651C168.191 103.112 174.296 96.8446 173.988 89.2844C173.985 89.1875 173.98 89.0904 173.975 88.9932Z" fill="#E6E6E6"/>
<path d="M172.381 102.907H0V103.315H172.381V102.907Z" fill="#3F3D56"/>
<path d="M57.5296 36.7235C57.5296 36.7235 49.7055 34.2778 50.9066 38.3016C52.1077 42.3254 58.6979 40.2929 58.6979 40.2929L57.5296 36.7235Z" fill="#FFB8B8"/>
<path d="M87.4397 21.6211C87.4397 21.6211 83.4299 16.1226 79.5343 21.8308C75.631 27.5502 72.0019 32.2455 72.0019 32.2455L62.3077 35.4174L56.6992 35.9168L58.2442 40.9205L74.5511 38.5466C74.5511 38.5466 92.7057 27.7246 87.4397 21.6211Z" fill="#2F2E41"/>
<path d="M69.5405 52.0713C69.5405 52.0713 63.4493 56.3501 63.8554 60.2213C64.2615 64.0926 66.901 74.6877 66.901 74.6877L72.3831 73.8726C72.3831 73.8726 72.9922 65.7226 70.9618 62.6663L80.7077 57.1651L69.5405 52.0713Z" fill="#FFB8B8"/>
<path d="M83.0451 62.1572C83.0451 62.1572 82.639 69.696 83.6542 72.7523C84.6694 75.8085 85.6846 87.2186 85.6846 87.2186H91.3697C91.3697 87.2186 94.0092 77.2348 90.7606 72.7523C90.7606 72.7523 89.7454 66.8435 92.5879 63.991L83.0451 62.1572Z" fill="#FFB8B8"/>
<path d="M81.7249 41.2726C81.7249 41.2726 68.5273 49.6264 68.5273 52.2751L79.0854 61.0364L82.7401 56.9614L82.3341 63.0739L93.7043 65.3152C93.7043 65.3152 97.7651 49.8301 97.5621 49.2189C97.359 48.6076 96.7499 39.6426 96.7499 39.6426L81.7249 41.2726Z" fill="#2F2E41"/>
<path d="M72.3843 72.8545L66.4961 74.077L67.5423 78.3929C68.0572 80.5172 68.1158 82.7271 67.7143 84.8758C67.7143 84.8758 73.8055 86.5058 73.8055 85.6908C73.8055 84.8758 72.3843 81.6158 72.7903 79.3745C73.1964 77.1333 72.3843 72.8545 72.3843 72.8545Z" fill="#4285F4"/>
<path d="M75.4312 88.1357C75.2281 87.3207 73.5412 83.6256 73.471 84.2506C73.4008 84.8757 70.1521 85.8945 68.9339 84.672C68.9339 84.672 67.3096 83.2457 66.7005 84.672C66.0913 86.0982 64.8731 88.5432 64.8731 88.5432C64.8731 88.5432 59.391 91.192 60.2032 92.6183C60.3674 92.9067 60.8225 93.0284 61.4439 93.0391C61.4293 93.0768 61.4217 93.1169 61.4214 93.1573V93.3017C61.4214 93.3906 61.4566 93.4759 61.5193 93.5388C61.582 93.6017 61.6669 93.637 61.7556 93.637H61.8994C61.9881 93.637 62.073 93.6017 62.1357 93.5388C62.1984 93.4759 62.2336 93.3906 62.2336 93.3017V93.1573C62.2333 93.1053 62.2208 93.0541 62.1971 93.0079C62.3631 92.9933 62.5354 92.974 62.7125 92.9506C62.6656 93.0093 62.6399 93.0821 62.6397 93.1573V93.3017C62.6397 93.3906 62.6749 93.4759 62.7375 93.5388C62.8002 93.6017 62.8852 93.637 62.9738 93.637H63.1177C63.2063 93.637 63.2913 93.6017 63.3539 93.5388C63.4166 93.4759 63.4518 93.3906 63.4518 93.3017V93.1573C63.4517 93.0976 63.4356 93.039 63.4052 92.9877C63.3748 92.9363 63.3312 92.8941 63.279 92.8654C63.7463 92.7871 64.2341 92.6876 64.7191 92.5772C64.6873 92.6291 64.6703 92.6888 64.6701 92.7498V92.8942C64.6701 92.9831 64.7053 93.0684 64.7679 93.1313C64.8306 93.1942 64.9156 93.2295 65.0042 93.2295H65.1481C65.2367 93.2295 65.3217 93.1942 65.3843 93.1313C65.447 93.0684 65.4822 92.9831 65.4822 92.8942V92.7498C65.4822 92.685 65.4634 92.6216 65.4281 92.5673C65.3928 92.513 65.3426 92.4701 65.2836 92.4438C65.6473 92.3549 66.0039 92.2621 66.3432 92.1701C66.3115 92.2219 66.2946 92.2815 66.2944 92.3423V92.4867C66.2944 92.5756 66.3296 92.6609 66.3923 92.7238C66.4549 92.7867 66.5399 92.822 66.6285 92.822H66.7724C66.861 92.822 66.946 92.7867 67.0087 92.7238C67.0713 92.6609 67.1065 92.5756 67.1065 92.4867V92.3423C67.1064 92.271 67.0835 92.2016 67.0412 92.1443C66.9989 92.087 66.9395 92.0447 66.8716 92.0238C68.064 91.6867 68.9339 91.3958 68.9339 91.3958C68.9339 91.3958 69.9441 91.0269 71.1673 90.5285V90.6529C71.1673 90.7419 71.2025 90.8272 71.2652 90.8901C71.3279 90.9529 71.4129 90.9883 71.5015 90.9883H71.6454C71.734 90.9883 71.819 90.9529 71.8816 90.8901C71.9443 90.8272 71.9795 90.7419 71.9795 90.6529V90.5086C71.9794 90.4577 71.9677 90.4076 71.9453 90.362C71.9229 90.3164 71.8904 90.2766 71.8503 90.2455C72.0959 90.1419 72.3436 90.0354 72.5886 89.9271V90.0417C72.5886 90.1306 72.6238 90.2159 72.6865 90.2788C72.7491 90.3417 72.8341 90.377 72.9228 90.377H73.0666C73.1553 90.377 73.2403 90.3417 73.3029 90.2788C73.3656 90.2159 73.4008 90.1306 73.4008 90.0417V89.8973C73.4008 89.8434 73.3877 89.7902 73.3628 89.7424C73.3379 89.6947 73.3019 89.6536 73.2578 89.6228C73.5227 89.4988 73.7779 89.3749 74.0132 89.2535C74.0121 89.2644 74.0099 89.2749 74.0099 89.286V89.4304C74.0099 89.5194 74.0451 89.6047 74.1078 89.6675C74.1704 89.7304 74.2554 89.7658 74.344 89.7658H74.4879C74.5765 89.7658 74.6615 89.7304 74.7242 89.6675C74.7869 89.6047 74.8221 89.5194 74.8221 89.4304V89.286C74.822 89.2088 74.7954 89.1338 74.7467 89.074C74.698 89.0141 74.6301 88.973 74.5547 88.9575C75.1224 88.6267 75.4804 88.3332 75.4312 88.1357Z" fill="#2F2E41"/>
<path d="M91.7743 86.302L85.342 85.8945C85.342 85.8945 85.7318 92.6183 84.9521 94.8596C84.1725 97.1008 84.5623 97.9158 84.5623 97.9158L90.2149 98.3233L91.7743 86.302Z" fill="#4285F4"/>
<path d="M91.8545 101.162C91.8252 100.323 90.9431 96.3556 90.7446 96.9523C90.5461 97.5489 87.1571 97.8656 86.2197 96.415C86.2197 96.415 84.9274 94.6802 84.0353 95.9477C83.1432 97.2152 81.4438 99.3515 81.4438 99.3515C81.4438 99.3515 75.5318 100.795 76.0298 102.36C76.1305 102.676 76.5503 102.891 77.1558 103.031C77.1337 103.065 77.1179 103.102 77.1092 103.142L77.0792 103.283C77.0608 103.37 77.0775 103.461 77.1257 103.536C77.1739 103.61 77.2497 103.663 77.3364 103.681L77.4771 103.711C77.5637 103.73 77.6542 103.713 77.7286 103.665C77.8029 103.616 77.8551 103.54 77.8735 103.453L77.9036 103.312C77.914 103.261 77.9124 103.208 77.8989 103.158C78.0643 103.179 78.2368 103.196 78.4149 103.21C78.3569 103.257 78.3166 103.323 78.3007 103.397L78.2707 103.538C78.2522 103.625 78.2689 103.716 78.3172 103.79C78.3654 103.865 78.4412 103.917 78.5278 103.936L78.6685 103.966C78.7552 103.985 78.8457 103.968 78.92 103.919C78.9944 103.871 79.0465 103.795 79.065 103.708L79.095 103.567C79.1073 103.508 79.1037 103.448 79.0846 103.391C79.0656 103.335 79.0317 103.284 78.9866 103.245C79.46 103.266 79.9577 103.271 80.455 103.265C80.413 103.309 80.3841 103.364 80.3711 103.423L80.3411 103.564C80.3227 103.651 80.3394 103.742 80.3876 103.817C80.4358 103.891 80.5116 103.944 80.5983 103.962L80.739 103.992C80.8256 104.011 80.9161 103.994 80.9905 103.946C81.0648 103.897 81.117 103.821 81.1354 103.734L81.1654 103.593C81.1789 103.53 81.1736 103.464 81.1504 103.403C81.1272 103.343 81.087 103.29 81.0347 103.252C81.409 103.241 81.777 103.225 82.128 103.206C82.0862 103.25 82.0573 103.305 82.0444 103.364L82.0144 103.506C81.9959 103.593 82.0126 103.683 82.0609 103.758C82.1091 103.833 82.1849 103.885 82.2715 103.904L82.4122 103.934C82.4989 103.952 82.5894 103.935 82.6637 103.887C82.7381 103.839 82.7902 103.763 82.8087 103.676L82.8387 103.534C82.8534 103.465 82.8454 103.392 82.816 103.327C82.7865 103.262 82.7372 103.208 82.6751 103.174C83.9113 103.094 84.8226 102.991 84.8226 102.991C84.8226 102.991 85.8873 102.842 87.1871 102.61L87.1613 102.732C87.1428 102.819 87.1595 102.91 87.2077 102.984C87.2559 103.059 87.3317 103.111 87.4184 103.13L87.5591 103.16C87.6458 103.178 87.7362 103.162 87.8106 103.113C87.885 103.065 87.9371 102.989 87.9556 102.902L87.9856 102.761C87.996 102.711 87.995 102.659 87.9825 102.61C87.9701 102.561 87.9466 102.515 87.9138 102.476C88.1756 102.426 88.44 102.374 88.7021 102.319L88.6783 102.431C88.6598 102.518 88.6765 102.609 88.7248 102.684C88.773 102.758 88.8488 102.811 88.9354 102.829L89.0761 102.859C89.1628 102.878 89.2533 102.861 89.3276 102.813C89.402 102.764 89.4541 102.688 89.4726 102.601L89.5026 102.46C89.5138 102.407 89.5121 102.353 89.4977 102.301C89.4833 102.249 89.4565 102.201 89.4198 102.162C89.7047 102.096 89.98 102.028 90.2353 101.959C90.232 101.969 90.2277 101.979 90.2254 101.99L90.1954 102.131C90.1769 102.218 90.1936 102.309 90.2418 102.383C90.29 102.458 90.3658 102.51 90.4525 102.529L90.5932 102.559C90.6799 102.577 90.7703 102.561 90.8447 102.512C90.919 102.464 90.9712 102.388 90.9897 102.301L91.0197 102.16C91.0357 102.084 91.0252 102.005 90.99 101.936C90.9548 101.868 90.897 101.813 90.8264 101.782C91.4504 101.578 91.8615 101.366 91.8545 101.162Z" fill="#2F2E41"/>
<path d="M81.7241 14.7853C84.976 14.7853 87.6123 12.1399 87.6123 8.87655C87.6123 5.61322 84.976 2.96777 81.7241 2.96777C78.4722 2.96777 75.8359 5.61322 75.8359 8.87655C75.8359 12.1399 78.4722 14.7853 81.7241 14.7853Z" fill="#FFB8B8"/>
<path d="M87.0036 8.26562C87.0036 8.26562 90.2523 12.3406 91.8766 12.1369L84.7702 17.6382C84.7702 17.6382 83.958 14.1744 82.9428 13.7669C81.9276 13.3594 87.0036 8.26562 87.0036 8.26562Z" fill="#FFB8B8"/>
<path d="M99.6938 38.5218C99.6938 38.5218 99.6934 16.0387 95.9349 14.1019C92.1787 12.1663 89.694 11.0615 89.694 11.0615C89.6387 11.7992 89.4297 12.5171 89.0807 13.1688C88.7317 13.8204 88.2503 14.3913 87.6676 14.8446C86.4222 15.8095 85.1813 16.6096 84.4882 16.6121L84.4658 16.5167L84.3813 16.2745L82.3339 19.4711C82.3339 19.4711 80.5066 19.8786 79.8974 21.1011C79.5679 21.7625 81.1219 28.4205 80.202 34.4468C79.4216 39.5597 76.1329 44.1751 76.0397 44.7363C75.8821 45.6848 79.8792 43.1996 81.6792 42.0378C81.7058 42.0676 81.7248 42.0875 81.7248 42.0875C81.7248 42.0875 80.7096 42.495 82.74 41.8837C83.8904 41.5374 85.4967 41.5182 86.6733 41.5665C86.6719 41.9205 86.6802 42.2018 86.6993 42.3931C86.9023 44.4306 97.0543 47.2831 98.4756 46.6719C99.8969 46.0606 99.6938 38.5218 99.6938 38.5218Z" fill="#2F2E41"/>
<path d="M92.5865 46.2646C92.5865 46.2646 86.4953 51.7659 90.5561 52.7847C94.6169 53.8034 96.2412 47.0797 96.2412 47.0797L92.5865 46.2646Z" fill="#FFB8B8"/>
<path d="M85.4805 60.527C85.4805 60.527 88.323 57.8783 89.9474 59.3045C91.5717 60.7308 92.5869 61.7495 92.5869 61.7495C92.5869 61.7495 87.9169 58.897 85.4805 60.527Z" fill="#4285F4"/>
<path d="M86.2188 92.2207C86.2188 92.2207 87.8209 90.7278 88.7364 91.5316C89.652 92.3355 90.2242 92.9097 90.2242 92.9097C90.2242 92.9097 87.592 91.302 86.2188 92.2207Z" fill="#2F2E41"/>
<path d="M68.2695 78.3335C68.2695 78.3335 69.3694 76.4373 70.4784 76.939C71.5874 77.4407 72.3014 77.8229 72.3014 77.8229C72.3014 77.8229 69.3169 77.0535 68.2695 78.3335Z" fill="#2F2E41"/>
<path d="M98.1603 16.8975C96.1476 12.8375 90.0236 15.0518 91.0187 19.4751C91.0335 19.541 91.049 19.6076 91.0653 19.6748C92.1141 23.8619 93.828 27.8522 96.1413 31.4924L93.9078 41.4762L91.4714 46.57L96.5474 47.7925L102.842 32.5111C102.842 32.5111 101.105 22.8384 98.1603 16.8975Z" fill="#2F2E41"/>
<path opacity="0.2" d="M95.2249 31.7988L91.3672 46.4689L94.6158 39.5414L95.2249 31.7988Z" fill="black"/>
<path d="M85.4211 1.98888C85.4211 1.98888 82.1663 -1.44972 78.8902 0.715781C75.6141 2.88128 74.06 4.98486 74.3812 6.44954C74.7024 7.91422 75.6531 9.95152 75.6531 9.95152C75.6531 9.95152 75.0623 6.91712 77.7749 6.69257C80.4876 6.46803 84.2355 4.66652 84.2355 4.66652L86.7706 10.0993C86.7706 10.0993 87.129 8.84036 88.1226 9.20146C89.1162 9.56256 88.346 2.39164 85.4211 1.98888Z" fill="#2F2E41"/>
<path d="M64.5666 79.6803C64.5664 80.1964 64.5236 80.7116 64.4387 81.2206V81.2227C64.2055 82.5919 63.6654 83.8902 62.8592 85.0194C62.053 86.1486 61.0016 87.0793 59.7846 87.7411C58.5675 88.403 57.2165 88.7788 55.8336 88.8401C54.4507 88.9014 53.0719 88.6467 51.8014 88.0952H51.7994C51.4235 87.9324 51.0592 87.7438 50.7091 87.5308C49.624 86.8734 48.6869 85.9969 47.9571 84.957C47.2273 83.917 46.7208 82.7363 46.4696 81.4896C46.3519 80.8937 46.2927 80.2877 46.293 79.6803C46.293 79.4032 46.3052 79.1281 46.3295 78.8571V78.8551C46.5402 76.5154 47.6378 74.3461 49.3959 72.7949C51.1539 71.2436 53.4383 70.4287 55.7776 70.5184C58.1169 70.6081 60.3327 71.5954 61.9677 73.2767C63.6028 74.958 64.5323 77.2049 64.5645 79.5539V79.556C64.5666 79.5988 64.5666 79.6375 64.5666 79.6803Z" fill="#4285F4"/>
<path d="M57.6774 76.6177H53.5852L51.5391 73.0622L52.9269 70.6483L53.008 70.6264C54.765 70.1553 56.6206 70.2073 58.3485 70.7762L58.4221 70.8007L59.7235 73.0622L57.6774 76.6177ZM53.8196 76.2102H57.443L59.2546 73.0622L58.1482 71.1393C56.5425 70.6284 54.8262 70.5796 53.1943 70.9985L52.008 73.0622L53.8196 76.2102Z" fill="white"/>
<path d="M57.4742 83.9524H53.3821L51.3359 80.3961L53.3821 76.8398H57.4742L59.5204 80.3961L57.4742 83.9524ZM53.6165 83.5449H57.2399L59.0515 80.3961L57.2399 77.2473H53.6165L51.8049 80.3961L53.6165 83.5449Z" fill="white"/>
<path d="M55.4297 89.0524C54.1535 89.0548 52.8906 88.7924 51.7204 88.2816L51.5117 88.1907L53.5865 84.582H57.6788L59.6661 88.0366L59.4687 88.1318C58.209 88.741 56.8281 89.0558 55.4297 89.0524ZM52.0923 87.9963C53.2087 88.447 54.4042 88.667 55.6073 88.6432C56.8105 88.6193 57.9964 88.352 59.0942 87.8574L57.4444 84.9895H53.8211L52.0923 87.9963Z" fill="white"/>
<path d="M64.3805 80.2849H60.2884L58.2422 76.7294L60.2883 73.1719H62.1516L62.2117 73.2353C63.8276 74.9413 64.7411 77.1973 64.7689 79.5508V79.6099L64.3805 80.2849ZM60.5227 79.8774H64.1461L64.362 79.5023C64.3228 77.3001 63.4731 75.1904 61.9765 73.5794H60.5228L58.7111 76.7294L60.5227 79.8774Z" fill="white"/>
<path d="M60.2319 87.7244L58.2422 84.2684L60.2883 80.7109H64.3803L64.643 81.1654L64.6401 81.2565C64.4183 82.5541 63.9271 83.7903 63.1985 84.8851C62.4698 85.9798 61.5199 86.9086 60.4105 87.6112L60.2319 87.7244ZM58.7111 84.2684L60.3709 87.1512C61.3765 86.4807 62.2365 85.6131 62.8993 84.6005C63.5621 83.5879 64.0139 82.4513 64.2276 81.2589L64.1463 81.1184H60.5228L58.7111 84.2684Z" fill="white"/>
<path d="M50.7798 87.8124L50.6025 87.7049C49.4937 87.0324 48.5361 86.1363 47.7901 85.0733C47.0442 84.0103 46.5262 82.8036 46.269 81.5293L46.2539 81.4539L46.6818 80.7109H50.774L52.8201 84.2684L50.7798 87.8124ZM46.6825 81.5242C46.9291 82.694 47.4058 83.8027 48.0848 84.7853C48.7637 85.7679 49.6313 86.6047 50.6365 87.2467L52.3512 84.2684L50.5395 81.1184H46.9162L46.6825 81.5242Z" fill="white"/>
<path d="M50.774 79.8776H46.682L46.125 78.9116V78.8569C46.3255 76.5478 47.3739 74.396 49.0668 72.8192L49.1253 72.7646H50.7741L52.8202 76.3221L50.774 79.8776ZM46.9161 79.4701H50.5396L52.3512 76.3221L50.5395 73.1721H49.2855C47.7191 74.6557 46.7422 76.6592 46.536 78.8107L46.9161 79.4701Z" fill="white"/>
</g>
<defs>
<clipPath id="clip0_2152_25414">
<rect width="174" height="104" fill="white"/>
</clipPath>
</defs>
</svg>
