<svg width="496" height="251" viewBox="0 0 496 251" fill="none" xmlns="http://www.w3.org/2000/svg">
<g clip-path="url(#clip0_2066_57970)">
<path d="M8.83095 231.757C-13.9037 207.736 10.4167 143.47 47.0939 104.168C91.6943 56.386 153.177 16.1926 272.029 29.8609C370.168 41.153 431.095 90.6677 451.82 116.169C484.776 156.703 508.585 213.897 488.737 237.551C455.429 277.255 317.815 209.7 243.17 208.323C168.525 206.945 59.6053 285.308 8.83095 231.757Z" fill="#DFEAFD"/>
<path d="M361.493 193.381H102.446L47.9599 15.1983C47.4384 13.4968 47.3237 11.6966 47.6251 9.94271C47.9264 8.1888 48.6353 6.53013 49.6947 5.10022C50.7541 3.67032 52.1344 2.50913 53.7246 1.71013C55.3148 0.911125 57.0703 0.496634 58.8499 0.500021H294.098C296.533 0.499808 298.905 1.28168 300.862 2.73051C302.82 4.17933 304.261 6.21852 304.972 8.54777L361.493 193.381Z" fill="#4285F4"/>
<path d="M319.068 172.169H133.223C130.766 172.168 128.373 171.379 126.397 169.918C124.421 168.457 122.967 166.4 122.247 164.05L80.9862 29.1119C80.7235 28.2558 80.6653 27.35 80.8165 26.4673C80.9676 25.5846 81.3239 24.7498 81.8565 24.0299C82.3892 23.31 83.0834 22.7252 83.8833 22.3225C84.6832 21.9198 85.5664 21.7105 86.4619 21.7114H272.304C274.761 21.7119 277.154 22.5008 279.13 23.9623C281.105 25.4237 282.56 27.4806 283.28 29.8304L324.542 164.768C324.805 165.624 324.863 166.53 324.712 167.413C324.561 168.296 324.205 169.13 323.672 169.85C323.139 170.57 322.445 171.155 321.645 171.558C320.845 171.96 319.962 172.17 319.067 172.169H319.068Z" fill="#B6D1FB"/>
<path d="M102.445 193.38H450.401C451.564 193.38 452.715 193.609 453.789 194.054C454.862 194.499 455.838 195.152 456.66 195.974C457.482 196.796 458.134 197.772 458.578 198.846C459.023 199.92 459.252 201.071 459.251 202.233V214.06C459.251 216.407 458.318 218.658 456.659 220.318C454.999 221.978 452.748 222.91 450.401 222.911H111.296C108.949 222.91 106.698 221.978 105.038 220.318C103.378 218.658 102.446 216.407 102.445 214.06V193.38Z" fill="#4285F4"/>
<path d="M144.855 103.436L166.019 79.811" stroke="#1C3177" stroke-width="11.336" stroke-miterlimit="10" stroke-linecap="round"/>
<path d="M171.014 103.436L139.145 79.811" stroke="#1C3177" stroke-width="11.336" stroke-miterlimit="10" stroke-linecap="round"/>
<path d="M249.359 103.436L270.523 79.811" stroke="#1C3177" stroke-width="11.336" stroke-miterlimit="10" stroke-linecap="round"/>
<path d="M275.522 103.436L243.645 79.811" stroke="#1C3177" stroke-width="11.336" stroke-miterlimit="10" stroke-linecap="round"/>
<path d="M197.051 118.372C197.051 118.372 213.641 109.223 230.491 118.372" stroke="#1C3177" stroke-width="11.336" stroke-miterlimit="10" stroke-linecap="round"/>
<path d="M378.231 90.4865C376.312 90.4817 374.452 89.8213 372.96 88.6146C371.468 87.408 370.434 85.7276 370.028 83.8522C368.468 76.819 367.478 71.4484 368.855 66.425C370.507 60.4678 374.867 56.98 379.562 53.6418C382.728 51.3974 384.925 47.9913 385.17 44.9719C385.242 43.9771 385.079 42.9795 384.693 42.0596C384.308 41.1398 383.711 40.3237 382.952 39.6774C378.027 34.8982 370.053 42.3343 369.696 42.6555C369.696 42.6555 362.997 48.327 358.02 42.3804C353.044 36.4338 358.02 30.5382 358.02 30.5382C361.231 27.557 364.924 25.1426 368.943 23.3982C378.521 19.3141 387.647 20.844 394.644 27.6013C397.176 29.9736 399.145 32.883 400.405 36.1158C401.665 39.3485 402.184 42.8225 401.926 46.2825C401.309 54.3303 396.586 62.2308 389.277 67.3991C385.846 69.8319 385.198 70.6936 385.04 70.9695C384.647 72.2138 385.942 78.0431 386.431 80.2413C386.703 81.4703 386.695 82.7445 386.409 83.9702C386.124 85.1959 385.567 86.3421 384.781 87.3246C383.994 88.3072 382.998 89.1012 381.864 89.6483C380.731 90.1954 379.489 90.4818 378.231 90.4865Z" fill="#F7C108"/>
<path d="M382.285 119.669C387.671 119.669 392.038 115.301 392.038 109.912C392.038 104.524 387.671 100.156 382.285 100.156C376.898 100.156 372.531 104.524 372.531 109.912C372.531 115.301 376.898 119.669 382.285 119.669Z" fill="#F7C108"/>
</g>
<defs>
<clipPath id="clip0_2066_57970">
<rect width="495.954" height="250" fill="white" transform="translate(0.0234375 0.5)"/>
</clipPath>
</defs>
</svg>
