<svg width="21" height="20" viewBox="0 0 21 20" fill="none" xmlns="http://www.w3.org/2000/svg">
<path d="M8.21094 12.2493L9.46094 13.4994L12.7943 10.166" stroke="white" stroke-width="1.5" stroke-linecap="round" stroke-linejoin="round"/>
<path d="M8.78776 4.99935H12.1211C13.7878 4.99935 13.7878 4.16602 13.7878 3.33268C13.7878 1.66602 12.9544 1.66602 12.1211 1.66602H8.78776C7.95443 1.66602 7.12109 1.66602 7.12109 3.33268C7.12109 4.99935 7.95443 4.99935 8.78776 4.99935Z" stroke="white" stroke-width="1.5" stroke-miterlimit="10" stroke-linecap="round" stroke-linejoin="round"/>
<path d="M13.7865 3.34961C16.5615 3.49961 17.9531 4.52461 17.9531 8.33294V13.3329C17.9531 16.6663 17.1198 18.3329 12.9531 18.3329H7.95312C3.78646 18.3329 2.95312 16.6663 2.95312 13.3329V8.33294C2.95312 4.53294 4.34479 3.49961 7.11979 3.34961" stroke="white" stroke-width="1.5" stroke-miterlimit="10" stroke-linecap="round" stroke-linejoin="round"/>
</svg>
