<svg width="16" height="16" viewBox="0 0 16 16" fill="none" xmlns="http://www.w3.org/2000/svg">
<path d="M10.5602 1.75H5.32266C3.04766 1.75 1.69141 3.10625 1.69141 5.38125V10.6125C1.69141 12.8938 3.04766 14.25 5.32266 14.25H10.5539C12.8289 14.25 14.1852 12.8938 14.1852 10.6188V5.38125C14.1914 3.10625 12.8352 1.75 10.5602 1.75ZM11.2227 8.20625C11.2227 8.4625 11.0102 8.675 10.7539 8.675C10.4977 8.675 10.2852 8.4625 10.2852 8.20625V6.31875L5.46016 11.1438C5.36641 11.2375 5.24766 11.2812 5.12891 11.2812C5.01016 11.2812 4.89141 11.2375 4.79766 11.1438C4.61641 10.9625 4.61641 10.6625 4.79766 10.4812L9.62266 5.65625H7.73516C7.47891 5.65625 7.26641 5.44375 7.26641 5.1875C7.26641 4.93125 7.47891 4.71875 7.73516 4.71875H10.7539C11.0102 4.71875 11.2227 4.93125 11.2227 5.1875V8.20625Z" fill="#64748B"/>
</svg>
