<svg width="16" height="16" viewBox="0 0 16 16" fill="none" xmlns="http://www.w3.org/2000/svg">
<path d="M14.9417 1.05831C14.784 0.901783 14.5863 0.791742 14.3702 0.740284C14.1541 0.688834 13.9279 0.69795 13.7167 0.766642L1.52502 4.83331C1.29891 4.90495 1.09911 5.042 0.950845 5.22713C0.802578 5.41227 0.712503 5.63719 0.691995 5.87349C0.671487 6.10979 0.721462 6.34684 0.835612 6.55476C0.94977 6.76268 1.12297 6.93209 1.33335 7.04168L6.39169 9.54168L8.89169 14.6167C8.99219 14.8153 9.14594 14.9821 9.33577 15.0983C9.5256 15.2146 9.7441 15.2758 9.96669 15.275H10.05C10.2884 15.2574 10.516 15.1686 10.7033 15.0199C10.8905 14.8713 11.0288 14.6698 11.1 14.4417L15.225 2.28331C15.2987 2.07325 15.3112 1.84659 15.261 1.62972C15.2109 1.41285 15.1001 1.21469 14.9417 1.05831ZM2.04169 5.98331L12.6834 2.43331L6.77502 8.34167L2.04169 5.98331ZM10.025 13.9583L7.65835 9.22501L13.5667 3.31664L10.025 13.9583Z" fill="white"/>
</svg>
