<svg width="20" height="20" viewBox="0 0 20 20" fill="none" xmlns="http://www.w3.org/2000/svg">
<path d="M6.50703 18.334H13.4904C16.5237 18.334 18.332 16.5257 18.332 13.4923V6.51732C18.332 3.47565 16.5237 1.66732 13.4904 1.66732H6.51536C3.48203 1.66732 1.6737 3.47565 1.6737 6.50898V13.4923C1.66537 16.5257 3.4737 18.334 6.50703 18.334ZM5.98203 10.984C6.2237 10.7423 6.6237 10.7423 6.86537 10.984L9.3737 13.4923L9.3737 5.00065C9.3737 4.65898 9.65703 4.37565 9.9987 4.37565C10.3404 4.37565 10.6237 4.65898 10.6237 5.00065L10.6237 13.4923L13.132 10.984C13.3737 10.7423 13.7737 10.7423 14.0154 10.984C14.1404 11.109 14.1987 11.2673 14.1987 11.4257C14.1987 11.584 14.132 11.7507 14.0154 11.8673L10.4404 15.4423C10.3237 15.559 10.1654 15.6257 9.9987 15.6257C9.83203 15.6257 9.6737 15.559 9.55703 15.4423L5.98203 11.8673C5.74037 11.6257 5.74037 11.234 5.98203 10.984Z" fill="#FB532E"/>
</svg>
