<svg width="21" height="20" viewBox="0 0 21 20" fill="none" xmlns="http://www.w3.org/2000/svg">
<path d="M14.0125 1.66602H7.02917C3.99583 1.66602 2.1875 3.47435 2.1875 6.50768V13.4827C2.1875 16.5244 3.99583 18.3327 7.02917 18.3327H14.0042C17.0375 18.3327 18.8458 16.5244 18.8458 13.491V6.50768C18.8542 3.47435 17.0458 1.66602 14.0125 1.66602ZM14.5375 9.01602C14.2958 9.25768 13.8958 9.25768 13.6542 9.01602L11.1458 6.50768V14.9993C11.1458 15.341 10.8625 15.6243 10.5208 15.6243C10.1792 15.6243 9.89583 15.341 9.89583 14.9993V6.50768L7.3875 9.01602C7.14583 9.25768 6.74583 9.25768 6.50417 9.01602C6.37917 8.89102 6.32083 8.73268 6.32083 8.57435C6.32083 8.41602 6.3875 8.24935 6.50417 8.13268L10.0792 4.55768C10.1958 4.44102 10.3542 4.37435 10.5208 4.37435C10.6875 4.37435 10.8458 4.44102 10.9625 4.55768L14.5375 8.13268C14.7792 8.37435 14.7792 8.76602 14.5375 9.01602Z" fill="#34A770"/>
</svg>
