<svg width="377" height="250" viewBox="0 0 377 250" fill="none" xmlns="http://www.w3.org/2000/svg">
<g clip-path="url(#clip0_307_9779)">
<path d="M175.413 203.888C169.912 177.286 163.035 168.417 163.035 168.417L160.407 166.38L157.248 163.925L157.263 163.61L156.514 163.355L156.338 163.219L156.049 162.997L156.003 163.047L155.905 163.148L141.608 158.289L123.469 152.127L115.07 141.21C113.702 139.432 111.941 137.995 109.925 137.012C107.909 136.028 105.692 135.525 103.449 135.542L76.6245 135.74C72.9975 135.767 69.5118 137.149 66.8526 139.616L49.2214 155.97L21.7486 169.091L21.7022 169.045L21.4137 169.251L17.169 171.28L17.3441 172.192L14.7169 174.088C14.7169 174.088 7.83966 182.341 2.33788 207.093C0.938294 213.392 0.249365 226.902 0.000698805 243.551C-0.0117917 244.393 0.143272 245.229 0.45687 246.011C0.770467 246.793 1.23634 247.505 1.82741 248.105C2.41848 248.705 3.12295 249.181 3.89985 249.507C4.67675 249.832 5.51059 250 6.35288 250H153.09L171.405 250C172.247 250 173.08 249.832 173.856 249.507C174.633 249.182 175.337 248.706 175.928 248.107C176.519 247.507 176.985 246.797 177.299 246.016C177.613 245.235 177.769 244.399 177.757 243.558C177.514 225.441 176.826 210.718 175.413 203.888Z" fill="#3F3D56"/>
<path d="M194.24 23.199C188.532 23.199 183.056 25.4669 179.02 29.5037C174.983 33.5406 172.715 39.0157 172.715 44.7247C172.715 50.4336 174.983 55.9087 179.02 59.9456C183.056 63.9824 188.532 66.2503 194.24 66.2503H354.658C360.367 66.2503 365.842 63.9824 369.878 59.9456C373.915 55.9087 376.183 50.4336 376.183 44.7247C376.183 39.0157 373.915 33.5406 369.878 29.5037C365.842 25.4669 360.367 23.199 354.658 23.199H194.24Z" fill="#E5E5E5"/>
<path d="M194.241 27.5554C189.687 27.5554 185.32 29.3643 182.1 32.5842C178.88 35.804 177.071 40.1711 177.071 44.7247C177.071 49.2782 178.88 53.6453 182.1 56.8652C185.32 60.085 189.687 61.8939 194.241 61.8939H354.658C359.211 61.8939 363.578 60.085 366.798 56.8652C370.018 53.6453 371.827 49.2782 371.827 44.7247C371.827 40.1711 370.018 35.804 366.798 32.5842C363.578 29.3643 359.211 27.5554 354.658 27.5554H194.241Z" fill="white"/>
<path d="M94.2491 125.464C113.658 125.464 129.392 109.73 129.392 90.3218C129.392 70.9132 113.658 55.1794 94.2491 55.1794C74.8405 55.1794 59.1067 70.9132 59.1067 90.3218C59.1067 109.73 74.8405 125.464 94.2491 125.464Z" fill="#9E616A"/>
<path d="M85.259 123.743C85.1088 123.413 84.9591 123.081 84.8098 122.748C84.8674 122.75 84.9243 122.758 84.9818 122.76L85.259 123.743Z" fill="#2F2E41"/>
<path d="M58.1294 56.7775C59.9068 55.3596 61.9841 54.055 64.2566 54.1283C66.5291 54.2016 68.8335 56.254 68.3627 58.4784C72.5367 51.0879 79.1806 45.4037 87.128 42.4236C95.0754 39.4436 103.819 39.358 111.823 42.182C117.471 44.1747 123.01 48.1612 124.307 54.0081C124.64 55.5091 124.711 57.1548 125.649 58.3737C126.83 59.9103 129.091 60.258 130.953 59.7174C130.971 59.712 130.99 59.7065 131.008 59.7009C131.323 59.5936 131.662 59.583 131.983 59.6706C132.303 59.7583 132.59 59.9401 132.806 60.1925C133.022 60.445 133.158 60.7565 133.195 61.0867C133.232 61.4169 133.169 61.7507 133.015 62.0449L131.417 65.0253C133.431 65.4744 135.524 65.4298 137.518 64.8956C137.849 64.8087 138.199 64.8264 138.52 64.9463C138.84 65.0662 139.116 65.2824 139.309 65.5652C139.502 65.848 139.603 66.1836 139.598 66.5259C139.592 66.8682 139.481 67.2005 139.28 67.4773C134.01 74.712 125.206 79.3838 116.222 79.3289C109.837 79.29 103.386 77.0894 97.172 78.5577C94.768 79.1258 92.5216 80.2248 90.5977 81.7743C88.6738 83.3237 87.1213 85.2843 86.0539 87.512C84.9865 89.7398 84.4314 92.1782 84.4294 94.6484C84.4274 97.1187 84.9784 99.5581 86.0421 101.788C84.133 99.6995 80.4426 100.194 78.4898 102.241C76.5371 104.289 76.0315 107.344 76.2283 110.167C76.5292 114.484 78.2205 118.551 80.0036 122.51C65.0544 122.04 50.9149 111.553 46.1555 97.3695C41.3762 83.1267 46.3851 66.1462 58.1294 56.7775Z" fill="#2F2E41"/>
<path opacity="0.2" d="M34.5892 195.857L44.4459 249.485L50.3601 250L34.5892 195.857Z" fill="black"/>
<path opacity="0.2" d="M143.162 191.812L133.306 249.446L127.391 250L143.162 191.812Z" fill="black"/>
<path d="M66.5364 38.729C64.6465 39.5182 62.6745 38.6533 61.8475 36.6727C61.0078 34.6619 61.7921 32.6206 63.7122 31.8188C65.6326 31.0169 67.5695 31.8839 68.4227 33.9272C69.2631 35.9398 68.4874 37.9144 66.5364 38.729ZM62.9162 27.8608L61.4135 28.4882C61.0381 28.6431 60.6183 28.6515 60.237 28.5116C59.8558 28.3718 59.5409 28.094 59.3547 27.7331L59.2804 27.5877C57.6635 24.6718 57.4784 21.1279 58.733 17.06C59.8953 13.4109 60.3781 10.8445 59.4072 8.51946C58.2847 5.8313 55.8878 4.98923 52.8312 6.20906C51.6457 6.70408 51.2685 6.69619 50.3356 7.62167C50.1326 7.82543 49.8907 7.98624 49.6243 8.09451C49.3579 8.20277 49.0724 8.25627 48.7849 8.25183C48.5069 8.24856 48.2324 8.18934 47.9778 8.07771C47.7232 7.96607 47.4937 7.80431 47.303 7.60207C46.9355 7.21233 46.7297 6.69766 46.727 6.16201C46.7243 5.62636 46.9249 5.10965 47.2884 4.71621C48.8565 3.07472 50.7478 1.77609 52.8431 0.902268C59.4104 -1.84002 62.7164 2.20858 64.2293 5.83169C65.7091 9.37551 64.8767 12.6636 63.5392 16.922C62.4184 20.4604 62.4837 23.0824 63.7569 25.6894C63.8488 25.8865 63.8999 26.1001 63.9072 26.3175C63.9145 26.5348 63.8778 26.7514 63.7993 26.9542C63.7208 27.157 63.6021 27.3419 63.4503 27.4977C63.2986 27.6534 63.1169 27.777 62.9162 27.8608Z" fill="#4285F4"/>
<path d="M229.675 54.9909H197.758C197.656 54.9916 197.556 54.9722 197.462 54.9339C197.368 54.8956 197.283 54.8391 197.211 54.7676C197.139 54.6962 197.082 54.6112 197.043 54.5176C197.004 54.424 196.984 54.3236 196.984 54.2222C196.984 54.1208 197.004 54.0204 197.043 53.9267C197.082 53.8331 197.139 53.7482 197.211 53.6767C197.283 53.6052 197.368 53.5487 197.462 53.5104C197.556 53.4721 197.656 53.4527 197.758 53.4534H229.675C229.878 53.4548 230.072 53.5364 230.215 53.6804C230.358 53.8244 230.438 54.0192 230.438 54.2222C230.438 54.4251 230.358 54.6199 230.215 54.7639C230.072 54.9079 229.878 54.9895 229.675 54.9909Z" fill="#4285F4"/>
<path d="M270.163 55.2472H238.246C238.145 55.2478 238.044 55.2285 237.95 55.1902C237.857 55.1518 237.771 55.0953 237.699 55.0238C237.627 54.9524 237.57 54.8674 237.531 54.7738C237.492 54.6802 237.472 54.5798 237.472 54.4784C237.472 54.377 237.492 54.2766 237.531 54.183C237.57 54.0894 237.627 54.0044 237.699 53.9329C237.771 53.8615 237.857 53.805 237.95 53.7666C238.044 53.7283 238.145 53.7089 238.246 53.7096H270.163C270.265 53.7089 270.365 53.7283 270.459 53.7666C270.553 53.805 270.638 53.8615 270.71 53.9329C270.782 54.0044 270.839 54.0894 270.878 54.183C270.917 54.2766 270.937 54.377 270.937 54.4784C270.937 54.5798 270.917 54.6802 270.878 54.7738C270.839 54.8674 270.782 54.9524 270.71 55.0238C270.638 55.0953 270.553 55.1518 270.459 55.1902C270.365 55.2285 270.265 55.2478 270.163 55.2472Z" fill="#4285F4"/>
<path d="M310.652 55.5034H278.735C278.532 55.5021 278.338 55.4205 278.195 55.2764C278.052 55.1324 277.971 54.9377 277.971 54.7347C277.971 54.5317 278.052 54.3369 278.195 54.1929C278.338 54.0489 278.532 53.9673 278.735 53.9659H310.652C310.753 53.9652 310.854 53.9846 310.948 54.0229C311.042 54.0612 311.127 54.1178 311.199 54.1892C311.271 54.2607 311.328 54.3456 311.367 54.4393C311.406 54.5329 311.426 54.6333 311.426 54.7347C311.426 54.8361 311.406 54.9365 311.367 55.0301C311.328 55.1237 311.271 55.2087 311.199 55.2801C311.127 55.3516 311.042 55.4081 310.948 55.4464C310.854 55.4848 310.753 55.5041 310.652 55.5034Z" fill="#4285F4"/>
<path d="M351.141 55.7597H319.224C319.021 55.7583 318.826 55.6767 318.683 55.5326C318.54 55.3886 318.46 55.1939 318.46 54.9909C318.46 54.7879 318.54 54.5931 318.683 54.4491C318.826 54.3051 319.021 54.2235 319.224 54.2221H351.141C351.344 54.2235 351.538 54.3051 351.681 54.4491C351.824 54.5931 351.904 54.7879 351.904 54.9909C351.904 55.1939 351.824 55.3886 351.681 55.5326C351.538 55.6767 351.344 55.7583 351.141 55.7597Z" fill="#4285F4"/>
<path d="M213.646 47.9158C216.922 47.9158 219.578 45.2599 219.578 41.9838C219.578 38.7076 216.922 36.0518 213.646 36.0518C210.37 36.0518 207.714 38.7076 207.714 41.9838C207.714 45.2599 210.37 47.9158 213.646 47.9158Z" fill="#4285F4"/>
<path d="M254.379 47.9158C257.655 47.9158 260.311 45.2599 260.311 41.9838C260.311 38.7076 257.655 36.0518 254.379 36.0518C251.103 36.0518 248.447 38.7076 248.447 41.9838C248.447 45.2599 251.103 47.9158 254.379 47.9158Z" fill="#4285F4"/>
<path d="M295.112 47.9158C298.388 47.9158 301.044 45.2599 301.044 41.9838C301.044 38.7076 298.388 36.0518 295.112 36.0518C291.836 36.0518 289.18 38.7076 289.18 41.9838C289.18 45.2599 291.836 47.9158 295.112 47.9158Z" fill="#4285F4"/>
<path d="M335.846 47.9158C339.122 47.9158 341.778 45.2599 341.778 41.9838C341.778 38.7076 339.122 36.0518 335.846 36.0518C332.569 36.0518 329.914 38.7076 329.914 41.9838C329.914 45.2599 332.569 47.9158 335.846 47.9158Z" fill="#4285F4"/>
</g>
<defs>
<clipPath id="clip0_307_9779">
<rect width="376.183" height="250" fill="white"/>
</clipPath>
</defs>
</svg>
