<svg width="60" height="60" viewBox="0 0 60 60" fill="none" xmlns="http://www.w3.org/2000/svg">
<path opacity="0.4" d="M23 8C19.07 8 15.875 11.195 15.875 15.125C15.875 18.98 18.89 22.1 22.82 22.235C22.94 22.22 23.06 22.22 23.15 22.235C23.18 22.235 23.195 22.235 23.225 22.235C23.24 22.235 23.24 22.235 23.255 22.235C27.095 22.1 30.11 18.98 30.125 15.125C30.125 11.195 26.93 8 23 8Z" fill="white"/>
<path d="M30.6175 26.225C26.4325 23.435 19.6075 23.435 15.3925 26.225C13.4875 27.5 12.4375 29.225 12.4375 31.07C12.4375 32.915 13.4875 34.625 15.3775 35.885C17.4775 37.295 20.2375 38 22.9975 38C25.7575 38 28.5175 37.295 30.6175 35.885C32.5075 34.61 33.5575 32.9 33.5575 31.04C33.5425 29.195 32.5075 27.485 30.6175 26.225Z" fill="white"/>
<path d="M40.2502 17.5748H17.2666C13.9474 17.5748 11.2574 20.2655 11.2574 23.584V54.7934C9.4188 55.8561 7.21698 56.0921 5.19531 55.4424L5.24813 55.2816V18.7766C5.24813 15.4581 7.9382 12.7674 11.2574 12.7674H35.4428C38.0977 12.7674 40.2502 14.9199 40.2502 17.5748Z" fill="#C1FFEE"/>
<path fill-rule="evenodd" clip-rule="evenodd" d="M10.579 54.3297C12.3618 53.2968 13.6412 51.5756 14.1165 49.5704L20.6668 26.4424C21.3094 23.7324 23.7289 21.8187 26.5141 21.8181H53.6032C55.4013 21.8181 57.1043 22.6233 58.2457 24.0123C59.3871 25.4008 59.8466 27.2282 59.4986 28.9917L54.3608 50.4941C53.8045 53.3097 51.3357 55.339 48.4654 55.339H6.82031C8.14012 55.3396 9.43703 54.9916 10.579 54.3297Z" fill="#00D097"/>
<path fill-rule="evenodd" clip-rule="evenodd" d="M49.2652 22.282H46.2606C46.2612 19.6828 44.1545 17.5755 41.5553 17.5749H40.2514C40.2514 14.92 38.0989 12.7675 35.444 12.7675H11.2585C7.93936 12.7675 5.24929 15.4582 5.24929 18.7768V55.2817L5.19647 55.4425C2.09971 54.4414 0.00058684 51.5582 0 48.3036V9.13086C0 5.60806 2.85615 2.75191 6.37895 2.75191H21.2518C22.7019 2.75191 24.1033 3.27654 25.1966 4.2284L28.5181 7.11917C29.612 8.07161 31.0133 8.59625 32.4634 8.59566H42.8881C46.4103 8.59684 49.2652 11.4524 49.2652 14.9746V22.282Z" fill="#00D097"/>
<path d="M46.2599 22.2818H27.1929C24.4077 22.2824 21.9882 24.1961 21.3456 26.9061L14.7953 50.0341C14.3199 52.0393 13.0406 53.7605 11.2578 54.7933V23.584C11.2578 20.2654 13.9479 17.5748 17.2671 17.5748H41.5546C44.1537 17.5753 46.2605 19.6827 46.2599 22.2818Z" fill="#71E1C3"/>
</svg>
