<svg width="60" height="60" viewBox="0 0 60 60" fill="none" xmlns="http://www.w3.org/2000/svg">
<path d="M40.2502 17.5747H17.2666C13.9474 17.5747 11.2574 20.2654 11.2574 23.5839V54.7933C9.4188 55.8561 7.21698 56.092 5.19531 55.4423L5.24813 55.2815V18.7766C5.24813 15.458 7.9382 12.7673 11.2574 12.7673H35.4428C38.0977 12.7673 40.2502 14.9198 40.2502 17.5747Z" fill="#FFF7E3"/>
<path d="M10.579 54.3296C12.3618 53.2967 13.6412 51.5755 14.1165 49.5703L20.6668 26.4423C21.3094 23.7323 23.7289 21.8186 26.5141 21.818H53.6032C55.4013 21.818 57.1043 22.6232 58.2457 24.0122C59.3871 25.4007 59.8466 27.2281 59.4986 28.9916L54.3608 50.494C53.8045 53.3096 51.3357 55.3389 48.4654 55.3389H6.82031C8.14012 55.3395 9.43703 54.9915 10.579 54.3296Z" fill="#FDC748"/>
<path d="M49.2652 22.2819H46.2606C46.2612 19.6828 44.1545 17.5755 41.5553 17.5749H40.2514C40.2514 14.92 38.0989 12.7675 35.444 12.7675H11.2585C7.93936 12.7675 5.24929 15.4582 5.24929 18.7767V55.2817L5.19647 55.4425C2.09971 54.4414 0.00058684 51.5582 0 48.3036V9.13084C0 5.60804 2.85615 2.75189 6.37895 2.75189H21.2518C22.7019 2.75189 24.1033 3.27652 25.1966 4.22838L28.5181 7.11915C29.612 8.07159 31.0133 8.59623 32.4634 8.59564H42.8881C46.4103 8.59682 49.2652 11.4524 49.2652 14.9746V22.2819Z" fill="#FDC748"/>
<path d="M46.2599 22.2816H27.1929C24.4077 22.2822 21.9882 24.1958 21.3456 26.9059L14.7953 50.0338C14.3199 52.0391 13.0406 53.7603 11.2578 54.7931V23.5838C11.2578 20.2652 13.9479 17.5745 17.2671 17.5745H41.5546C44.1537 17.5751 46.2605 19.6825 46.2599 22.2816Z" fill="#FFE39B"/>
</svg>
