<svg width="16" height="20" viewBox="0 0 16 20" fill="none" xmlns="http://www.w3.org/2000/svg">
<path d="M8.82923 9.38381C9.5493 10.6727 10.294 12.0055 10.627 12.5224C10.8713 12.9022 11.7546 14.2077 14.5737 18.2677C14.8046 18.2142 15.0533 18.3081 15.2045 18.5282C15.2942 18.6587 15.3273 18.8158 15.2984 18.9713C15.2696 19.1264 15.1814 19.261 15.0514 19.3507L14.2585 19.8957C14.1592 19.9638 14.0434 20 13.9233 20H13.9229C13.7282 20 13.5461 19.9041 13.4226 19.7244C13.2829 19.5212 13.2879 19.258 13.418 19.0617C12.8911 18.2866 10.0654 14.1315 9.46848 13.3179C9.10553 12.8222 8.12876 11.6507 7.18468 10.5181C6.40798 9.5863 5.67484 8.70608 5.32348 8.25157C4.55451 7.25629 3.30253 5.55865 3.28599 5.53672L0.936385 2.11798C0.459895 1.42484 0.776239 0.902187 1.01833 0.716686L1.89778 0.112371C1.91665 0.10082 2.08907 0 2.33502 0C2.57132 0 2.91809 0.0942998 3.22675 0.543823L5.58017 3.96759C5.59132 3.9853 6.72747 5.76263 7.38137 6.83715C7.68041 7.32749 8.23844 8.32619 8.82923 9.38381Z" fill="#3B82F6"/>
</svg>
